<svg xmlns="http://www.w3.org/2000/svg" width="800" height="600"><style></style><rect class="boundary" x="0" y="0" fill="#000" width="800" height="600" data-type="pcb_background" data-pcb-layer="global"/><rect class="pcb-boundary" fill="none" stroke="#fff" stroke-width="0.3" x="263.4540773822436" y="50.00626703541627" width="273.09184523551284" height="499.98746592916746" data-type="pcb_boundary" data-pcb-layer="global"/><rect class="pcb-pad" fill="rgb(200, 52, 52)" x="293.5803479571095" y="437.4792220835076" width="31.503758208497477" height="112.51451088107615" rx="15.751879104248738" ry="15.751879104248738" data-type="pcb_smtpad" data-pcb-layer="top" data-pad-name="unnamed_chip1.QSPI_CS"/><rect class="pcb-pad" fill="rgb(200, 52, 52)" x="357.0883070920881" y="437.4792220835076" width="31.503758208497477" height="112.51451088107615" rx="15.751879104248738" ry="15.751879104248738" data-type="pcb_smtpad" data-pcb-layer="top" data-pad-name="unnamed_chip1.QSPI_IO1"/><rect class="pcb-pad" fill="rgb(200, 52, 52)" x="420.5962662270667" y="437.4792220835076" width="31.503758208497477" height="112.51451088107615" rx="15.751879104248738" ry="15.751879104248738" data-type="pcb_smtpad" data-pcb-layer="top" data-pad-name="unnamed_chip1.QSPI_IO2"/><rect class="pcb-pad" fill="rgb(200, 52, 52)" x="484.10422536204527" y="437.4792220835076" width="31.503758208497477" height="112.51451088107615" rx="15.751879104248738" ry="15.751879104248738" data-type="pcb_smtpad" data-pcb-layer="top" data-pad-name="unnamed_chip1.VSS"/><rect class="pcb-pad" fill="rgb(200, 52, 52)" x="293.5803479571095" y="84.42577566033466" width="31.503758208497477" height="112.51451088107615" rx="15.751879104248738" ry="15.751879104248738" data-type="pcb_smtpad" data-pcb-layer="top" data-pad-name="unnamed_chip1.VCC"/><rect class="pcb-pad" fill="rgb(200, 52, 52)" x="357.0883070920881" y="84.42577566033466" width="31.503758208497477" height="112.51451088107615" rx="15.751879104248738" ry="15.751879104248738" data-type="pcb_smtpad" data-pcb-layer="top" data-pad-name="unnamed_chip1.QSPI_IO3"/><rect class="pcb-pad" fill="rgb(200, 52, 52)" x="420.5962662270667" y="84.42577566033466" width="31.503758208497477" height="112.51451088107615" rx="15.751879104248738" ry="15.751879104248738" data-type="pcb_smtpad" data-pcb-layer="top" data-pad-name="unnamed_chip1.QSPI_SCK"/><rect class="pcb-pad" fill="rgb(200, 52, 52)" x="484.10422536204527" y="84.42577566033466" width="31.503758208497477" height="112.51451088107615" rx="15.751879104248738" ry="15.751879104248738" data-type="pcb_smtpad" data-pcb-layer="top" data-pad-name="unnamed_chip1.QSPI_IO0"/><path class="pcb-silkscreen pcb-silkscreen-top" d="M 272.64240890989583 426.04334388206934 L 272.64240890989583 208.3761647428434 L 536.5459226177564 208.3761647428434 L 536.5459226177564 426.04334388206934 L 272.64240890989583 426.04334388206934 Z" fill="none" stroke="#f2eda1" stroke-width="5.000626703541621" stroke-linecap="round" stroke-linejoin="round" data-pcb-component-id="pcb_component_0" data-pcb-silkscreen-path-id="pcb_silkscreen_path_0" data-type="pcb_silkscreen_path" data-pcb-layer="top"/><path class="pcb-silkscreen pcb-silkscreen-top" d="M 316.83886783111564 388.4148780946 L 316.5830852495359 390.35773969055356 L 315.8331686650466 392.168198479478 L 314.6402236535823 393.7228746868227 L 313.0855474462376 394.9158196982927 L 311.27508865731886 395.66573628277627 L 309.33222706135393 395.92151886435033 L 307.3893654654004 395.66573628277627 L 305.57890667648167 394.9158196982927 L 304.0242304691313 393.7228746868227 L 302.8312854576669 392.168198479478 L 302.0813688731834 390.35773969055356 L 301.8255862916036 388.4148780946 L 302.0813688731834 386.47201649864076 L 302.8312854576669 384.66155770971636 L 304.0242304691313 383.10688150237735 L 305.57890667648167 381.913936490913 L 307.3893654654004 381.1640199064181 L 309.33222706135393 380.90823732484404 L 311.27508865731886 381.1640199064181 L 313.0855474462376 381.913936490913 L 314.6402236535823 383.10688150237735 L 315.8331686650466 384.66155770971636 L 316.5830852495359 386.47201649864076 L 316.83886783111564 388.4148780946 Z" fill="none" stroke="#f2eda1" stroke-width="5.000626703541621" stroke-linecap="round" stroke-linejoin="round" data-pcb-component-id="pcb_component_0" data-pcb-silkscreen-path-id="pcb_silkscreen_path_1" data-type="pcb_silkscreen_path" data-pcb-layer="top"/><path class="pcb-silkscreen pcb-silkscreen-top" d="M 278.4673589217556 493.73647752404975 L 278.21157634017584 495.6793391200033 L 277.46165975568664 497.48979790892207 L 276.2687147442223 499.04447411627245 L 274.71403853687764 500.23741912773676 L 272.9035797479589 500.98733571222033 L 270.96071815199963 501.2431182938001 L 269.01785655604033 500.98733571222033 L 267.2073977671216 500.23741912773676 L 265.652721559777 499.04447411627245 L 264.4597765483069 497.48979790892207 L 263.7098599638234 495.6793391200033 L 263.4540773822436 493.73647752404975 L 263.7098599638234 491.7936159280848 L 264.4597765483069 489.9831571391661 L 265.652721559777 488.4284809318214 L 267.2073977671216 487.23553592035705 L 269.01785655604033 486.4856193358678 L 270.96071815199963 486.22983675428804 L 272.9035797479589 486.4856193358678 L 274.71403853687764 487.23553592035705 L 276.2687147442223 488.4284809318214 L 277.46165975568664 489.9831571391661 L 278.21157634017584 491.7936159280848 L 278.4673589217556 493.73647752404975 Z" fill="none" stroke="#f2eda1" stroke-width="5.000626703541621" stroke-linecap="round" stroke-linejoin="round" data-pcb-component-id="pcb_component_0" data-pcb-silkscreen-path-id="pcb_silkscreen_path_2" data-type="pcb_silkscreen_path" data-pcb-layer="top"/><text x="0" y="0" dx="0" dy="0" fill="#f2eda1" font-family="Arial, sans-serif" font-size="50.00626703541621" text-anchor="middle" dominant-baseline="central" transform="matrix(1,0,0,1,400.14860862437763,50.00626703541627)" class="pcb-silkscreen-text pcb-silkscreen-top" data-pcb-silkscreen-text-id="pcb_silkscreen_text_0" stroke="none" data-type="pcb_silkscreen_text" data-pcb-layer="top">unnamed_chip1</text></svg>