<svg xmlns="http://www.w3.org/2000/svg" width="800" height="600" data-software-used-string="@tscircuit/core@0.0.741"><style></style><rect class="boundary" x="0" y="0" fill="#000" width="800" height="600"/><rect class="pcb-boundary" fill="none" stroke="#fff" stroke-width="0.3" x="18.492832487882538" y="75.3129303946711" width="763.0143350242348" height="449.37413921065775"/><path class="pcb-board" d="M 18.492832487882538 524.6870696053288 L 781.5071675121173 524.6870696053288 L 781.5071675121173 75.3129303946711 L 18.492832487882538 75.3129303946711 Z" fill="none" stroke="rgba(255, 255, 255, 0.5)" stroke-width="1.8492832487882582"/><rect class="pcb-pad" fill="rgb(200, 52, 52)" x="50.85529858809326" y="116.92179424599065" width="12.944956851552323" height="3.6985591004435205" data-layer="top"/><rect class="pcb-pad" fill="rgb(200, 52, 52)" x="107.81329662210425" y="116.92179424599065" width="12.944956851552323" height="3.6985591004435205" data-layer="top"/><rect class="pcb-pad" fill="rgb(200, 52, 52)" x="50.85529858809326" y="124.31985188276742" width="12.944956851552323" height="3.6985591004435205" data-layer="top"/><rect class="pcb-pad" fill="rgb(200, 52, 52)" x="107.81329662210425" y="124.31985188276742" width="12.944956851552323" height="3.6985591004435205" data-layer="top"/><rect class="pcb-pad" fill="rgb(200, 52, 52)" x="50.85529858809326" y="131.71321234009156" width="12.944956851552323" height="3.6985591004435205" data-layer="top"/><rect class="pcb-pad" fill="rgb(200, 52, 52)" x="107.81329662210425" y="131.71321234009156" width="12.944956851552323" height="3.6985591004435205" data-layer="top"/><rect class="pcb-pad" fill="rgb(200, 52, 52)" x="50.85529858809326" y="139.11126997687253" width="12.944956851552323" height="3.6985591004435205" data-layer="top"/><rect class="pcb-pad" fill="rgb(200, 52, 52)" x="107.81329662210425" y="139.11126997687253" width="12.944956851552323" height="3.6985591004435205" data-layer="top"/><rect class="pcb-pad" fill="rgb(200, 52, 52)" x="50.85529858809326" y="146.5093276136493" width="12.944956851552323" height="3.6985591004435205" data-layer="top"/><rect class="pcb-pad" fill="rgb(200, 52, 52)" x="107.81329662210425" y="146.5093276136493" width="12.944956851552323" height="3.6985591004435205" data-layer="top"/><rect class="pcb-pad" fill="rgb(200, 52, 52)" x="50.85529858809326" y="153.90738525042607" width="12.944956851552323" height="3.6985591004435205" data-layer="top"/><rect class="pcb-pad" fill="rgb(200, 52, 52)" x="107.81329662210425" y="153.90738525042607" width="12.944956851552323" height="3.6985591004435205" data-layer="top"/><rect class="pcb-pad" fill="rgb(200, 52, 52)" x="50.85529858809326" y="161.30544288720705" width="12.944956851552323" height="3.6985591004435205" data-layer="top"/><rect class="pcb-pad" fill="rgb(200, 52, 52)" x="107.81329662210425" y="161.30544288720705" width="12.944956851552323" height="3.6985591004435205" data-layer="top"/><rect class="pcb-pad" fill="rgb(200, 52, 52)" x="50.85529858809326" y="168.69880334453114" width="12.944956851552323" height="3.6985591004435205" data-layer="top"/><rect class="pcb-pad" fill="rgb(200, 52, 52)" x="107.81329662210425" y="168.69880334453114" width="12.944956851552323" height="3.6985591004435205" data-layer="top"/><rect class="pcb-pad" fill="rgb(200, 52, 52)" x="50.85529858809326" y="176.09686098130794" width="12.944956851552323" height="3.6985591004435205" data-layer="top"/><rect class="pcb-pad" fill="rgb(200, 52, 52)" x="107.81329662210425" y="176.09686098130794" width="12.944956851552323" height="3.6985591004435205" data-layer="top"/><rect class="pcb-pad" fill="rgb(200, 52, 52)" x="50.85529858809326" y="183.49491861808468" width="12.944956851552323" height="3.6985591004435205" data-layer="top"/><rect class="pcb-pad" fill="rgb(200, 52, 52)" x="107.81329662210425" y="183.49491861808468" width="12.944956851552323" height="3.6985591004435205" data-layer="top"/><rect class="pcb-pad" fill="rgb(200, 52, 52)" x="50.85529858809326" y="190.89297625486148" width="12.944956851552323" height="3.6985591004435205" data-layer="top"/><rect class="pcb-pad" fill="rgb(200, 52, 52)" x="107.81329662210425" y="190.89297625486148" width="12.944956851552323" height="3.6985591004435205" data-layer="top"/><rect class="pcb-pad" fill="rgb(200, 52, 52)" x="50.85529858809326" y="198.29103389163822" width="12.944956851552323" height="3.6985591004435205" data-layer="top"/><rect class="pcb-pad" fill="rgb(200, 52, 52)" x="107.81329662210425" y="198.29103389163822" width="12.944956851552323" height="3.6985591004435205" data-layer="top"/><rect class="pcb-pad" fill="rgb(200, 52, 52)" x="50.85529858809326" y="205.68439434896234" width="12.944956851552323" height="3.6985591004435205" data-layer="top"/><rect class="pcb-pad" fill="rgb(200, 52, 52)" x="107.81329662210425" y="205.68439434896234" width="12.944956851552323" height="3.6985591004435205" data-layer="top"/><rect class="pcb-pad" fill="rgb(200, 52, 52)" x="50.85529858809326" y="213.08245198574332" width="12.944956851552323" height="3.6985591004435205" data-layer="top"/><rect class="pcb-pad" fill="rgb(200, 52, 52)" x="107.81329662210425" y="213.08245198574332" width="12.944956851552323" height="3.6985591004435205" data-layer="top"/><rect class="pcb-pad" fill="rgb(200, 52, 52)" x="50.85529858809326" y="220.4805096225201" width="12.944956851552323" height="3.6985591004435205" data-layer="top"/><rect class="pcb-pad" fill="rgb(200, 52, 52)" x="107.81329662210425" y="220.4805096225201" width="12.944956851552323" height="3.6985591004435205" data-layer="top"/><rect class="pcb-pad" fill="rgb(200, 52, 52)" x="50.85529858809326" y="227.87856725929686" width="12.944956851552323" height="3.6985591004435205" data-layer="top"/><rect class="pcb-pad" fill="rgb(200, 52, 52)" x="107.81329662210425" y="227.87856725929686" width="12.944956851552323" height="3.6985591004435205" data-layer="top"/><rect class="pcb-pad" fill="rgb(200, 52, 52)" x="50.85529858809326" y="235.27662489607366" width="12.944956851552323" height="3.6985591004435205" data-layer="top"/><rect class="pcb-pad" fill="rgb(200, 52, 52)" x="107.81329662210425" y="235.27662489607366" width="12.944956851552323" height="3.6985591004435205" data-layer="top"/><rect class="pcb-pad" fill="rgb(200, 52, 52)" x="50.85529858809326" y="242.66998535340196" width="12.944956851552323" height="3.6985591004435205" data-layer="top"/><rect class="pcb-pad" fill="rgb(200, 52, 52)" x="107.81329662210425" y="242.66998535340196" width="12.944956851552323" height="3.6985591004435205" data-layer="top"/><rect class="pcb-pad" fill="rgb(200, 52, 52)" x="50.85529858809326" y="250.06804299017452" width="12.944956851552323" height="3.6985591004435205" data-layer="top"/><rect class="pcb-pad" fill="rgb(200, 52, 52)" x="107.81329662210425" y="250.06804299017452" width="12.944956851552323" height="3.6985591004435205" data-layer="top"/><rect class="pcb-pad" fill="rgb(200, 52, 52)" x="50.85529858809326" y="257.4661006269555" width="12.944956851552323" height="3.6985591004435205" data-layer="top"/><rect class="pcb-pad" fill="rgb(200, 52, 52)" x="107.81329662210425" y="257.4661006269555" width="12.944956851552323" height="3.6985591004435205" data-layer="top"/><rect class="pcb-pad" fill="rgb(200, 52, 52)" x="50.85529858809326" y="264.86415826373224" width="12.944956851552323" height="3.6985591004435205" data-layer="top"/><rect class="pcb-pad" fill="rgb(200, 52, 52)" x="107.81329662210425" y="264.86415826373224" width="12.944956851552323" height="3.6985591004435205" data-layer="top"/><rect class="pcb-pad" fill="rgb(200, 52, 52)" x="50.85529858809326" y="272.26221590050903" width="12.944956851552323" height="3.6985591004435205" data-layer="top"/><rect class="pcb-pad" fill="rgb(200, 52, 52)" x="107.81329662210425" y="272.26221590050903" width="12.944956851552323" height="3.6985591004435205" data-layer="top"/><rect class="pcb-pad" fill="rgb(200, 52, 52)" x="50.85529858809326" y="279.65557635783733" width="12.944956851552323" height="3.6985591004435205" data-layer="top"/><rect class="pcb-pad" fill="rgb(200, 52, 52)" x="107.81329662210425" y="279.65557635783733" width="12.944956851552323" height="3.6985591004435205" data-layer="top"/><rect class="pcb-pad" fill="rgb(200, 52, 52)" x="50.85529858809326" y="287.0536339946099" width="12.944956851552323" height="3.6985591004435205" data-layer="top"/><rect class="pcb-pad" fill="rgb(200, 52, 52)" x="107.81329662210425" y="287.0536339946099" width="12.944956851552323" height="3.6985591004435205" data-layer="top"/><rect class="pcb-pad" fill="rgb(200, 52, 52)" x="50.85529858809326" y="294.4516916313909" width="12.944956851552323" height="3.6985591004435205" data-layer="top"/><rect class="pcb-pad" fill="rgb(200, 52, 52)" x="107.81329662210425" y="294.4516916313909" width="12.944956851552323" height="3.6985591004435205" data-layer="top"/><rect class="pcb-pad" fill="rgb(200, 52, 52)" x="50.85529858809326" y="301.84974926816767" width="12.944956851552323" height="3.6985591004435205" data-layer="top"/><rect class="pcb-pad" fill="rgb(200, 52, 52)" x="107.81329662210425" y="301.84974926816767" width="12.944956851552323" height="3.6985591004435205" data-layer="top"/><rect class="pcb-pad" fill="rgb(200, 52, 52)" x="50.85529858809326" y="309.2478069049444" width="12.944956851552323" height="3.6985591004435205" data-layer="top"/><rect class="pcb-pad" fill="rgb(200, 52, 52)" x="107.81329662210425" y="309.2478069049444" width="12.944956851552323" height="3.6985591004435205" data-layer="top"/><rect class="pcb-pad" fill="rgb(200, 52, 52)" x="50.85529858809326" y="316.6411673622685" width="12.944956851552323" height="3.6985591004435205" data-layer="top"/><rect class="pcb-pad" fill="rgb(200, 52, 52)" x="107.81329662210425" y="316.6411673622685" width="12.944956851552323" height="3.6985591004435205" data-layer="top"/><rect class="pcb-pad" fill="rgb(200, 52, 52)" x="50.85529858809326" y="324.0392249990495" width="12.944956851552323" height="3.6985591004435205" data-layer="top"/><rect class="pcb-pad" fill="rgb(200, 52, 52)" x="107.81329662210425" y="324.0392249990495" width="12.944956851552323" height="3.6985591004435205" data-layer="top"/><rect class="pcb-pad" fill="rgb(200, 52, 52)" x="50.85529858809326" y="331.4372826358263" width="12.944956851552323" height="3.6985591004435205" data-layer="top"/><rect class="pcb-pad" fill="rgb(200, 52, 52)" x="107.81329662210425" y="331.4372826358263" width="12.944956851552323" height="3.6985591004435205" data-layer="top"/><rect class="pcb-pad" fill="rgb(200, 52, 52)" x="50.85529858809326" y="338.83534027260305" width="12.944956851552323" height="3.6985591004435205" data-layer="top"/><rect class="pcb-pad" fill="rgb(200, 52, 52)" x="107.81329662210425" y="338.83534027260305" width="12.944956851552323" height="3.6985591004435205" data-layer="top"/><rect class="pcb-pad" fill="rgb(200, 52, 52)" x="50.85529858809326" y="346.23339790937985" width="12.944956851552323" height="3.6985591004435205" data-layer="top"/><rect class="pcb-pad" fill="rgb(200, 52, 52)" x="107.81329662210425" y="346.23339790937985" width="12.944956851552323" height="3.6985591004435205" data-layer="top"/><rect class="pcb-pad" fill="rgb(200, 52, 52)" x="50.85529858809326" y="353.62675836670394" width="12.944956851552323" height="3.6985591004435205" data-layer="top"/><rect class="pcb-pad" fill="rgb(200, 52, 52)" x="107.81329662210425" y="353.62675836670394" width="12.944956851552323" height="3.6985591004435205" data-layer="top"/><rect class="pcb-pad" fill="rgb(200, 52, 52)" x="50.85529858809326" y="361.0248160034807" width="12.944956851552323" height="3.6985591004435205" data-layer="top"/><rect class="pcb-pad" fill="rgb(200, 52, 52)" x="107.81329662210425" y="361.0248160034807" width="12.944956851552323" height="3.6985591004435205" data-layer="top"/><rect class="pcb-pad" fill="rgb(200, 52, 52)" x="50.85529858809326" y="368.4228736402617" width="12.944956851552323" height="3.6985591004435205" data-layer="top"/><rect class="pcb-pad" fill="rgb(200, 52, 52)" x="107.81329662210425" y="368.4228736402617" width="12.944956851552323" height="3.6985591004435205" data-layer="top"/><rect class="pcb-pad" fill="rgb(200, 52, 52)" x="50.85529858809326" y="375.8209312770385" width="12.944956851552323" height="3.6985591004435205" data-layer="top"/><rect class="pcb-pad" fill="rgb(200, 52, 52)" x="107.81329662210425" y="375.8209312770385" width="12.944956851552323" height="3.6985591004435205" data-layer="top"/><rect class="pcb-pad" fill="rgb(200, 52, 52)" x="50.85529858809326" y="383.2189889138152" width="12.944956851552323" height="3.6985591004435205" data-layer="top"/><rect class="pcb-pad" fill="rgb(200, 52, 52)" x="107.81329662210425" y="383.2189889138152" width="12.944956851552323" height="3.6985591004435205" data-layer="top"/><rect class="pcb-pad" fill="rgb(200, 52, 52)" x="50.85529858809326" y="390.6123493711393" width="12.944956851552323" height="3.6985591004435205" data-layer="top"/><rect class="pcb-pad" fill="rgb(200, 52, 52)" x="107.81329662210425" y="390.6123493711393" width="12.944956851552323" height="3.6985591004435205" data-layer="top"/><rect class="pcb-pad" fill="rgb(200, 52, 52)" x="50.85529858809326" y="398.01040700792026" width="12.944956851552323" height="3.6985591004435205" data-layer="top"/><rect class="pcb-pad" fill="rgb(200, 52, 52)" x="107.81329662210425" y="398.01040700792026" width="12.944956851552323" height="3.6985591004435205" data-layer="top"/><rect class="pcb-pad" fill="rgb(200, 52, 52)" x="50.85529858809326" y="405.40846464469286" width="12.944956851552323" height="3.6985591004435205" data-layer="top"/><rect class="pcb-pad" fill="rgb(200, 52, 52)" x="107.81329662210425" y="405.40846464469286" width="12.944956851552323" height="3.6985591004435205" data-layer="top"/><rect class="pcb-pad" fill="rgb(200, 52, 52)" x="50.85529858809326" y="412.80652228147386" width="12.944956851552323" height="3.6985591004435205" data-layer="top"/><rect class="pcb-pad" fill="rgb(200, 52, 52)" x="107.81329662210425" y="412.80652228147386" width="12.944956851552323" height="3.6985591004435205" data-layer="top"/><rect class="pcb-pad" fill="rgb(200, 52, 52)" x="50.85529858809326" y="420.2045799182527" width="12.944956851552323" height="3.6985591004435205" data-layer="top"/><rect class="pcb-pad" fill="rgb(200, 52, 52)" x="107.81329662210425" y="420.2045799182527" width="12.944956851552323" height="3.6985591004435205" data-layer="top"/><rect class="pcb-pad" fill="rgb(200, 52, 52)" x="50.85529858809326" y="427.5979403755768" width="12.944956851552323" height="3.6985591004435205" data-layer="top"/><rect class="pcb-pad" fill="rgb(200, 52, 52)" x="107.81329662210425" y="427.5979403755768" width="12.944956851552323" height="3.6985591004435205" data-layer="top"/><rect class="pcb-pad" fill="rgb(200, 52, 52)" x="50.85529858809326" y="434.9959980123536" width="12.944956851552323" height="3.6985591004435205" data-layer="top"/><rect class="pcb-pad" fill="rgb(200, 52, 52)" x="107.81329662210425" y="434.9959980123536" width="12.944956851552323" height="3.6985591004435205" data-layer="top"/><rect class="pcb-pad" fill="rgb(200, 52, 52)" x="50.85529858809326" y="442.39405564913244" width="12.944956851552323" height="3.6985591004435205" data-layer="top"/><rect class="pcb-pad" fill="rgb(200, 52, 52)" x="107.81329662210425" y="442.39405564913244" width="12.944956851552323" height="3.6985591004435205" data-layer="top"/><rect class="pcb-pad" fill="rgb(200, 52, 52)" x="50.85529858809326" y="449.79211328590924" width="12.944956851552323" height="3.6985591004435205" data-layer="top"/><rect class="pcb-pad" fill="rgb(200, 52, 52)" x="107.81329662210425" y="449.79211328590924" width="12.944956851552323" height="3.6985591004435205" data-layer="top"/><rect class="pcb-pad" fill="rgb(200, 52, 52)" x="50.85529858809326" y="457.1901709226839" width="12.944956851552323" height="3.6985591004435205" data-layer="top"/><rect class="pcb-pad" fill="rgb(200, 52, 52)" x="107.81329662210425" y="457.1901709226839" width="12.944956851552323" height="3.6985591004435205" data-layer="top"/><rect class="pcb-pad" fill="rgb(200, 52, 52)" x="50.85529858809326" y="464.58353138001013" width="12.944956851552323" height="3.6985591004435205" data-layer="top"/><rect class="pcb-pad" fill="rgb(200, 52, 52)" x="107.81329662210425" y="464.58353138001013" width="12.944956851552323" height="3.6985591004435205" data-layer="top"/><rect class="pcb-pad" fill="rgb(200, 52, 52)" x="50.85529858809326" y="471.981589016789" width="12.944956851552323" height="3.6985591004435205" data-layer="top"/><rect class="pcb-pad" fill="rgb(200, 52, 52)" x="107.81329662210425" y="471.981589016789" width="12.944956851552323" height="3.6985591004435205" data-layer="top"/><rect class="pcb-pad" fill="rgb(200, 52, 52)" x="50.85529858809326" y="479.37964665356577" width="12.944956851552323" height="3.6985591004435205" data-layer="top"/><rect class="pcb-pad" fill="rgb(200, 52, 52)" x="107.81329662210425" y="479.37964665356577" width="12.944956851552323" height="3.6985591004435205" data-layer="top"/><rect class="pcb-pad" fill="rgb(200, 52, 52)" x="679.2417465263433" y="116.92179424599065" width="12.944956851552323" height="3.6985591004435205" data-layer="top"/><rect class="pcb-pad" fill="rgb(200, 52, 52)" x="736.1997445603542" y="116.92179424599065" width="12.944956851552323" height="3.6985591004435205" data-layer="top"/><rect class="pcb-pad" fill="rgb(200, 52, 52)" x="679.2417465263433" y="124.31985188276742" width="12.944956851552323" height="3.6985591004435205" data-layer="top"/><rect class="pcb-pad" fill="rgb(200, 52, 52)" x="736.1997445603542" y="124.31985188276742" width="12.944956851552323" height="3.6985591004435205" data-layer="top"/><rect class="pcb-pad" fill="rgb(200, 52, 52)" x="679.2417465263433" y="131.71321234009156" width="12.944956851552323" height="3.6985591004435205" data-layer="top"/><rect class="pcb-pad" fill="rgb(200, 52, 52)" x="736.1997445603542" y="131.71321234009156" width="12.944956851552323" height="3.6985591004435205" data-layer="top"/><rect class="pcb-pad" fill="rgb(200, 52, 52)" x="679.2417465263433" y="139.11126997687253" width="12.944956851552323" height="3.6985591004435205" data-layer="top"/><rect class="pcb-pad" fill="rgb(200, 52, 52)" x="736.1997445603542" y="139.11126997687253" width="12.944956851552323" height="3.6985591004435205" data-layer="top"/><rect class="pcb-pad" fill="rgb(200, 52, 52)" x="679.2417465263433" y="146.5093276136493" width="12.944956851552323" height="3.6985591004435205" data-layer="top"/><rect class="pcb-pad" fill="rgb(200, 52, 52)" x="736.1997445603542" y="146.5093276136493" width="12.944956851552323" height="3.6985591004435205" data-layer="top"/><rect class="pcb-pad" fill="rgb(200, 52, 52)" x="679.2417465263433" y="153.90738525042607" width="12.944956851552323" height="3.6985591004435205" data-layer="top"/><rect class="pcb-pad" fill="rgb(200, 52, 52)" x="736.1997445603542" y="153.90738525042607" width="12.944956851552323" height="3.6985591004435205" data-layer="top"/><rect class="pcb-pad" fill="rgb(200, 52, 52)" x="679.2417465263433" y="161.30544288720705" width="12.944956851552323" height="3.6985591004435205" data-layer="top"/><rect class="pcb-pad" fill="rgb(200, 52, 52)" x="736.1997445603542" y="161.30544288720705" width="12.944956851552323" height="3.6985591004435205" data-layer="top"/><rect class="pcb-pad" fill="rgb(200, 52, 52)" x="679.2417465263433" y="168.69880334453114" width="12.944956851552323" height="3.6985591004435205" data-layer="top"/><rect class="pcb-pad" fill="rgb(200, 52, 52)" x="736.1997445603542" y="168.69880334453114" width="12.944956851552323" height="3.6985591004435205" data-layer="top"/><rect class="pcb-pad" fill="rgb(200, 52, 52)" x="679.2417465263433" y="176.09686098130794" width="12.944956851552323" height="3.6985591004435205" data-layer="top"/><rect class="pcb-pad" fill="rgb(200, 52, 52)" x="736.1997445603542" y="176.09686098130794" width="12.944956851552323" height="3.6985591004435205" data-layer="top"/><rect class="pcb-pad" fill="rgb(200, 52, 52)" x="679.2417465263433" y="183.49491861808468" width="12.944956851552323" height="3.6985591004435205" data-layer="top"/><rect class="pcb-pad" fill="rgb(200, 52, 52)" x="736.1997445603542" y="183.49491861808468" width="12.944956851552323" height="3.6985591004435205" data-layer="top"/><rect class="pcb-pad" fill="rgb(200, 52, 52)" x="679.2417465263433" y="190.89297625486148" width="12.944956851552323" height="3.6985591004435205" data-layer="top"/><rect class="pcb-pad" fill="rgb(200, 52, 52)" x="736.1997445603542" y="190.89297625486148" width="12.944956851552323" height="3.6985591004435205" data-layer="top"/><rect class="pcb-pad" fill="rgb(200, 52, 52)" x="679.2417465263433" y="198.29103389163822" width="12.944956851552323" height="3.6985591004435205" data-layer="top"/><rect class="pcb-pad" fill="rgb(200, 52, 52)" x="736.1997445603541" y="198.29103389163822" width="12.944956851552323" height="3.6985591004435205" data-layer="top"/><rect class="pcb-pad" fill="rgb(200, 52, 52)" x="679.2417465263433" y="205.68439434896234" width="12.944956851552323" height="3.6985591004435205" data-layer="top"/><rect class="pcb-pad" fill="rgb(200, 52, 52)" x="736.1997445603541" y="205.68439434896234" width="12.944956851552323" height="3.6985591004435205" data-layer="top"/><rect class="pcb-pad" fill="rgb(200, 52, 52)" x="679.2417465263433" y="213.08245198574332" width="12.944956851552323" height="3.6985591004435205" data-layer="top"/><rect class="pcb-pad" fill="rgb(200, 52, 52)" x="736.1997445603541" y="213.08245198574332" width="12.944956851552323" height="3.6985591004435205" data-layer="top"/><rect class="pcb-pad" fill="rgb(200, 52, 52)" x="679.2417465263433" y="220.4805096225201" width="12.944956851552323" height="3.6985591004435205" data-layer="top"/><rect class="pcb-pad" fill="rgb(200, 52, 52)" x="736.1997445603541" y="220.4805096225201" width="12.944956851552323" height="3.6985591004435205" data-layer="top"/><rect class="pcb-pad" fill="rgb(200, 52, 52)" x="679.2417465263433" y="227.87856725929686" width="12.944956851552323" height="3.6985591004435205" data-layer="top"/><rect class="pcb-pad" fill="rgb(200, 52, 52)" x="736.1997445603541" y="227.87856725929686" width="12.944956851552323" height="3.6985591004435205" data-layer="top"/><rect class="pcb-pad" fill="rgb(200, 52, 52)" x="679.2417465263433" y="235.27662489607366" width="12.944956851552323" height="3.6985591004435205" data-layer="top"/><rect class="pcb-pad" fill="rgb(200, 52, 52)" x="736.1997445603541" y="235.27662489607366" width="12.944956851552323" height="3.6985591004435205" data-layer="top"/><rect class="pcb-pad" fill="rgb(200, 52, 52)" x="679.2417465263433" y="242.66998535340196" width="12.944956851552323" height="3.6985591004435205" data-layer="top"/><rect class="pcb-pad" fill="rgb(200, 52, 52)" x="736.1997445603541" y="242.66998535340196" width="12.944956851552323" height="3.6985591004435205" data-layer="top"/><rect class="pcb-pad" fill="rgb(200, 52, 52)" x="679.2417465263433" y="250.06804299017452" width="12.944956851552323" height="3.6985591004435205" data-layer="top"/><rect class="pcb-pad" fill="rgb(200, 52, 52)" x="736.1997445603541" y="250.06804299017452" width="12.944956851552323" height="3.6985591004435205" data-layer="top"/><rect class="pcb-pad" fill="rgb(200, 52, 52)" x="679.2417465263433" y="257.4661006269555" width="12.944956851552323" height="3.6985591004435205" data-layer="top"/><rect class="pcb-pad" fill="rgb(200, 52, 52)" x="736.1997445603541" y="257.4661006269555" width="12.944956851552323" height="3.6985591004435205" data-layer="top"/><rect class="pcb-pad" fill="rgb(200, 52, 52)" x="679.2417465263433" y="264.86415826373224" width="12.944956851552323" height="3.6985591004435205" data-layer="top"/><rect class="pcb-pad" fill="rgb(200, 52, 52)" x="736.1997445603541" y="264.86415826373224" width="12.944956851552323" height="3.6985591004435205" data-layer="top"/><rect class="pcb-pad" fill="rgb(200, 52, 52)" x="679.2417465263433" y="272.26221590050903" width="12.944956851552323" height="3.6985591004435205" data-layer="top"/><rect class="pcb-pad" fill="rgb(200, 52, 52)" x="736.1997445603541" y="272.26221590050903" width="12.944956851552323" height="3.6985591004435205" data-layer="top"/><rect class="pcb-pad" fill="rgb(200, 52, 52)" x="679.2417465263433" y="279.65557635783733" width="12.944956851552323" height="3.6985591004435205" data-layer="top"/><rect class="pcb-pad" fill="rgb(200, 52, 52)" x="736.1997445603541" y="279.65557635783733" width="12.944956851552323" height="3.6985591004435205" data-layer="top"/><rect class="pcb-pad" fill="rgb(200, 52, 52)" x="679.2417465263433" y="287.0536339946099" width="12.944956851552323" height="3.6985591004435205" data-layer="top"/><rect class="pcb-pad" fill="rgb(200, 52, 52)" x="736.1997445603541" y="287.0536339946099" width="12.944956851552323" height="3.6985591004435205" data-layer="top"/><rect class="pcb-pad" fill="rgb(200, 52, 52)" x="679.2417465263433" y="294.4516916313909" width="12.944956851552323" height="3.6985591004435205" data-layer="top"/><rect class="pcb-pad" fill="rgb(200, 52, 52)" x="736.1997445603541" y="294.4516916313909" width="12.944956851552323" height="3.6985591004435205" data-layer="top"/><rect class="pcb-pad" fill="rgb(200, 52, 52)" x="679.2417465263433" y="301.84974926816767" width="12.944956851552323" height="3.6985591004435205" data-layer="top"/><rect class="pcb-pad" fill="rgb(200, 52, 52)" x="736.1997445603541" y="301.84974926816767" width="12.944956851552323" height="3.6985591004435205" data-layer="top"/><rect class="pcb-pad" fill="rgb(200, 52, 52)" x="679.2417465263433" y="309.2478069049444" width="12.944956851552323" height="3.6985591004435205" data-layer="top"/><rect class="pcb-pad" fill="rgb(200, 52, 52)" x="736.1997445603541" y="309.2478069049444" width="12.944956851552323" height="3.6985591004435205" data-layer="top"/><rect class="pcb-pad" fill="rgb(200, 52, 52)" x="679.2417465263433" y="316.6411673622685" width="12.944956851552323" height="3.6985591004435205" data-layer="top"/><rect class="pcb-pad" fill="rgb(200, 52, 52)" x="736.1997445603541" y="316.6411673622685" width="12.944956851552323" height="3.6985591004435205" data-layer="top"/><rect class="pcb-pad" fill="rgb(200, 52, 52)" x="679.2417465263433" y="324.0392249990495" width="12.944956851552323" height="3.6985591004435205" data-layer="top"/><rect class="pcb-pad" fill="rgb(200, 52, 52)" x="736.1997445603541" y="324.0392249990495" width="12.944956851552323" height="3.6985591004435205" data-layer="top"/><rect class="pcb-pad" fill="rgb(200, 52, 52)" x="679.2417465263433" y="331.4372826358263" width="12.944956851552323" height="3.6985591004435205" data-layer="top"/><rect class="pcb-pad" fill="rgb(200, 52, 52)" x="736.1997445603541" y="331.4372826358263" width="12.944956851552323" height="3.6985591004435205" data-layer="top"/><rect class="pcb-pad" fill="rgb(200, 52, 52)" x="679.2417465263433" y="338.83534027260305" width="12.944956851552323" height="3.6985591004435205" data-layer="top"/><rect class="pcb-pad" fill="rgb(200, 52, 52)" x="736.1997445603541" y="338.83534027260305" width="12.944956851552323" height="3.6985591004435205" data-layer="top"/><rect class="pcb-pad" fill="rgb(200, 52, 52)" x="679.2417465263433" y="346.23339790937985" width="12.944956851552323" height="3.6985591004435205" data-layer="top"/><rect class="pcb-pad" fill="rgb(200, 52, 52)" x="736.1997445603541" y="346.23339790937985" width="12.944956851552323" height="3.6985591004435205" data-layer="top"/><rect class="pcb-pad" fill="rgb(200, 52, 52)" x="679.2417465263433" y="353.62675836670394" width="12.944956851552323" height="3.6985591004435205" data-layer="top"/><rect class="pcb-pad" fill="rgb(200, 52, 52)" x="736.1997445603541" y="353.62675836670394" width="12.944956851552323" height="3.6985591004435205" data-layer="top"/><rect class="pcb-pad" fill="rgb(200, 52, 52)" x="679.2417465263433" y="361.0248160034807" width="12.944956851552323" height="3.6985591004435205" data-layer="top"/><rect class="pcb-pad" fill="rgb(200, 52, 52)" x="736.1997445603541" y="361.0248160034807" width="12.944956851552323" height="3.6985591004435205" data-layer="top"/><rect class="pcb-pad" fill="rgb(200, 52, 52)" x="679.2417465263433" y="368.4228736402617" width="12.944956851552323" height="3.6985591004435205" data-layer="top"/><rect class="pcb-pad" fill="rgb(200, 52, 52)" x="736.1997445603541" y="368.4228736402617" width="12.944956851552323" height="3.6985591004435205" data-layer="top"/><rect class="pcb-pad" fill="rgb(200, 52, 52)" x="679.2417465263433" y="375.8209312770385" width="12.944956851552323" height="3.6985591004435205" data-layer="top"/><rect class="pcb-pad" fill="rgb(200, 52, 52)" x="736.1997445603541" y="375.8209312770385" width="12.944956851552323" height="3.6985591004435205" data-layer="top"/><rect class="pcb-pad" fill="rgb(200, 52, 52)" x="679.2417465263433" y="383.2189889138152" width="12.944956851552323" height="3.6985591004435205" data-layer="top"/><rect class="pcb-pad" fill="rgb(200, 52, 52)" x="736.1997445603541" y="383.2189889138152" width="12.944956851552323" height="3.6985591004435205" data-layer="top"/><rect class="pcb-pad" fill="rgb(200, 52, 52)" x="679.2417465263433" y="390.6123493711393" width="12.944956851552323" height="3.6985591004435205" data-layer="top"/><rect class="pcb-pad" fill="rgb(200, 52, 52)" x="736.1997445603541" y="390.6123493711393" width="12.944956851552323" height="3.6985591004435205" data-layer="top"/><rect class="pcb-pad" fill="rgb(200, 52, 52)" x="679.2417465263433" y="398.01040700792026" width="12.944956851552323" height="3.6985591004435205" data-layer="top"/><rect class="pcb-pad" fill="rgb(200, 52, 52)" x="736.1997445603541" y="398.01040700792026" width="12.944956851552323" height="3.6985591004435205" data-layer="top"/><rect class="pcb-pad" fill="rgb(200, 52, 52)" x="679.2417465263431" y="405.40846464469286" width="12.944956851552323" height="3.6985591004435205" data-layer="top"/><rect class="pcb-pad" fill="rgb(200, 52, 52)" x="736.1997445603541" y="405.40846464469286" width="12.944956851552323" height="3.6985591004435205" data-layer="top"/><rect class="pcb-pad" fill="rgb(200, 52, 52)" x="679.2417465263431" y="412.80652228147386" width="12.944956851552323" height="3.6985591004435205" data-layer="top"/><rect class="pcb-pad" fill="rgb(200, 52, 52)" x="736.1997445603541" y="412.80652228147386" width="12.944956851552323" height="3.6985591004435205" data-layer="top"/><rect class="pcb-pad" fill="rgb(200, 52, 52)" x="679.2417465263431" y="420.2045799182527" width="12.944956851552323" height="3.6985591004435205" data-layer="top"/><rect class="pcb-pad" fill="rgb(200, 52, 52)" x="736.1997445603541" y="420.2045799182527" width="12.944956851552323" height="3.6985591004435205" data-layer="top"/><rect class="pcb-pad" fill="rgb(200, 52, 52)" x="679.2417465263431" y="427.5979403755768" width="12.944956851552323" height="3.6985591004435205" data-layer="top"/><rect class="pcb-pad" fill="rgb(200, 52, 52)" x="736.1997445603541" y="427.5979403755768" width="12.944956851552323" height="3.6985591004435205" data-layer="top"/><rect class="pcb-pad" fill="rgb(200, 52, 52)" x="679.2417465263431" y="434.9959980123536" width="12.944956851552323" height="3.6985591004435205" data-layer="top"/><rect class="pcb-pad" fill="rgb(200, 52, 52)" x="736.1997445603541" y="434.9959980123536" width="12.944956851552323" height="3.6985591004435205" data-layer="top"/><rect class="pcb-pad" fill="rgb(200, 52, 52)" x="679.2417465263431" y="442.39405564913244" width="12.944956851552323" height="3.6985591004435205" data-layer="top"/><rect class="pcb-pad" fill="rgb(200, 52, 52)" x="736.1997445603541" y="442.39405564913244" width="12.944956851552323" height="3.6985591004435205" data-layer="top"/><rect class="pcb-pad" fill="rgb(200, 52, 52)" x="679.2417465263431" y="449.79211328590924" width="12.944956851552323" height="3.6985591004435205" data-layer="top"/><rect class="pcb-pad" fill="rgb(200, 52, 52)" x="736.1997445603541" y="449.79211328590924" width="12.944956851552323" height="3.6985591004435205" data-layer="top"/><rect class="pcb-pad" fill="rgb(200, 52, 52)" x="679.2417465263431" y="457.1901709226839" width="12.944956851552323" height="3.6985591004435205" data-layer="top"/><rect class="pcb-pad" fill="rgb(200, 52, 52)" x="736.1997445603541" y="457.1901709226839" width="12.944956851552323" height="3.6985591004435205" data-layer="top"/><rect class="pcb-pad" fill="rgb(200, 52, 52)" x="679.2417465263431" y="464.58353138001013" width="12.944956851552323" height="3.6985591004435205" data-layer="top"/><rect class="pcb-pad" fill="rgb(200, 52, 52)" x="736.1997445603541" y="464.58353138001013" width="12.944956851552323" height="3.6985591004435205" data-layer="top"/><rect class="pcb-pad" fill="rgb(200, 52, 52)" x="679.2417465263431" y="471.981589016789" width="12.944956851552323" height="3.6985591004435205" data-layer="top"/><rect class="pcb-pad" fill="rgb(200, 52, 52)" x="736.1997445603541" y="471.981589016789" width="12.944956851552323" height="3.6985591004435205" data-layer="top"/><rect class="pcb-pad" fill="rgb(200, 52, 52)" x="679.2417465263431" y="479.37964665356577" width="12.944956851552323" height="3.6985591004435205" data-layer="top"/><rect class="pcb-pad" fill="rgb(200, 52, 52)" x="736.1997445603541" y="479.37964665356577" width="12.944956851552323" height="3.6985591004435205" data-layer="top"/><path class="pcb-silkscreen pcb-silkscreen-top" d="M 113.54596928420142 112.64642150885297 L 113.54596928420142 91.0314108249402" fill="none" stroke="#f2eda1" stroke-width="1.8492832487882582" stroke-linecap="round" stroke-linejoin="round" data-pcb-component-id="pcb_component_0" data-pcb-silkscreen-path-id="pcb_silkscreen_path_0"/><path class="pcb-silkscreen pcb-silkscreen-top" d="M 113.54596928420142 508.9685891750597 L 113.54596928420142 487.3526390552577" fill="none" stroke="#f2eda1" stroke-width="1.8492832487882582" stroke-linecap="round" stroke-linejoin="round" data-pcb-component-id="pcb_component_0" data-pcb-silkscreen-path-id="pcb_silkscreen_path_1"/><path class="pcb-silkscreen pcb-silkscreen-top" d="M 58.067582777550456 508.9685891750597 L 113.54596928420142 508.9685891750597" fill="none" stroke="#f2eda1" stroke-width="1.8492832487882582" stroke-linecap="round" stroke-linejoin="round" data-pcb-component-id="pcb_component_0" data-pcb-silkscreen-path-id="pcb_silkscreen_path_2"/><path class="pcb-silkscreen pcb-silkscreen-top" d="M 58.067582777550456 487.3526390552577 L 58.067582777550456 508.9685891750597" fill="none" stroke="#f2eda1" stroke-width="1.8492832487882582" stroke-linecap="round" stroke-linejoin="round" data-pcb-component-id="pcb_component_0" data-pcb-silkscreen-path-id="pcb_silkscreen_path_3"/><path class="pcb-silkscreen pcb-silkscreen-top" d="M 58.067582777550456 91.0314108249402 L 58.067582777550456 112.64642150885297" fill="none" stroke="#f2eda1" stroke-width="1.8492832487882582" stroke-linecap="round" stroke-linejoin="round" data-pcb-component-id="pcb_component_0" data-pcb-silkscreen-path-id="pcb_silkscreen_path_4"/><path class="pcb-silkscreen pcb-silkscreen-top" d="M 113.54596928420142 91.0314108249402 L 58.067582777550456 91.0314108249402" fill="none" stroke="#f2eda1" stroke-width="1.8492832487882582" stroke-linecap="round" stroke-linejoin="round" data-pcb-component-id="pcb_component_0" data-pcb-silkscreen-path-id="pcb_silkscreen_path_5"/><path class="pcb-silkscreen pcb-silkscreen-top" d="M 741.9324172224515 112.64642150885297 L 741.9324172224515 91.0314108249402" fill="none" stroke="#f2eda1" stroke-width="1.8492832487882582" stroke-linecap="round" stroke-linejoin="round" data-pcb-component-id="pcb_component_1" data-pcb-silkscreen-path-id="pcb_silkscreen_path_6"/><path class="pcb-silkscreen pcb-silkscreen-top" d="M 741.9324172224515 508.9685891750597 L 741.9324172224515 487.3526390552577" fill="none" stroke="#f2eda1" stroke-width="1.8492832487882582" stroke-linecap="round" stroke-linejoin="round" data-pcb-component-id="pcb_component_1" data-pcb-silkscreen-path-id="pcb_silkscreen_path_7"/><path class="pcb-silkscreen pcb-silkscreen-top" d="M 686.4540307158004 508.9685891750597 L 741.9324172224515 508.9685891750597" fill="none" stroke="#f2eda1" stroke-width="1.8492832487882582" stroke-linecap="round" stroke-linejoin="round" data-pcb-component-id="pcb_component_1" data-pcb-silkscreen-path-id="pcb_silkscreen_path_8"/><path class="pcb-silkscreen pcb-silkscreen-top" d="M 686.4540307158004 487.3526390552577 L 686.4540307158004 508.9685891750597" fill="none" stroke="#f2eda1" stroke-width="1.8492832487882582" stroke-linecap="round" stroke-linejoin="round" data-pcb-component-id="pcb_component_1" data-pcb-silkscreen-path-id="pcb_silkscreen_path_9"/><path class="pcb-silkscreen pcb-silkscreen-top" d="M 686.4540307158005 91.0314108249402 L 686.4540307158005 112.64642150885297" fill="none" stroke="#f2eda1" stroke-width="1.8492832487882582" stroke-linecap="round" stroke-linejoin="round" data-pcb-component-id="pcb_component_1" data-pcb-silkscreen-path-id="pcb_silkscreen_path_10"/><path class="pcb-silkscreen pcb-silkscreen-top" d="M 741.9324172224515 91.0314108249402 L 686.4540307158005 91.0314108249402" fill="none" stroke="#f2eda1" stroke-width="1.8492832487882582" stroke-linecap="round" stroke-linejoin="round" data-pcb-component-id="pcb_component_1" data-pcb-silkscreen-path-id="pcb_silkscreen_path_11"/></svg>