<svg xmlns="http://www.w3.org/2000/svg" width="800" height="600" data-software-used-string="@tscircuit/core@0.0.741"><style></style><rect class="boundary" x="0" y="0" fill="#000" width="800" height="600"/><rect class="pcb-boundary" fill="none" stroke="#fff" stroke-width="0.3" x="20.481308706471168" y="68.56167449445203" width="759.0373825870578" height="462.8766510110959"/><rect class="pcb-pad" fill="rgb(200, 52, 52)" x="709.2677348420114" y="97.23596956108909" width="14.336887420697602" height="4.0962535487707425" data-layer="top"/><rect class="pcb-pad" fill="rgb(200, 52, 52)" x="772.3502475831801" y="97.23596956108909" width="14.336887420697602" height="4.0962535487707425" data-layer="top"/><rect class="pcb-pad" fill="rgb(200, 52, 52)" x="709.2677348420114" y="105.42951710911214" width="14.336887420697602" height="4.0962535487707425" data-layer="top"/><rect class="pcb-pad" fill="rgb(200, 52, 52)" x="772.3502475831801" y="105.42951710911214" width="14.336887420697602" height="4.0962535487707425" data-layer="top"/><rect class="pcb-pad" fill="rgb(200, 52, 52)" x="709.2677348420114" y="113.61786240472293" width="14.336887420697602" height="4.0962535487707425" data-layer="top"/><rect class="pcb-pad" fill="rgb(200, 52, 52)" x="772.3502475831801" y="113.61786240472293" width="14.336887420697602" height="4.0962535487707425" data-layer="top"/><rect class="pcb-pad" fill="rgb(200, 52, 52)" x="709.2677348420114" y="121.81140995275064" width="14.336887420697602" height="4.0962535487707425" data-layer="top"/><rect class="pcb-pad" fill="rgb(200, 52, 52)" x="772.3502475831801" y="121.81140995275064" width="14.336887420697602" height="4.0962535487707425" data-layer="top"/><rect class="pcb-pad" fill="rgb(200, 52, 52)" x="709.2677348420114" y="130.00495750077368" width="14.336887420697602" height="4.0962535487707425" data-layer="top"/><rect class="pcb-pad" fill="rgb(200, 52, 52)" x="772.3502475831801" y="130.00495750077368" width="14.336887420697602" height="4.0962535487707425" data-layer="top"/><rect class="pcb-pad" fill="rgb(200, 52, 52)" x="709.2677348420114" y="138.19850504879673" width="14.336887420697602" height="4.0962535487707425" data-layer="top"/><rect class="pcb-pad" fill="rgb(200, 52, 52)" x="772.3502475831801" y="138.19850504879673" width="14.336887420697602" height="4.0962535487707425" data-layer="top"/><rect class="pcb-pad" fill="rgb(200, 52, 52)" x="709.2677348420114" y="146.39205259682444" width="14.336887420697602" height="4.0962535487707425" data-layer="top"/><rect class="pcb-pad" fill="rgb(200, 52, 52)" x="772.3502475831801" y="146.39205259682444" width="14.336887420697602" height="4.0962535487707425" data-layer="top"/><rect class="pcb-pad" fill="rgb(200, 52, 52)" x="709.2677348420114" y="154.58039789243523" width="14.336887420697602" height="4.0962535487707425" data-layer="top"/><rect class="pcb-pad" fill="rgb(200, 52, 52)" x="772.3502475831801" y="154.58039789243523" width="14.336887420697602" height="4.0962535487707425" data-layer="top"/><rect class="pcb-pad" fill="rgb(200, 52, 52)" x="709.2677348420114" y="162.77394544045828" width="14.336887420697602" height="4.0962535487707425" data-layer="top"/><rect class="pcb-pad" fill="rgb(200, 52, 52)" x="772.3502475831801" y="162.77394544045828" width="14.336887420697602" height="4.0962535487707425" data-layer="top"/><rect class="pcb-pad" fill="rgb(200, 52, 52)" x="709.2677348420114" y="170.96749298848133" width="14.336887420697602" height="4.0962535487707425" data-layer="top"/><rect class="pcb-pad" fill="rgb(200, 52, 52)" x="772.3502475831801" y="170.96749298848133" width="14.336887420697602" height="4.0962535487707425" data-layer="top"/><rect class="pcb-pad" fill="rgb(200, 52, 52)" x="709.2677348420114" y="179.16104053650437" width="14.336887420697602" height="4.0962535487707425" data-layer="top"/><rect class="pcb-pad" fill="rgb(200, 52, 52)" x="772.3502475831801" y="179.16104053650437" width="14.336887420697602" height="4.0962535487707425" data-layer="top"/><rect class="pcb-pad" fill="rgb(200, 52, 52)" x="709.2677348420114" y="187.35458808452745" width="14.336887420697602" height="4.0962535487707425" data-layer="top"/><rect class="pcb-pad" fill="rgb(200, 52, 52)" x="772.3502475831801" y="187.35458808452745" width="14.336887420697602" height="4.0962535487707425" data-layer="top"/><rect class="pcb-pad" fill="rgb(200, 52, 52)" x="709.2677348420114" y="195.5429333801382" width="14.336887420697602" height="4.0962535487707425" data-layer="top"/><rect class="pcb-pad" fill="rgb(200, 52, 52)" x="772.3502475831801" y="195.5429333801382" width="14.336887420697602" height="4.0962535487707425" data-layer="top"/><rect class="pcb-pad" fill="rgb(200, 52, 52)" x="709.2677348420114" y="203.73648092816592" width="14.336887420697602" height="4.0962535487707425" data-layer="top"/><rect class="pcb-pad" fill="rgb(200, 52, 52)" x="772.3502475831801" y="203.73648092816592" width="14.336887420697602" height="4.0962535487707425" data-layer="top"/><rect class="pcb-pad" fill="rgb(200, 52, 52)" x="709.2677348420114" y="211.93002847618897" width="14.336887420697602" height="4.0962535487707425" data-layer="top"/><rect class="pcb-pad" fill="rgb(200, 52, 52)" x="772.3502475831801" y="211.93002847618897" width="14.336887420697602" height="4.0962535487707425" data-layer="top"/><rect class="pcb-pad" fill="rgb(200, 52, 52)" x="709.2677348420114" y="220.123576024212" width="14.336887420697602" height="4.0962535487707425" data-layer="top"/><rect class="pcb-pad" fill="rgb(200, 52, 52)" x="772.3502475831801" y="220.123576024212" width="14.336887420697602" height="4.0962535487707425" data-layer="top"/><rect class="pcb-pad" fill="rgb(200, 52, 52)" x="709.2677348420114" y="228.31712357223506" width="14.336887420697602" height="4.0962535487707425" data-layer="top"/><rect class="pcb-pad" fill="rgb(200, 52, 52)" x="772.3502475831801" y="228.31712357223506" width="14.336887420697602" height="4.0962535487707425" data-layer="top"/><rect class="pcb-pad" fill="rgb(200, 52, 52)" x="709.2677348420114" y="236.50546886785048" width="14.336887420697602" height="4.0962535487707425" data-layer="top"/><rect class="pcb-pad" fill="rgb(200, 52, 52)" x="772.3502475831801" y="236.50546886785048" width="14.336887420697602" height="4.0962535487707425" data-layer="top"/><rect class="pcb-pad" fill="rgb(200, 52, 52)" x="709.2677348420114" y="244.6990164158689" width="14.336887420697602" height="4.0962535487707425" data-layer="top"/><rect class="pcb-pad" fill="rgb(200, 52, 52)" x="772.3502475831801" y="244.6990164158689" width="14.336887420697602" height="4.0962535487707425" data-layer="top"/><rect class="pcb-pad" fill="rgb(200, 52, 52)" x="709.2677348420114" y="252.8925639638966" width="14.336887420697602" height="4.0962535487707425" data-layer="top"/><rect class="pcb-pad" fill="rgb(200, 52, 52)" x="772.3502475831801" y="252.8925639638966" width="14.336887420697602" height="4.0962535487707425" data-layer="top"/><rect class="pcb-pad" fill="rgb(200, 52, 52)" x="709.2677348420114" y="261.0861115119197" width="14.336887420697602" height="4.0962535487707425" data-layer="top"/><rect class="pcb-pad" fill="rgb(200, 52, 52)" x="772.3502475831801" y="261.0861115119197" width="14.336887420697602" height="4.0962535487707425" data-layer="top"/><rect class="pcb-pad" fill="rgb(200, 52, 52)" x="709.2677348420114" y="269.27965905994273" width="14.336887420697602" height="4.0962535487707425" data-layer="top"/><rect class="pcb-pad" fill="rgb(200, 52, 52)" x="772.3502475831801" y="269.27965905994273" width="14.336887420697602" height="4.0962535487707425" data-layer="top"/><rect class="pcb-pad" fill="rgb(200, 52, 52)" x="709.2677348420114" y="277.46800435555815" width="14.336887420697602" height="4.0962535487707425" data-layer="top"/><rect class="pcb-pad" fill="rgb(200, 52, 52)" x="772.3502475831801" y="277.46800435555815" width="14.336887420697602" height="4.0962535487707425" data-layer="top"/><rect class="pcb-pad" fill="rgb(200, 52, 52)" x="709.2677348420114" y="285.66155190357654" width="14.336887420697602" height="4.0962535487707425" data-layer="top"/><rect class="pcb-pad" fill="rgb(200, 52, 52)" x="772.3502475831801" y="285.66155190357654" width="14.336887420697602" height="4.0962535487707425" data-layer="top"/><rect class="pcb-pad" fill="rgb(200, 52, 52)" x="709.2677348420114" y="293.85509945160425" width="14.336887420697602" height="4.0962535487707425" data-layer="top"/><rect class="pcb-pad" fill="rgb(200, 52, 52)" x="772.3502475831801" y="293.85509945160425" width="14.336887420697602" height="4.0962535487707425" data-layer="top"/><rect class="pcb-pad" fill="rgb(200, 52, 52)" x="709.2677348420114" y="302.0486469996273" width="14.336887420697602" height="4.0962535487707425" data-layer="top"/><rect class="pcb-pad" fill="rgb(200, 52, 52)" x="772.3502475831801" y="302.0486469996273" width="14.336887420697602" height="4.0962535487707425" data-layer="top"/><rect class="pcb-pad" fill="rgb(200, 52, 52)" x="709.2677348420114" y="310.24219454765034" width="14.336887420697602" height="4.0962535487707425" data-layer="top"/><rect class="pcb-pad" fill="rgb(200, 52, 52)" x="772.3502475831801" y="310.24219454765034" width="14.336887420697602" height="4.0962535487707425" data-layer="top"/><rect class="pcb-pad" fill="rgb(200, 52, 52)" x="709.2677348420114" y="318.4305398432611" width="14.336887420697602" height="4.0962535487707425" data-layer="top"/><rect class="pcb-pad" fill="rgb(200, 52, 52)" x="772.3502475831801" y="318.4305398432611" width="14.336887420697602" height="4.0962535487707425" data-layer="top"/><rect class="pcb-pad" fill="rgb(200, 52, 52)" x="709.2677348420114" y="326.6240873912888" width="14.336887420697602" height="4.0962535487707425" data-layer="top"/><rect class="pcb-pad" fill="rgb(200, 52, 52)" x="772.3502475831801" y="326.6240873912888" width="14.336887420697602" height="4.0962535487707425" data-layer="top"/><rect class="pcb-pad" fill="rgb(200, 52, 52)" x="709.2677348420114" y="334.81763493931186" width="14.336887420697602" height="4.0962535487707425" data-layer="top"/><rect class="pcb-pad" fill="rgb(200, 52, 52)" x="772.3502475831801" y="334.81763493931186" width="14.336887420697602" height="4.0962535487707425" data-layer="top"/><rect class="pcb-pad" fill="rgb(200, 52, 52)" x="709.2677348420114" y="343.0111824873349" width="14.336887420697602" height="4.0962535487707425" data-layer="top"/><rect class="pcb-pad" fill="rgb(200, 52, 52)" x="772.3502475831801" y="343.0111824873349" width="14.336887420697602" height="4.0962535487707425" data-layer="top"/><rect class="pcb-pad" fill="rgb(200, 52, 52)" x="709.2677348420114" y="351.20473003535795" width="14.336887420697602" height="4.0962535487707425" data-layer="top"/><rect class="pcb-pad" fill="rgb(200, 52, 52)" x="772.3502475831801" y="351.20473003535795" width="14.336887420697602" height="4.0962535487707425" data-layer="top"/><rect class="pcb-pad" fill="rgb(200, 52, 52)" x="709.2677348420114" y="359.39307533096877" width="14.336887420697602" height="4.0962535487707425" data-layer="top"/><rect class="pcb-pad" fill="rgb(200, 52, 52)" x="772.3502475831801" y="359.39307533096877" width="14.336887420697602" height="4.0962535487707425" data-layer="top"/><rect class="pcb-pad" fill="rgb(200, 52, 52)" x="709.2677348420114" y="367.5866228789918" width="14.336887420697602" height="4.0962535487707425" data-layer="top"/><rect class="pcb-pad" fill="rgb(200, 52, 52)" x="772.3502475831801" y="367.5866228789918" width="14.336887420697602" height="4.0962535487707425" data-layer="top"/><rect class="pcb-pad" fill="rgb(200, 52, 52)" x="709.2677348420114" y="375.7801704270195" width="14.336887420697602" height="4.0962535487707425" data-layer="top"/><rect class="pcb-pad" fill="rgb(200, 52, 52)" x="772.3502475831801" y="375.7801704270195" width="14.336887420697602" height="4.0962535487707425" data-layer="top"/><rect class="pcb-pad" fill="rgb(200, 52, 52)" x="709.2677348420114" y="383.9737179750426" width="14.336887420697602" height="4.0962535487707425" data-layer="top"/><rect class="pcb-pad" fill="rgb(200, 52, 52)" x="772.3502475831801" y="383.9737179750426" width="14.336887420697602" height="4.0962535487707425" data-layer="top"/><rect class="pcb-pad" fill="rgb(200, 52, 52)" x="709.2677348420114" y="392.1672655230656" width="14.336887420697602" height="4.0962535487707425" data-layer="top"/><rect class="pcb-pad" fill="rgb(200, 52, 52)" x="772.3502475831801" y="392.1672655230656" width="14.336887420697602" height="4.0962535487707425" data-layer="top"/><rect class="pcb-pad" fill="rgb(200, 52, 52)" x="709.2677348420114" y="400.3556108186764" width="14.336887420697602" height="4.0962535487707425" data-layer="top"/><rect class="pcb-pad" fill="rgb(200, 52, 52)" x="772.3502475831801" y="400.3556108186764" width="14.336887420697602" height="4.0962535487707425" data-layer="top"/><rect class="pcb-pad" fill="rgb(200, 52, 52)" x="709.2677348420114" y="408.5491583667041" width="14.336887420697602" height="4.0962535487707425" data-layer="top"/><rect class="pcb-pad" fill="rgb(200, 52, 52)" x="772.3502475831801" y="408.5491583667041" width="14.336887420697602" height="4.0962535487707425" data-layer="top"/><rect class="pcb-pad" fill="rgb(200, 52, 52)" x="709.2677348420114" y="416.74270591472253" width="14.336887420697602" height="4.0962535487707425" data-layer="top"/><rect class="pcb-pad" fill="rgb(200, 52, 52)" x="772.3502475831801" y="416.74270591472253" width="14.336887420697602" height="4.0962535487707425" data-layer="top"/><rect class="pcb-pad" fill="rgb(200, 52, 52)" x="709.2677348420114" y="424.93625346275024" width="14.336887420697602" height="4.0962535487707425" data-layer="top"/><rect class="pcb-pad" fill="rgb(200, 52, 52)" x="772.3502475831801" y="424.93625346275024" width="14.336887420697602" height="4.0962535487707425" data-layer="top"/><rect class="pcb-pad" fill="rgb(200, 52, 52)" x="709.2677348420114" y="433.12980101077557" width="14.336887420697602" height="4.0962535487707425" data-layer="top"/><rect class="pcb-pad" fill="rgb(200, 52, 52)" x="772.3502475831801" y="433.12980101077557" width="14.336887420697602" height="4.0962535487707425" data-layer="top"/><rect class="pcb-pad" fill="rgb(200, 52, 52)" x="709.2677348420114" y="441.3181463063864" width="14.336887420697602" height="4.0962535487707425" data-layer="top"/><rect class="pcb-pad" fill="rgb(200, 52, 52)" x="772.3502475831801" y="441.3181463063864" width="14.336887420697602" height="4.0962535487707425" data-layer="top"/><rect class="pcb-pad" fill="rgb(200, 52, 52)" x="709.2677348420114" y="449.51169385440943" width="14.336887420697602" height="4.0962535487707425" data-layer="top"/><rect class="pcb-pad" fill="rgb(200, 52, 52)" x="772.3502475831801" y="449.51169385440943" width="14.336887420697602" height="4.0962535487707425" data-layer="top"/><rect class="pcb-pad" fill="rgb(200, 52, 52)" x="709.2677348420114" y="457.7052414024348" width="14.336887420697602" height="4.0962535487707425" data-layer="top"/><rect class="pcb-pad" fill="rgb(200, 52, 52)" x="772.3502475831801" y="457.7052414024348" width="14.336887420697602" height="4.0962535487707425" data-layer="top"/><rect class="pcb-pad" fill="rgb(200, 52, 52)" x="709.2677348420114" y="465.89878895045786" width="14.336887420697602" height="4.0962535487707425" data-layer="top"/><rect class="pcb-pad" fill="rgb(200, 52, 52)" x="772.3502475831801" y="465.89878895045786" width="14.336887420697602" height="4.0962535487707425" data-layer="top"/><rect class="pcb-pad" fill="rgb(200, 52, 52)" x="709.2677348420114" y="474.0923364984786" width="14.336887420697602" height="4.0962535487707425" data-layer="top"/><rect class="pcb-pad" fill="rgb(200, 52, 52)" x="772.3502475831801" y="474.0923364984786" width="14.336887420697602" height="4.0962535487707425" data-layer="top"/><rect class="pcb-pad" fill="rgb(200, 52, 52)" x="709.2677348420114" y="482.28068179409166" width="14.336887420697602" height="4.0962535487707425" data-layer="top"/><rect class="pcb-pad" fill="rgb(200, 52, 52)" x="772.3502475831801" y="482.28068179409166" width="14.336887420697602" height="4.0962535487707425" data-layer="top"/><rect class="pcb-pad" fill="rgb(200, 52, 52)" x="709.2677348420114" y="490.4742293421171" width="14.336887420697602" height="4.0962535487707425" data-layer="top"/><rect class="pcb-pad" fill="rgb(200, 52, 52)" x="772.3502475831801" y="490.4742293421171" width="14.336887420697602" height="4.0962535487707425" data-layer="top"/><rect class="pcb-pad" fill="rgb(200, 52, 52)" x="709.2677348420114" y="498.66777689014015" width="14.336887420697602" height="4.0962535487707425" data-layer="top"/><rect class="pcb-pad" fill="rgb(200, 52, 52)" x="772.3502475831801" y="498.66777689014015" width="14.336887420697602" height="4.0962535487707425" data-layer="top"/><rect class="pcb-pad" fill="rgb(200, 52, 52)" x="13.312864996122368" y="97.23596956108909" width="14.336887420697602" height="4.0962535487707425" data-layer="top"/><rect class="pcb-pad" fill="rgb(200, 52, 52)" x="76.39537773729127" y="97.23596956108909" width="14.336887420697602" height="4.0962535487707425" data-layer="top"/><rect class="pcb-pad" fill="rgb(200, 52, 52)" x="13.312864996122368" y="105.42951710911214" width="14.336887420697602" height="4.0962535487707425" data-layer="top"/><rect class="pcb-pad" fill="rgb(200, 52, 52)" x="76.39537773729127" y="105.42951710911214" width="14.336887420697602" height="4.0962535487707425" data-layer="top"/><rect class="pcb-pad" fill="rgb(200, 52, 52)" x="13.312864996122368" y="113.61786240472293" width="14.336887420697602" height="4.0962535487707425" data-layer="top"/><rect class="pcb-pad" fill="rgb(200, 52, 52)" x="76.39537773729127" y="113.61786240472293" width="14.336887420697602" height="4.0962535487707425" data-layer="top"/><rect class="pcb-pad" fill="rgb(200, 52, 52)" x="13.312864996122368" y="121.81140995275064" width="14.336887420697602" height="4.0962535487707425" data-layer="top"/><rect class="pcb-pad" fill="rgb(200, 52, 52)" x="76.39537773729127" y="121.81140995275064" width="14.336887420697602" height="4.0962535487707425" data-layer="top"/><rect class="pcb-pad" fill="rgb(200, 52, 52)" x="13.312864996122368" y="130.00495750077368" width="14.336887420697602" height="4.0962535487707425" data-layer="top"/><rect class="pcb-pad" fill="rgb(200, 52, 52)" x="76.39537773729127" y="130.00495750077368" width="14.336887420697602" height="4.0962535487707425" data-layer="top"/><rect class="pcb-pad" fill="rgb(200, 52, 52)" x="13.312864996122368" y="138.19850504879673" width="14.336887420697602" height="4.0962535487707425" data-layer="top"/><rect class="pcb-pad" fill="rgb(200, 52, 52)" x="76.39537773729127" y="138.19850504879673" width="14.336887420697602" height="4.0962535487707425" data-layer="top"/><rect class="pcb-pad" fill="rgb(200, 52, 52)" x="13.312864996122368" y="146.39205259682444" width="14.336887420697602" height="4.0962535487707425" data-layer="top"/><rect class="pcb-pad" fill="rgb(200, 52, 52)" x="76.39537773729127" y="146.39205259682444" width="14.336887420697602" height="4.0962535487707425" data-layer="top"/><rect class="pcb-pad" fill="rgb(200, 52, 52)" x="13.312864996122368" y="154.58039789243523" width="14.336887420697602" height="4.0962535487707425" data-layer="top"/><rect class="pcb-pad" fill="rgb(200, 52, 52)" x="76.39537773729127" y="154.58039789243523" width="14.336887420697602" height="4.0962535487707425" data-layer="top"/><rect class="pcb-pad" fill="rgb(200, 52, 52)" x="13.312864996122368" y="162.77394544045828" width="14.336887420697602" height="4.0962535487707425" data-layer="top"/><rect class="pcb-pad" fill="rgb(200, 52, 52)" x="76.39537773729127" y="162.77394544045828" width="14.336887420697602" height="4.0962535487707425" data-layer="top"/><rect class="pcb-pad" fill="rgb(200, 52, 52)" x="13.312864996122368" y="170.96749298848133" width="14.336887420697602" height="4.0962535487707425" data-layer="top"/><rect class="pcb-pad" fill="rgb(200, 52, 52)" x="76.39537773729127" y="170.96749298848133" width="14.336887420697602" height="4.0962535487707425" data-layer="top"/><rect class="pcb-pad" fill="rgb(200, 52, 52)" x="13.312864996122368" y="179.16104053650437" width="14.336887420697602" height="4.0962535487707425" data-layer="top"/><rect class="pcb-pad" fill="rgb(200, 52, 52)" x="76.39537773729127" y="179.16104053650437" width="14.336887420697602" height="4.0962535487707425" data-layer="top"/><rect class="pcb-pad" fill="rgb(200, 52, 52)" x="13.312864996122368" y="187.35458808452745" width="14.336887420697602" height="4.0962535487707425" data-layer="top"/><rect class="pcb-pad" fill="rgb(200, 52, 52)" x="76.39537773729127" y="187.35458808452745" width="14.336887420697602" height="4.0962535487707425" data-layer="top"/><rect class="pcb-pad" fill="rgb(200, 52, 52)" x="13.312864996122368" y="195.5429333801382" width="14.336887420697602" height="4.0962535487707425" data-layer="top"/><rect class="pcb-pad" fill="rgb(200, 52, 52)" x="76.39537773729127" y="195.5429333801382" width="14.336887420697602" height="4.0962535487707425" data-layer="top"/><rect class="pcb-pad" fill="rgb(200, 52, 52)" x="13.312864996122368" y="203.73648092816592" width="14.336887420697602" height="4.0962535487707425" data-layer="top"/><rect class="pcb-pad" fill="rgb(200, 52, 52)" x="76.39537773729127" y="203.73648092816592" width="14.336887420697602" height="4.0962535487707425" data-layer="top"/><rect class="pcb-pad" fill="rgb(200, 52, 52)" x="13.312864996122368" y="211.93002847618897" width="14.336887420697602" height="4.0962535487707425" data-layer="top"/><rect class="pcb-pad" fill="rgb(200, 52, 52)" x="76.39537773729127" y="211.93002847618897" width="14.336887420697602" height="4.0962535487707425" data-layer="top"/><rect class="pcb-pad" fill="rgb(200, 52, 52)" x="13.312864996122368" y="220.123576024212" width="14.336887420697602" height="4.0962535487707425" data-layer="top"/><rect class="pcb-pad" fill="rgb(200, 52, 52)" x="76.39537773729127" y="220.123576024212" width="14.336887420697602" height="4.0962535487707425" data-layer="top"/><rect class="pcb-pad" fill="rgb(200, 52, 52)" x="13.312864996122368" y="228.31712357223506" width="14.336887420697602" height="4.0962535487707425" data-layer="top"/><rect class="pcb-pad" fill="rgb(200, 52, 52)" x="76.39537773729127" y="228.31712357223506" width="14.336887420697602" height="4.0962535487707425" data-layer="top"/><rect class="pcb-pad" fill="rgb(200, 52, 52)" x="13.312864996122368" y="236.50546886785048" width="14.336887420697602" height="4.0962535487707425" data-layer="top"/><rect class="pcb-pad" fill="rgb(200, 52, 52)" x="76.39537773729127" y="236.50546886785048" width="14.336887420697602" height="4.0962535487707425" data-layer="top"/><rect class="pcb-pad" fill="rgb(200, 52, 52)" x="13.312864996122368" y="244.6990164158689" width="14.336887420697602" height="4.0962535487707425" data-layer="top"/><rect class="pcb-pad" fill="rgb(200, 52, 52)" x="76.39537773729127" y="244.6990164158689" width="14.336887420697602" height="4.0962535487707425" data-layer="top"/><rect class="pcb-pad" fill="rgb(200, 52, 52)" x="13.312864996122368" y="252.8925639638966" width="14.336887420697602" height="4.0962535487707425" data-layer="top"/><rect class="pcb-pad" fill="rgb(200, 52, 52)" x="76.39537773729127" y="252.8925639638966" width="14.336887420697602" height="4.0962535487707425" data-layer="top"/><rect class="pcb-pad" fill="rgb(200, 52, 52)" x="13.312864996122368" y="261.0861115119197" width="14.336887420697602" height="4.0962535487707425" data-layer="top"/><rect class="pcb-pad" fill="rgb(200, 52, 52)" x="76.39537773729127" y="261.0861115119197" width="14.336887420697602" height="4.0962535487707425" data-layer="top"/><rect class="pcb-pad" fill="rgb(200, 52, 52)" x="13.312864996122368" y="269.27965905994273" width="14.336887420697602" height="4.0962535487707425" data-layer="top"/><rect class="pcb-pad" fill="rgb(200, 52, 52)" x="76.39537773729127" y="269.27965905994273" width="14.336887420697602" height="4.0962535487707425" data-layer="top"/><rect class="pcb-pad" fill="rgb(200, 52, 52)" x="13.312864996122368" y="277.46800435555815" width="14.336887420697602" height="4.0962535487707425" data-layer="top"/><rect class="pcb-pad" fill="rgb(200, 52, 52)" x="76.39537773729127" y="277.46800435555815" width="14.336887420697602" height="4.0962535487707425" data-layer="top"/><rect class="pcb-pad" fill="rgb(200, 52, 52)" x="13.312864996122368" y="285.66155190357654" width="14.336887420697602" height="4.0962535487707425" data-layer="top"/><rect class="pcb-pad" fill="rgb(200, 52, 52)" x="76.39537773729127" y="285.66155190357654" width="14.336887420697602" height="4.0962535487707425" data-layer="top"/><rect class="pcb-pad" fill="rgb(200, 52, 52)" x="13.312864996122368" y="293.85509945160425" width="14.336887420697602" height="4.0962535487707425" data-layer="top"/><rect class="pcb-pad" fill="rgb(200, 52, 52)" x="76.39537773729127" y="293.85509945160425" width="14.336887420697602" height="4.0962535487707425" data-layer="top"/><rect class="pcb-pad" fill="rgb(200, 52, 52)" x="13.312864996122368" y="302.0486469996273" width="14.336887420697602" height="4.0962535487707425" data-layer="top"/><rect class="pcb-pad" fill="rgb(200, 52, 52)" x="76.39537773729127" y="302.0486469996273" width="14.336887420697602" height="4.0962535487707425" data-layer="top"/><rect class="pcb-pad" fill="rgb(200, 52, 52)" x="13.312864996122368" y="310.24219454765034" width="14.336887420697602" height="4.0962535487707425" data-layer="top"/><rect class="pcb-pad" fill="rgb(200, 52, 52)" x="76.39537773729127" y="310.24219454765034" width="14.336887420697602" height="4.0962535487707425" data-layer="top"/><rect class="pcb-pad" fill="rgb(200, 52, 52)" x="13.312864996122368" y="318.4305398432611" width="14.336887420697602" height="4.0962535487707425" data-layer="top"/><rect class="pcb-pad" fill="rgb(200, 52, 52)" x="76.39537773729127" y="318.4305398432611" width="14.336887420697602" height="4.0962535487707425" data-layer="top"/><rect class="pcb-pad" fill="rgb(200, 52, 52)" x="13.312864996122368" y="326.6240873912888" width="14.336887420697602" height="4.0962535487707425" data-layer="top"/><rect class="pcb-pad" fill="rgb(200, 52, 52)" x="76.39537773729127" y="326.6240873912888" width="14.336887420697602" height="4.0962535487707425" data-layer="top"/><rect class="pcb-pad" fill="rgb(200, 52, 52)" x="13.312864996122368" y="334.81763493931186" width="14.336887420697602" height="4.0962535487707425" data-layer="top"/><rect class="pcb-pad" fill="rgb(200, 52, 52)" x="76.39537773729127" y="334.81763493931186" width="14.336887420697602" height="4.0962535487707425" data-layer="top"/><rect class="pcb-pad" fill="rgb(200, 52, 52)" x="13.312864996122368" y="343.0111824873349" width="14.336887420697602" height="4.0962535487707425" data-layer="top"/><rect class="pcb-pad" fill="rgb(200, 52, 52)" x="76.39537773729127" y="343.0111824873349" width="14.336887420697602" height="4.0962535487707425" data-layer="top"/><rect class="pcb-pad" fill="rgb(200, 52, 52)" x="13.312864996122368" y="351.20473003535795" width="14.336887420697602" height="4.0962535487707425" data-layer="top"/><rect class="pcb-pad" fill="rgb(200, 52, 52)" x="76.39537773729127" y="351.20473003535795" width="14.336887420697602" height="4.0962535487707425" data-layer="top"/><rect class="pcb-pad" fill="rgb(200, 52, 52)" x="13.312864996122368" y="359.39307533096877" width="14.336887420697602" height="4.0962535487707425" data-layer="top"/><rect class="pcb-pad" fill="rgb(200, 52, 52)" x="76.39537773729127" y="359.39307533096877" width="14.336887420697602" height="4.0962535487707425" data-layer="top"/><rect class="pcb-pad" fill="rgb(200, 52, 52)" x="13.312864996122368" y="367.5866228789918" width="14.336887420697602" height="4.0962535487707425" data-layer="top"/><rect class="pcb-pad" fill="rgb(200, 52, 52)" x="76.39537773729127" y="367.5866228789918" width="14.336887420697602" height="4.0962535487707425" data-layer="top"/><rect class="pcb-pad" fill="rgb(200, 52, 52)" x="13.312864996122368" y="375.7801704270195" width="14.336887420697602" height="4.0962535487707425" data-layer="top"/><rect class="pcb-pad" fill="rgb(200, 52, 52)" x="76.39537773729127" y="375.7801704270195" width="14.336887420697602" height="4.0962535487707425" data-layer="top"/><rect class="pcb-pad" fill="rgb(200, 52, 52)" x="13.312864996122368" y="383.9737179750426" width="14.336887420697602" height="4.0962535487707425" data-layer="top"/><rect class="pcb-pad" fill="rgb(200, 52, 52)" x="76.39537773729127" y="383.9737179750426" width="14.336887420697602" height="4.0962535487707425" data-layer="top"/><rect class="pcb-pad" fill="rgb(200, 52, 52)" x="13.312864996122368" y="392.1672655230656" width="14.336887420697602" height="4.0962535487707425" data-layer="top"/><rect class="pcb-pad" fill="rgb(200, 52, 52)" x="76.39537773729127" y="392.1672655230656" width="14.336887420697602" height="4.0962535487707425" data-layer="top"/><rect class="pcb-pad" fill="rgb(200, 52, 52)" x="13.312864996122368" y="400.3556108186764" width="14.336887420697602" height="4.0962535487707425" data-layer="top"/><rect class="pcb-pad" fill="rgb(200, 52, 52)" x="76.39537773729127" y="400.3556108186764" width="14.336887420697602" height="4.0962535487707425" data-layer="top"/><rect class="pcb-pad" fill="rgb(200, 52, 52)" x="13.312864996122368" y="408.5491583667041" width="14.336887420697602" height="4.0962535487707425" data-layer="top"/><rect class="pcb-pad" fill="rgb(200, 52, 52)" x="76.39537773729127" y="408.5491583667041" width="14.336887420697602" height="4.0962535487707425" data-layer="top"/><rect class="pcb-pad" fill="rgb(200, 52, 52)" x="13.312864996122368" y="416.74270591472253" width="14.336887420697602" height="4.0962535487707425" data-layer="top"/><rect class="pcb-pad" fill="rgb(200, 52, 52)" x="76.39537773729127" y="416.74270591472253" width="14.336887420697602" height="4.0962535487707425" data-layer="top"/><rect class="pcb-pad" fill="rgb(200, 52, 52)" x="13.312864996122368" y="424.93625346275024" width="14.336887420697602" height="4.0962535487707425" data-layer="top"/><rect class="pcb-pad" fill="rgb(200, 52, 52)" x="76.39537773729127" y="424.93625346275024" width="14.336887420697602" height="4.0962535487707425" data-layer="top"/><rect class="pcb-pad" fill="rgb(200, 52, 52)" x="13.312864996122368" y="433.12980101077557" width="14.336887420697602" height="4.0962535487707425" data-layer="top"/><rect class="pcb-pad" fill="rgb(200, 52, 52)" x="76.39537773729127" y="433.12980101077557" width="14.336887420697602" height="4.0962535487707425" data-layer="top"/><rect class="pcb-pad" fill="rgb(200, 52, 52)" x="13.312864996122368" y="441.3181463063864" width="14.336887420697602" height="4.0962535487707425" data-layer="top"/><rect class="pcb-pad" fill="rgb(200, 52, 52)" x="76.39537773729127" y="441.3181463063864" width="14.336887420697602" height="4.0962535487707425" data-layer="top"/><rect class="pcb-pad" fill="rgb(200, 52, 52)" x="13.312864996122368" y="449.51169385440943" width="14.336887420697602" height="4.0962535487707425" data-layer="top"/><rect class="pcb-pad" fill="rgb(200, 52, 52)" x="76.39537773729127" y="449.51169385440943" width="14.336887420697602" height="4.0962535487707425" data-layer="top"/><rect class="pcb-pad" fill="rgb(200, 52, 52)" x="13.312864996122368" y="457.7052414024348" width="14.336887420697602" height="4.0962535487707425" data-layer="top"/><rect class="pcb-pad" fill="rgb(200, 52, 52)" x="76.39537773729127" y="457.7052414024348" width="14.336887420697602" height="4.0962535487707425" data-layer="top"/><rect class="pcb-pad" fill="rgb(200, 52, 52)" x="13.312864996122368" y="465.89878895045786" width="14.336887420697602" height="4.0962535487707425" data-layer="top"/><rect class="pcb-pad" fill="rgb(200, 52, 52)" x="76.39537773729127" y="465.89878895045786" width="14.336887420697602" height="4.0962535487707425" data-layer="top"/><rect class="pcb-pad" fill="rgb(200, 52, 52)" x="13.312864996122368" y="474.0923364984786" width="14.336887420697602" height="4.0962535487707425" data-layer="top"/><rect class="pcb-pad" fill="rgb(200, 52, 52)" x="76.39537773729127" y="474.0923364984786" width="14.336887420697602" height="4.0962535487707425" data-layer="top"/><rect class="pcb-pad" fill="rgb(200, 52, 52)" x="13.312864996122368" y="482.28068179409166" width="14.336887420697602" height="4.0962535487707425" data-layer="top"/><rect class="pcb-pad" fill="rgb(200, 52, 52)" x="76.39537773729127" y="482.28068179409166" width="14.336887420697602" height="4.0962535487707425" data-layer="top"/><rect class="pcb-pad" fill="rgb(200, 52, 52)" x="13.312864996122368" y="490.4742293421171" width="14.336887420697602" height="4.0962535487707425" data-layer="top"/><rect class="pcb-pad" fill="rgb(200, 52, 52)" x="76.39537773729127" y="490.4742293421171" width="14.336887420697602" height="4.0962535487707425" data-layer="top"/><rect class="pcb-pad" fill="rgb(200, 52, 52)" x="13.312864996122368" y="498.66777689014015" width="14.336887420697602" height="4.0962535487707425" data-layer="top"/><rect class="pcb-pad" fill="rgb(200, 52, 52)" x="76.39537773729127" y="498.66777689014015" width="14.336887420697602" height="4.0962535487707425" data-layer="top"/><path class="pcb-silkscreen pcb-silkscreen-top" d="M 778.6993365387253 92.50087941619512 L 778.6993365387253 68.56167449445203" fill="none" stroke="#f2eda1" stroke-width="2.048130870647113" stroke-linecap="round" stroke-linejoin="round" data-pcb-component-id="pcb_component_0" data-pcb-silkscreen-path-id="pcb_silkscreen_path_0"/><path class="pcb-silkscreen pcb-silkscreen-top" d="M 778.6993365387252 531.4383255055479 L 778.6993365387252 507.49808013332375" fill="none" stroke="#f2eda1" stroke-width="2.048130870647113" stroke-linecap="round" stroke-linejoin="round" data-pcb-component-id="pcb_component_0" data-pcb-silkscreen-path-id="pcb_silkscreen_path_1"/><path class="pcb-silkscreen pcb-silkscreen-top" d="M 717.2555333071662 531.4383255055479 L 778.6993365387252 531.4383255055479" fill="none" stroke="#f2eda1" stroke-width="2.048130870647113" stroke-linecap="round" stroke-linejoin="round" data-pcb-component-id="pcb_component_0" data-pcb-silkscreen-path-id="pcb_silkscreen_path_2"/><path class="pcb-silkscreen pcb-silkscreen-top" d="M 717.2555333071662 507.49808013332375 L 717.2555333071662 531.4383255055479" fill="none" stroke="#f2eda1" stroke-width="2.048130870647113" stroke-linecap="round" stroke-linejoin="round" data-pcb-component-id="pcb_component_0" data-pcb-silkscreen-path-id="pcb_silkscreen_path_3"/><path class="pcb-silkscreen pcb-silkscreen-top" d="M 717.2555333071662 68.56167449445203 L 717.2555333071662 92.50087941619512" fill="none" stroke="#f2eda1" stroke-width="2.048130870647113" stroke-linecap="round" stroke-linejoin="round" data-pcb-component-id="pcb_component_0" data-pcb-silkscreen-path-id="pcb_silkscreen_path_4"/><path class="pcb-silkscreen pcb-silkscreen-top" d="M 778.6993365387253 68.56167449445203 L 717.2555333071662 68.56167449445203" fill="none" stroke="#f2eda1" stroke-width="2.048130870647113" stroke-linecap="round" stroke-linejoin="round" data-pcb-component-id="pcb_component_0" data-pcb-silkscreen-path-id="pcb_silkscreen_path_5"/><path class="pcb-silkscreen pcb-silkscreen-top" d="M 82.74446669283634 92.50087941619512 L 82.74446669283634 68.56167449445203" fill="none" stroke="#f2eda1" stroke-width="2.048130870647113" stroke-linecap="round" stroke-linejoin="round" data-pcb-component-id="pcb_component_1" data-pcb-silkscreen-path-id="pcb_silkscreen_path_6"/><path class="pcb-silkscreen pcb-silkscreen-top" d="M 82.74446669283634 531.4383255055479 L 82.74446669283634 507.49808013332375" fill="none" stroke="#f2eda1" stroke-width="2.048130870647113" stroke-linecap="round" stroke-linejoin="round" data-pcb-component-id="pcb_component_1" data-pcb-silkscreen-path-id="pcb_silkscreen_path_7"/><path class="pcb-silkscreen pcb-silkscreen-top" d="M 21.30066346127728 531.4383255055479 L 82.74446669283634 531.4383255055479" fill="none" stroke="#f2eda1" stroke-width="2.048130870647113" stroke-linecap="round" stroke-linejoin="round" data-pcb-component-id="pcb_component_1" data-pcb-silkscreen-path-id="pcb_silkscreen_path_8"/><path class="pcb-silkscreen pcb-silkscreen-top" d="M 21.30066346127728 507.49808013332375 L 21.30066346127728 531.4383255055479" fill="none" stroke="#f2eda1" stroke-width="2.048130870647113" stroke-linecap="round" stroke-linejoin="round" data-pcb-component-id="pcb_component_1" data-pcb-silkscreen-path-id="pcb_silkscreen_path_9"/><path class="pcb-silkscreen pcb-silkscreen-top" d="M 21.30066346127728 68.56167449445203 L 21.30066346127728 92.50087941619512" fill="none" stroke="#f2eda1" stroke-width="2.048130870647113" stroke-linecap="round" stroke-linejoin="round" data-pcb-component-id="pcb_component_1" data-pcb-silkscreen-path-id="pcb_silkscreen_path_10"/><path class="pcb-silkscreen pcb-silkscreen-top" d="M 82.74446669283634 68.56167449445203 L 21.30066346127728 68.56167449445203" fill="none" stroke="#f2eda1" stroke-width="2.048130870647113" stroke-linecap="round" stroke-linejoin="round" data-pcb-component-id="pcb_component_1" data-pcb-silkscreen-path-id="pcb_silkscreen_path_11"/></svg>