<svg xmlns="http://www.w3.org/2000/svg" width="800" height="600" data-software-used-string="@tscircuit/core@0.0.792"><style></style><rect class="boundary" x="0" y="0" fill="#000" width="800" height="600" data-type="pcb_background" data-pcb-layer="global"/><rect class="pcb-boundary" fill="none" stroke="#fff" stroke-width="0.3" x="169.09090909090907" y="25.97402597402595" width="461.8181818181819" height="548.0519480519481" data-type="pcb_boundary" data-pcb-layer="global"/><path class="pcb-board" d="M 400 25.97402597402595 L 584.1558441558442 25.97402597402595 L 593.2769501202346 26.87237650062815 L 602.0475370975887 29.53290497349832 L 610.1305563489684 33.85336877546541 L 617.2153819775529 39.66773490556403 L 623.0297481076515 46.7525605341485 L 627.3502119096186 54.83557978552827 L 630.0107403824887 63.60616676288231 L 630.909090909091 72.72727272727272 L 630.909090909091 527.2727272727273 L 630.0107403824887 536.3938332371176 L 627.3502119096186 545.1644202144718 L 623.0297481076515 553.2474394658515 L 617.2153819775529 560.332265094436 L 610.1305563489684 566.1466312245345 L 602.0475370975887 570.4670950265017 L 593.2769501202346 573.1276234993718 L 584.1558441558442 574.025974025974 L 215.84415584415584 574.025974025974 L 206.72304987976543 573.1276234993718 L 197.95246290241138 570.4670950265017 L 189.86944365103156 566.1466312245345 L 182.78461802244712 560.332265094436 L 176.97025189234853 553.2474394658515 L 172.64978809038138 545.1644202144718 L 169.9892596175113 536.3938332371176 L 169.09090909090907 527.2727272727273 L 169.09090909090907 72.72727272727272 L 169.9892596175113 63.60616676288231 L 172.64978809038138 54.83557978552827 L 176.97025189234853 46.7525605341485 L 182.78461802244712 39.667734905563975 L 189.86944365103156 33.85336877546541 L 197.95246290241138 29.53290497349832 L 206.72304987976543 26.87237650062815 L 215.84415584415584 25.97402597402595 L 400 25.97402597402595 Z" fill="none" stroke="rgba(255, 255, 255, 0.5)" stroke-width="2.5974025974025974" data-type="pcb_board" data-pcb-layer="board"/><rect class="pcb-pad" fill="rgb(200, 52, 52)" x="146.75324675324677" y="76.10389610389609" width="77.92207792207792" height="51.94805194805195" data-type="pcb_smtpad" data-pcb-layer="top"/><rect class="pcb-pad" fill="rgb(200, 52, 52)" x="146.75324675324677" y="142.07792207792207" width="77.92207792207792" height="51.94805194805195" data-type="pcb_smtpad" data-pcb-layer="top"/><rect class="pcb-pad" fill="rgb(200, 52, 52)" x="146.75324675324677" y="208.05194805194805" width="77.92207792207792" height="51.94805194805195" data-type="pcb_smtpad" data-pcb-layer="top"/><rect class="pcb-pad" fill="rgb(200, 52, 52)" x="146.75324675324677" y="274.02597402597405" width="77.92207792207792" height="51.94805194805195" data-type="pcb_smtpad" data-pcb-layer="top"/><rect class="pcb-pad" fill="rgb(200, 52, 52)" x="146.75324675324677" y="340" width="77.92207792207792" height="51.94805194805195" data-type="pcb_smtpad" data-pcb-layer="top"/><rect class="pcb-pad" fill="rgb(200, 52, 52)" x="146.75324675324677" y="405.97402597402595" width="77.92207792207792" height="51.94805194805195" data-type="pcb_smtpad" data-pcb-layer="top"/><rect class="pcb-pad" fill="rgb(200, 52, 52)" x="146.75324675324677" y="471.948051948052" width="77.92207792207792" height="51.94805194805195" data-type="pcb_smtpad" data-pcb-layer="top"/><rect class="pcb-pad" fill="rgb(200, 52, 52)" x="575.3246753246752" y="76.10389610389609" width="77.92207792207792" height="51.94805194805195" data-type="pcb_smtpad" data-pcb-layer="top"/><rect class="pcb-pad" fill="rgb(200, 52, 52)" x="575.3246753246752" y="142.07792207792207" width="77.92207792207792" height="51.94805194805195" data-type="pcb_smtpad" data-pcb-layer="top"/><rect class="pcb-pad" fill="rgb(200, 52, 52)" x="575.3246753246752" y="208.05194805194805" width="77.92207792207792" height="51.94805194805195" data-type="pcb_smtpad" data-pcb-layer="top"/><rect class="pcb-pad" fill="rgb(200, 52, 52)" x="575.3246753246752" y="274.02597402597405" width="77.92207792207792" height="51.94805194805195" data-type="pcb_smtpad" data-pcb-layer="top"/><rect class="pcb-pad" fill="rgb(200, 52, 52)" x="575.3246753246752" y="340" width="77.92207792207792" height="51.94805194805195" data-type="pcb_smtpad" data-pcb-layer="top"/><rect class="pcb-pad" fill="rgb(200, 52, 52)" x="575.3246753246752" y="405.97402597402595" width="77.92207792207792" height="51.94805194805195" data-type="pcb_smtpad" data-pcb-layer="top"/><rect class="pcb-pad" fill="rgb(200, 52, 52)" x="575.3246753246752" y="471.948051948052" width="77.92207792207792" height="51.94805194805195" data-type="pcb_smtpad" data-pcb-layer="top"/></svg>