<svg xmlns="http://www.w3.org/2000/svg" width="800" height="600" data-software-used-string="@tscircuit/core@0.0.741"><style></style><rect class="boundary" x="0" y="0" fill="#000" width="800" height="600"/><rect class="pcb-boundary" fill="none" stroke="#fff" stroke-width="0.3" x="169.09090909090907" y="25.97402597402595" width="461.8181818181819" height="548.0519480519481"/><path class="pcb-board" d="M 400 25.97402597402595 L 584.1558441558442 25.97402597402595 L 593.2769501202346 26.87237650062815 L 602.0475370975887 29.53290497349832 L 610.1305563489684 33.85336877546541 L 617.2153819775529 39.66773490556403 L 623.0297481076515 46.7525605341485 L 627.3502119096186 54.83557978552827 L 630.0107403824887 63.60616676288231 L 630.909090909091 72.72727272727272 L 630.909090909091 527.2727272727273 L 630.0107403824887 536.3938332371176 L 627.3502119096186 545.1644202144718 L 623.0297481076515 553.2474394658515 L 617.2153819775529 560.332265094436 L 610.1305563489684 566.1466312245345 L 602.0475370975887 570.4670950265017 L 593.2769501202346 573.1276234993718 L 584.1558441558442 574.025974025974 L 215.84415584415584 574.025974025974 L 206.72304987976543 573.1276234993718 L 197.95246290241138 570.4670950265017 L 189.86944365103156 566.1466312245345 L 182.78461802244712 560.332265094436 L 176.97025189234853 553.2474394658515 L 172.64978809038138 545.1644202144718 L 169.9892596175113 536.3938332371176 L 169.09090909090907 527.2727272727273 L 169.09090909090907 72.72727272727272 L 169.9892596175113 63.60616676288231 L 172.64978809038138 54.83557978552827 L 176.97025189234853 46.7525605341485 L 182.78461802244712 39.667734905563975 L 189.86944365103156 33.85336877546541 L 197.95246290241138 29.53290497349832 L 206.72304987976543 26.87237650062815 L 215.84415584415584 25.97402597402595 L 400 25.97402597402595 Z" fill="none" stroke="rgba(255, 255, 255, 0.5)" stroke-width="2.5974025974025974"/><circle class="pcb-pad" fill="rgb(200, 52, 52)" cx="363.7402597402597" cy="80.72727272727272" r="14.844155844155845" data-layer="top"/><circle class="pcb-pad" fill="rgb(200, 52, 52)" cx="429.7142857142857" cy="80.72727272727272" r="14.844155844155845" data-layer="top"/><circle class="pcb-pad" fill="rgb(200, 52, 52)" cx="363.7402597402597" cy="146.7012987012987" r="14.844155844155845" data-layer="top"/><circle class="pcb-pad" fill="rgb(200, 52, 52)" cx="429.7142857142857" cy="146.7012987012987" r="14.844155844155845" data-layer="top"/><rect class="pcb-pad" fill="rgb(200, 52, 52)" x="419.79220779220776" y="494.38961038961037" width="26.38961038961039" height="52.77922077922078" data-layer="top"/><rect class="pcb-pad" fill="rgb(200, 52, 52)" x="353.8181818181818" y="494.38961038961037" width="26.38961038961039" height="52.77922077922078" data-layer="top"/><g><rect class="pcb-hole-outer-pad" fill="rgb(200, 52, 52)" x="146.75324675324677" y="76.10389610389609" width="77.92207792207792" height="51.94805194805195"/><circle class="pcb-hole-inner" fill="#FF26E2" cx="202.07792207792207" cy="102.07792207792207" r="11.03896103896104"/></g><g><rect class="pcb-hole-outer-pad" fill="rgb(200, 52, 52)" x="146.75324675324677" y="142.07792207792207" width="77.92207792207792" height="51.94805194805195"/><circle class="pcb-hole-inner" fill="#FF26E2" cx="202.07792207792207" cy="168.05194805194805" r="11.03896103896104"/></g><g><rect class="pcb-hole-outer-pad" fill="rgb(200, 52, 52)" x="146.75324675324677" y="208.05194805194805" width="77.92207792207792" height="51.94805194805195"/><circle class="pcb-hole-inner" fill="#FF26E2" cx="202.07792207792207" cy="234.02597402597402" r="11.03896103896104"/></g><g><rect class="pcb-hole-outer-pad" fill="rgb(200, 52, 52)" x="146.75324675324677" y="274.02597402597405" width="77.92207792207792" height="51.94805194805195"/><circle class="pcb-hole-inner" fill="#FF26E2" cx="202.07792207792207" cy="300" r="11.03896103896104"/></g><g><rect class="pcb-hole-outer-pad" fill="rgb(200, 52, 52)" x="146.75324675324677" y="340" width="77.92207792207792" height="51.94805194805195"/><circle class="pcb-hole-inner" fill="#FF26E2" cx="202.07792207792207" cy="365.97402597402595" r="11.03896103896104"/></g><g><rect class="pcb-hole-outer-pad" fill="rgb(200, 52, 52)" x="146.75324675324677" y="405.97402597402595" width="77.92207792207792" height="51.94805194805195"/><circle class="pcb-hole-inner" fill="#FF26E2" cx="202.07792207792207" cy="431.9480519480519" r="11.03896103896104"/></g><g><rect class="pcb-hole-outer-pad" fill="rgb(200, 52, 52)" x="146.75324675324677" y="471.948051948052" width="77.92207792207792" height="51.94805194805195"/><circle class="pcb-hole-inner" fill="#FF26E2" cx="202.07792207792207" cy="497.92207792207796" r="11.03896103896104"/></g><g><rect class="pcb-hole-outer-pad" fill="rgb(200, 52, 52)" x="575.3246753246752" y="76.10389610389609" width="77.92207792207792" height="51.94805194805195"/><circle class="pcb-hole-inner" fill="#FF26E2" cx="597.922077922078" cy="102.07792207792207" r="11.03896103896104"/></g><g><rect class="pcb-hole-outer-pad" fill="rgb(200, 52, 52)" x="575.3246753246752" y="142.07792207792207" width="77.92207792207792" height="51.94805194805195"/><circle class="pcb-hole-inner" fill="#FF26E2" cx="597.922077922078" cy="168.05194805194805" r="11.03896103896104"/></g><g><rect class="pcb-hole-outer-pad" fill="rgb(200, 52, 52)" x="575.3246753246752" y="208.05194805194805" width="77.92207792207792" height="51.94805194805195"/><circle class="pcb-hole-inner" fill="#FF26E2" cx="597.922077922078" cy="234.02597402597402" r="11.03896103896104"/></g><g><rect class="pcb-hole-outer-pad" fill="rgb(200, 52, 52)" x="575.3246753246752" y="274.02597402597405" width="77.92207792207792" height="51.94805194805195"/><circle class="pcb-hole-inner" fill="#FF26E2" cx="597.922077922078" cy="300" r="11.03896103896104"/></g><g><rect class="pcb-hole-outer-pad" fill="rgb(200, 52, 52)" x="575.3246753246752" y="340" width="77.92207792207792" height="51.94805194805195"/><circle class="pcb-hole-inner" fill="#FF26E2" cx="597.922077922078" cy="365.97402597402595" r="11.03896103896104"/></g><g><rect class="pcb-hole-outer-pad" fill="rgb(200, 52, 52)" x="575.3246753246752" y="405.97402597402595" width="77.92207792207792" height="51.94805194805195"/><circle class="pcb-hole-inner" fill="#FF26E2" cx="597.922077922078" cy="431.9480519480519" r="11.03896103896104"/></g><g><rect class="pcb-hole-outer-pad" fill="rgb(200, 52, 52)" x="575.3246753246752" y="471.948051948052" width="77.92207792207792" height="51.94805194805195"/><circle class="pcb-hole-inner" fill="#FF26E2" cx="597.922077922078" cy="497.92207792207796" r="11.03896103896104"/></g><circle class="pcb-hole" cx="169.09090909090907" cy="102.07792207792207" r="9.09090909090909" fill="#FF26E2"/><circle class="pcb-hole" cx="169.09090909090907" cy="168.05194805194805" r="9.09090909090909" fill="#FF26E2"/><circle class="pcb-hole" cx="169.09090909090907" cy="234.02597402597402" r="9.09090909090909" fill="#FF26E2"/><circle class="pcb-hole" cx="169.09090909090907" cy="300" r="9.09090909090909" fill="#FF26E2"/><circle class="pcb-hole" cx="169.09090909090907" cy="365.97402597402595" r="9.09090909090909" fill="#FF26E2"/><circle class="pcb-hole" cx="169.09090909090907" cy="431.9480519480519" r="9.09090909090909" fill="#FF26E2"/><circle class="pcb-hole" cx="169.09090909090907" cy="497.92207792207796" r="9.09090909090909" fill="#FF26E2"/><circle class="pcb-hole" cx="630.909090909091" cy="102.07792207792207" r="9.09090909090909" fill="#FF26E2"/><circle class="pcb-hole" cx="630.909090909091" cy="168.05194805194805" r="9.09090909090909" fill="#FF26E2"/><circle class="pcb-hole" cx="630.909090909091" cy="234.02597402597402" r="9.09090909090909" fill="#FF26E2"/><circle class="pcb-hole" cx="630.909090909091" cy="300" r="9.09090909090909" fill="#FF26E2"/><circle class="pcb-hole" cx="630.909090909091" cy="365.97402597402595" r="9.09090909090909" fill="#FF26E2"/><circle class="pcb-hole" cx="630.909090909091" cy="431.9480519480519" r="9.09090909090909" fill="#FF26E2"/><circle class="pcb-hole" cx="630.909090909091" cy="497.92207792207796" r="9.09090909090909" fill="#FF26E2"/></svg>