<svg xmlns="http://www.w3.org/2000/svg" width="800" height="600" data-software-used-string="@tscircuit/core@0.0.705"><style></style><rect class="boundary" x="0" y="0" fill="#000" width="800" height="600"/><rect class="pcb-boundary" fill="none" stroke="#fff" stroke-width="0.3" x="229.85074626865674" y="8.955223880597032" width="340.29850746268653" height="582.0895522388059"/><path class="pcb-board" d="M 400 8.955223880597032 L 561.1940298507462 8.955223880597032 L 562.9411073613385 9.127295996388966 L 564.6210456629709 9.636899708854173 L 566.1692856688322 10.464451233111504 L 567.5263293837601 11.578148228180225 L 568.6400263788287 12.935191943108066 L 569.4675779030861 14.483431948969383 L 569.9771816155513 16.163370250601872 L 570.1492537313433 17.910447761194064 L 570.1492537313433 550.7462686567164 L 570.0632176734473 551.6198074120125 L 569.8084158172147 552.4597765628288 L 569.394640055086 553.2338965657593 L 568.8377915575517 553.9124184232234 L 568.1592697000877 554.4692669207577 L 567.3851496971571 554.8830426828863 L 566.5451805463408 555.137844539119 L 565.6716417910447 555.2238805970148 L 494.02985074626866 555.2238805970148 L 493.15631199097254 555.3099166549109 L 492.31634284015627 555.5647185111435 L 491.54222283722567 555.9784942732722 L 490.86370097976175 556.5353427708064 L 490.3068524822274 557.2138646282704 L 489.8930767200987 557.987984631201 L 489.6382748638661 558.8279537820173 L 489.55223880597015 559.7014925373135 L 489.55223880597015 591.044776119403 L 429.3731343283582 591.044776119403 L 429.3731343283582 564.1791044776119 L 429.2698910391556 563.1308579876452 L 428.96412879823527 562.1228950257661 L 428.46759787672164 561.1939510422699 L 427.79937967894983 560.3797248325104 L 426.9851534548182 559.7115066522509 L 426.0562094606427 559.214975750717 L 425.0482464921872 558.9092135314759 L 424 558.8059702648189 L 422.9517535078128 558.9092135314759 L 421.9437905393573 559.214975750717 L 421.0148465451818 559.7115066522509 L 420.20062032105017 560.3797248325104 L 419.53240212327836 561.1939510422699 L 419.03587120176473 562.1228950257661 L 418.7301089608444 563.1308579876452 L 418.6268656716418 564.1791044776119 L 418.6268656716418 591.044776119403 L 310.44776119402985 591.044776119403 L 310.44776119402985 559.7014925373135 L 310.3617251361339 558.8279537820173 L 310.1069232799013 557.987984631201 L 309.6931475177726 557.2138646282704 L 309.13629902023825 556.5353427708064 L 308.45777716277433 555.9784942732722 L 307.68365715984373 555.5647185111435 L 306.84368800902746 555.3099166549109 L 305.97014925373134 555.2238805970148 L 234.32835820895525 555.2238805970148 L 233.45481945365916 555.137844539119 L 232.61485030284288 554.8830426828863 L 231.84073029991225 554.4692669207577 L 231.1622084424483 553.9124184232234 L 230.60535994491397 553.2338965657593 L 230.1915841827853 552.4597765628288 L 229.9367823265527 551.6198074120125 L 229.85074626865674 550.7462686567164 L 229.85074626865674 17.910447761194064 L 230.02281838444867 16.163370250601872 L 230.53242209691388 14.483431948969383 L 231.35997362117126 12.935191943108066 L 232.4736706162399 11.578148228180225 L 233.83071433116777 10.464451233111504 L 235.37895433702906 9.636899708854173 L 237.05889263866155 9.127295996388966 L 238.80597014925374 8.955223880597032 Z" fill="none" stroke="rgba(255, 255, 255, 0.5)" stroke-width="0.8955223880597014"/><rect class="pcb-pad" fill="rgb(77, 127, 196)" x="479.02985074626866" y="568.6567164179104" width="3.134328358208955" height="17.462686567164177" data-layer="bottom"/><rect class="pcb-pad" fill="rgb(77, 127, 196)" x="474.55223880597015" y="568.6567164179104" width="3.134328358208955" height="17.462686567164177" data-layer="bottom"/><rect class="pcb-pad" fill="rgb(77, 127, 196)" x="470.0746268656717" y="568.6567164179104" width="3.134328358208955" height="17.462686567164177" data-layer="bottom"/><rect class="pcb-pad" fill="rgb(77, 127, 196)" x="465.5970149253732" y="568.6567164179104" width="3.134328358208955" height="17.462686567164177" data-layer="bottom"/><rect class="pcb-pad" fill="rgb(77, 127, 196)" x="461.11940298507466" y="568.6567164179104" width="3.134328358208955" height="17.462686567164177" data-layer="bottom"/><rect class="pcb-pad" fill="rgb(77, 127, 196)" x="456.64179104477614" y="568.6567164179104" width="3.134328358208955" height="17.462686567164177" data-layer="bottom"/><rect class="pcb-pad" fill="rgb(77, 127, 196)" x="452.1641791044776" y="568.6567164179104" width="3.134328358208955" height="17.462686567164177" data-layer="bottom"/><rect class="pcb-pad" fill="rgb(77, 127, 196)" x="447.6865671641791" y="568.6567164179104" width="3.134328358208955" height="17.462686567164177" data-layer="bottom"/><rect class="pcb-pad" fill="rgb(77, 127, 196)" x="443.2089552238806" y="568.6567164179104" width="3.134328358208955" height="17.462686567164177" data-layer="bottom"/><rect class="pcb-pad" fill="rgb(77, 127, 196)" x="438.73134328358213" y="568.6567164179104" width="3.134328358208955" height="17.462686567164177" data-layer="bottom"/><rect class="pcb-pad" fill="rgb(77, 127, 196)" x="434.2537313432836" y="568.6567164179104" width="3.134328358208955" height="17.462686567164177" data-layer="bottom"/><rect class="pcb-pad" fill="rgb(77, 127, 196)" x="411.8656716417911" y="568.6567164179104" width="3.134328358208955" height="17.462686567164177" data-layer="bottom"/><rect class="pcb-pad" fill="rgb(77, 127, 196)" x="407.3880597014926" y="568.6567164179104" width="3.134328358208955" height="17.462686567164177" data-layer="bottom"/><rect class="pcb-pad" fill="rgb(77, 127, 196)" x="402.91044776119406" y="568.6567164179104" width="3.134328358208955" height="17.462686567164177" data-layer="bottom"/><rect class="pcb-pad" fill="rgb(77, 127, 196)" x="398.43283582089555" y="568.6567164179104" width="3.134328358208955" height="17.462686567164177" data-layer="bottom"/><rect class="pcb-pad" fill="rgb(77, 127, 196)" x="393.95522388059703" y="568.6567164179104" width="3.134328358208955" height="17.462686567164177" data-layer="bottom"/><rect class="pcb-pad" fill="rgb(77, 127, 196)" x="389.4776119402985" y="568.6567164179104" width="3.134328358208955" height="17.462686567164177" data-layer="bottom"/><rect class="pcb-pad" fill="rgb(77, 127, 196)" x="385" y="568.6567164179104" width="3.134328358208955" height="17.462686567164177" data-layer="bottom"/><rect class="pcb-pad" fill="rgb(77, 127, 196)" x="380.52238805970154" y="568.6567164179104" width="3.134328358208955" height="17.462686567164177" data-layer="bottom"/><rect class="pcb-pad" fill="rgb(77, 127, 196)" x="376.044776119403" y="568.6567164179104" width="3.134328358208955" height="17.462686567164177" data-layer="bottom"/><rect class="pcb-pad" fill="rgb(77, 127, 196)" x="371.5671641791045" y="568.6567164179104" width="3.134328358208955" height="17.462686567164177" data-layer="bottom"/><rect class="pcb-pad" fill="rgb(77, 127, 196)" x="367.089552238806" y="568.6567164179104" width="3.134328358208955" height="17.462686567164177" data-layer="bottom"/><rect class="pcb-pad" fill="rgb(77, 127, 196)" x="362.6119402985075" y="568.6567164179104" width="3.134328358208955" height="17.462686567164177" data-layer="bottom"/><rect class="pcb-pad" fill="rgb(77, 127, 196)" x="358.13432835820896" y="568.6567164179104" width="3.134328358208955" height="17.462686567164177" data-layer="bottom"/><rect class="pcb-pad" fill="rgb(77, 127, 196)" x="353.6567164179105" y="568.6567164179104" width="3.134328358208955" height="17.462686567164177" data-layer="bottom"/><rect class="pcb-pad" fill="rgb(77, 127, 196)" x="349.179104477612" y="568.6567164179104" width="3.134328358208955" height="17.462686567164177" data-layer="bottom"/><rect class="pcb-pad" fill="rgb(77, 127, 196)" x="344.70149253731347" y="568.6567164179104" width="3.134328358208955" height="17.462686567164177" data-layer="bottom"/><rect class="pcb-pad" fill="rgb(77, 127, 196)" x="340.22388059701495" y="568.6567164179104" width="3.134328358208955" height="17.462686567164177" data-layer="bottom"/><rect class="pcb-pad" fill="rgb(77, 127, 196)" x="335.74626865671644" y="568.6567164179104" width="3.134328358208955" height="17.462686567164177" data-layer="bottom"/><rect class="pcb-pad" fill="rgb(77, 127, 196)" x="331.2686567164179" y="568.6567164179104" width="3.134328358208955" height="17.462686567164177" data-layer="bottom"/><rect class="pcb-pad" fill="rgb(77, 127, 196)" x="326.7910447761194" y="568.6567164179104" width="3.134328358208955" height="17.462686567164177" data-layer="bottom"/><rect class="pcb-pad" fill="rgb(77, 127, 196)" x="322.31343283582095" y="568.6567164179104" width="3.134328358208955" height="17.462686567164177" data-layer="bottom"/><rect class="pcb-pad" fill="rgb(77, 127, 196)" x="317.83582089552243" y="568.6567164179104" width="3.134328358208955" height="17.462686567164177" data-layer="bottom"/><rect class="pcb-pad" fill="rgb(200, 52, 52)" x="481.2686567164179" y="573.1343283582089" width="3.134328358208955" height="12.98507462686567" data-layer="top"/><rect class="pcb-pad" fill="rgb(200, 52, 52)" x="476.7910447761194" y="573.1343283582089" width="3.134328358208955" height="12.98507462686567" data-layer="top"/><rect class="pcb-pad" fill="rgb(200, 52, 52)" x="472.3134328358209" y="573.1343283582089" width="3.134328358208955" height="12.98507462686567" data-layer="top"/><rect class="pcb-pad" fill="rgb(200, 52, 52)" x="467.8358208955224" y="573.1343283582089" width="3.134328358208955" height="12.98507462686567" data-layer="top"/><rect class="pcb-pad" fill="rgb(200, 52, 52)" x="463.3582089552239" y="573.1343283582089" width="3.134328358208955" height="12.98507462686567" data-layer="top"/><rect class="pcb-pad" fill="rgb(200, 52, 52)" x="458.8805970149254" y="573.1343283582089" width="3.134328358208955" height="12.98507462686567" data-layer="top"/><rect class="pcb-pad" fill="rgb(200, 52, 52)" x="454.4029850746269" y="573.1343283582089" width="3.134328358208955" height="12.98507462686567" data-layer="top"/><rect class="pcb-pad" fill="rgb(200, 52, 52)" x="449.92537313432837" y="573.1343283582089" width="3.134328358208955" height="12.98507462686567" data-layer="top"/><rect class="pcb-pad" fill="rgb(200, 52, 52)" x="445.44776119402985" y="573.1343283582089" width="3.134328358208955" height="12.98507462686567" data-layer="top"/><rect class="pcb-pad" fill="rgb(200, 52, 52)" x="440.9701492537314" y="573.1343283582089" width="3.134328358208955" height="12.98507462686567" data-layer="top"/><rect class="pcb-pad" fill="rgb(200, 52, 52)" x="436.4925373134329" y="573.1343283582089" width="3.134328358208955" height="12.98507462686567" data-layer="top"/><rect class="pcb-pad" fill="rgb(200, 52, 52)" x="432.01492537313436" y="573.1343283582089" width="3.134328358208955" height="12.98507462686567" data-layer="top"/><rect class="pcb-pad" fill="rgb(200, 52, 52)" x="409.62686567164184" y="573.1343283582089" width="3.134328358208955" height="12.98507462686567" data-layer="top"/><rect class="pcb-pad" fill="rgb(200, 52, 52)" x="405.1492537313433" y="573.1343283582089" width="3.134328358208955" height="12.98507462686567" data-layer="top"/><rect class="pcb-pad" fill="rgb(200, 52, 52)" x="400.6716417910448" y="573.1343283582089" width="3.134328358208955" height="12.98507462686567" data-layer="top"/><rect class="pcb-pad" fill="rgb(200, 52, 52)" x="396.1940298507463" y="573.1343283582089" width="3.134328358208955" height="12.98507462686567" data-layer="top"/><rect class="pcb-pad" fill="rgb(200, 52, 52)" x="391.7164179104478" y="573.1343283582089" width="3.134328358208955" height="12.98507462686567" data-layer="top"/><rect class="pcb-pad" fill="rgb(200, 52, 52)" x="387.23880597014926" y="573.1343283582089" width="3.134328358208955" height="12.98507462686567" data-layer="top"/><rect class="pcb-pad" fill="rgb(200, 52, 52)" x="382.7611940298508" y="573.1343283582089" width="3.134328358208955" height="12.98507462686567" data-layer="top"/><rect class="pcb-pad" fill="rgb(200, 52, 52)" x="378.2835820895523" y="573.1343283582089" width="3.134328358208955" height="12.98507462686567" data-layer="top"/><rect class="pcb-pad" fill="rgb(200, 52, 52)" x="373.80597014925377" y="573.1343283582089" width="3.134328358208955" height="12.98507462686567" data-layer="top"/><rect class="pcb-pad" fill="rgb(200, 52, 52)" x="369.32835820895525" y="573.1343283582089" width="3.134328358208955" height="12.98507462686567" data-layer="top"/><rect class="pcb-pad" fill="rgb(200, 52, 52)" x="364.85074626865674" y="573.1343283582089" width="3.134328358208955" height="12.98507462686567" data-layer="top"/><rect class="pcb-pad" fill="rgb(200, 52, 52)" x="360.3731343283582" y="573.1343283582089" width="3.134328358208955" height="12.98507462686567" data-layer="top"/><rect class="pcb-pad" fill="rgb(200, 52, 52)" x="355.8955223880597" y="573.1343283582089" width="3.134328358208955" height="12.98507462686567" data-layer="top"/><rect class="pcb-pad" fill="rgb(200, 52, 52)" x="351.41791044776124" y="573.1343283582089" width="3.134328358208955" height="12.98507462686567" data-layer="top"/><rect class="pcb-pad" fill="rgb(200, 52, 52)" x="346.9402985074627" y="573.1343283582089" width="3.134328358208955" height="12.98507462686567" data-layer="top"/><rect class="pcb-pad" fill="rgb(200, 52, 52)" x="342.4626865671642" y="573.1343283582089" width="3.134328358208955" height="12.98507462686567" data-layer="top"/><rect class="pcb-pad" fill="rgb(200, 52, 52)" x="337.9850746268657" y="573.1343283582089" width="3.134328358208955" height="12.98507462686567" data-layer="top"/><rect class="pcb-pad" fill="rgb(200, 52, 52)" x="333.5074626865672" y="573.1343283582089" width="3.134328358208955" height="12.98507462686567" data-layer="top"/><rect class="pcb-pad" fill="rgb(200, 52, 52)" x="329.0298507462687" y="573.1343283582089" width="3.134328358208955" height="12.98507462686567" data-layer="top"/><rect class="pcb-pad" fill="rgb(200, 52, 52)" x="324.5522388059702" y="573.1343283582089" width="3.134328358208955" height="12.98507462686567" data-layer="top"/><rect class="pcb-pad" fill="rgb(200, 52, 52)" x="320.0746268656717" y="573.1343283582089" width="3.134328358208955" height="12.98507462686567" data-layer="top"/><rect class="pcb-pad" fill="rgb(200, 52, 52)" x="315.5970149253732" y="573.1343283582089" width="3.134328358208955" height="12.98507462686567" data-layer="top"/><g><circle class="pcb-hole-outer" fill="rgb(200, 52, 52)" cx="229.85074626865674" cy="197.01492537313433" r="25.16417910447761"/><circle class="pcb-hole-inner" fill="#FF26E2" cx="229.85074626865674" cy="197.01492537313433" r="17.104477611940297"/></g><g><circle class="pcb-hole-outer" fill="rgb(200, 52, 52)" cx="570.1492537313433" cy="197.01492537313433" r="25.16417910447761"/><circle class="pcb-hole-inner" fill="#FF26E2" cx="570.1492537313433" cy="197.01492537313433" r="17.104477611940297"/></g></svg>