<svg xmlns="http://www.w3.org/2000/svg" width="800" height="600" data-software-used-string="@tscircuit/core@0.0.735"><style></style><rect class="boundary" x="0" y="0" fill="#000" width="800" height="600"/><rect class="pcb-boundary" fill="none" stroke="#fff" stroke-width="0.3" x="63.79310344827587" y="10.344827586206804" width="672.4137931034484" height="579.3103448275863"/><path class="pcb-board" d="M 400 10.344827586206804 L 725.8620689655172 10.344827586206804 L 727.8802447105118 10.543600547552728 L 729.820863093432 11.132280698159036 L 731.6093472381338 12.088245389973622 L 733.1769667019298 13.374757436001175 L 734.4634787479574 14.942376899797182 L 735.419443439772 16.730861044498965 L 736.0081235903783 18.671479427419285 L 736.2068965517242 20.689655172413723 L 736.2068965517242 579.3103448275862 L 736.0081235903783 581.3285205725806 L 735.419443439772 583.2691389555009 L 734.4634787479574 585.0576231002027 L 733.1769667019298 586.6252425639987 L 731.6093472381338 587.9117546100263 L 729.820863093432 588.8677193018409 L 727.8802447105118 589.4563994524472 L 725.8620689655172 589.655172413793 L 550 589.655172413793 L 547.9818242550056 589.4563994524472 L 546.0412058720852 588.8677193018409 L 544.2527217273835 587.9117546100263 L 542.6851022635874 586.6252425639987 L 541.3985902175599 585.0576231002027 L 540.4426255257454 583.2691389555009 L 539.853945375139 581.3285205725806 L 539.6551724137931 579.3103448275862 L 539.6551724137931 393.103448275862 L 539.4563994524472 391.0852725308676 L 538.8677193018409 389.1446541479473 L 537.9117546100263 387.35617000324544 L 536.6252425639988 385.78855053944943 L 535.0576231002028 384.5020384934219 L 533.2691389555009 383.54607380160735 L 531.3285205725806 382.957393651001 L 529.3103448275863 382.7586206896551 L 527.2921690825917 382.957393651001 L 525.3515506996715 383.54607380160735 L 523.5630665549696 384.5020384934219 L 521.9954470911737 385.78855053944943 L 520.7089350451461 387.35617000324544 L 519.7529703533315 389.1446541479473 L 519.1642902027252 391.0852725308676 L 518.9655172413793 393.103448275862 L 518.9655172413793 579.3103448275862 L 518.7667442800334 581.3285205725806 L 518.1780641294271 583.2691389555009 L 517.2220994376125 585.0576231002027 L 515.9355873915849 586.6252425639987 L 514.367967927789 587.9117546100263 L 512.5794837830872 588.8677193018409 L 510.6388654001669 589.4563994524472 L 508.62068965517244 589.655172413793 L 74.13793103448273 589.655172413793 L 72.1197552894883 589.4563994524472 L 70.17913690656803 588.8677193018409 L 68.39065276186619 587.9117546100263 L 66.82303329807019 586.6252425639987 L 65.53652125204258 585.0576231002027 L 64.58055656022805 583.2691389555009 L 63.99187640962174 581.3285205725806 L 63.79310344827587 579.3103448275862 L 63.79310344827587 398.27586206896547 L 63.99187640962174 396.25768632397103 L 64.58055656022805 394.3170679410507 L 65.53652125204258 392.5285837963489 L 66.82303329807019 390.9609643325529 L 68.39065276186619 389.67445228652537 L 70.17913690656803 388.7184875947108 L 72.1197552894883 388.1298074441045 L 74.13793103448273 387.93103448275855 L 105.17241379310343 387.93103448275855 L 107.19058953809787 387.7322615214127 L 109.13120792101819 387.1435813708064 L 110.91969206572003 386.1876166789918 L 112.48731152951598 384.90110463296423 L 113.77382357554359 383.3334851691682 L 114.72978826735812 381.5450010244664 L 115.31846841796448 379.60438264154607 L 115.51724137931035 377.5862068965517 L 115.51724137931035 222.4137931034482 L 115.31846841796448 220.3956173584538 L 114.72978826735812 218.4549989755335 L 113.77382357554359 216.66651483083166 L 112.48731152951598 215.09889536703565 L 110.91969206572003 213.8123833210081 L 109.13120792101819 212.8564186291935 L 107.19058953809787 212.2677384785872 L 105.17241379310343 212.06896551724134 L 74.13793103448273 212.06896551724134 L 72.1197552894883 211.87019255589541 L 70.17913690656803 211.2815124052891 L 68.39065276186619 210.32554771347455 L 66.82303329807019 209.03903566744697 L 65.53652125204258 207.471416203651 L 64.58055656022805 205.68293205894915 L 63.99187640962174 203.74231367602886 L 63.79310344827587 201.72413793103442 L 63.79310344827587 20.689655172413723 L 63.99187640962174 18.671479427419285 L 64.58055656022805 16.730861044498965 L 65.53652125204258 14.942376899797182 L 66.82303329807019 13.374757436001175 L 68.39065276186619 12.088245389973622 L 70.17913690656803 11.132280698159036 L 72.1197552894883 10.543600547552728 L 74.13793103448273 10.344827586206804 Z" fill="none" stroke="rgba(255, 255, 255, 0.5)" stroke-width="1.0344827586206897"/><text x="0" y="0" dx="0" dy="0" fill="#f2eda1" font-family="Arial, sans-serif" font-size="5.222068965517241" text-anchor="middle" dominant-baseline="central" transform="matrix(-1,1.2246467991473532e-16,-1.2246467991473532e-16,-1,150.3793103448276,71.51379310344817)" class="pcb-silkscreen-text pcb-silkscreen-top" data-pcb-silkscreen-text-id="pcb_component_0" stroke="none">V3_3_1</text><text x="0" y="0" dx="0" dy="0" fill="#f2eda1" font-family="Arial, sans-serif" font-size="5.222068965517241" text-anchor="middle" dominant-baseline="central" transform="matrix(-1,1.2246467991473532e-16,-1.2246467991473532e-16,-1,150.3793103448276,45.23793103448267)" class="pcb-silkscreen-text pcb-silkscreen-top" data-pcb-silkscreen-text-id="pcb_component_0" stroke="none">V5_1</text><text x="0" y="0" dx="0" dy="0" fill="#f2eda1" font-family="Arial, sans-serif" font-size="5.222068965517241" text-anchor="middle" dominant-baseline="central" transform="matrix(-1,1.2246467991473532e-16,-1.2246467991473532e-16,-1,176.6551724137931,45.23793103448267)" class="pcb-silkscreen-text pcb-silkscreen-top" data-pcb-silkscreen-text-id="pcb_component_0" stroke="none">V5_2</text><text x="0" y="0" dx="0" dy="0" fill="#f2eda1" font-family="Arial, sans-serif" font-size="5.222068965517241" text-anchor="middle" dominant-baseline="central" transform="matrix(-1,1.2246467991473532e-16,-1.2246467991473532e-16,-1,202.93103448275863,45.23793103448267)" class="pcb-silkscreen-text pcb-silkscreen-top" data-pcb-silkscreen-text-id="pcb_component_0" stroke="none">GND_1</text><text x="0" y="0" dx="0" dy="0" fill="#f2eda1" font-family="Arial, sans-serif" font-size="5.222068965517241" text-anchor="middle" dominant-baseline="central" transform="matrix(-1,1.2246467991473532e-16,-1.2246467991473532e-16,-1,229.20689655172416,45.23793103448267)" class="pcb-silkscreen-text pcb-silkscreen-top" data-pcb-silkscreen-text-id="pcb_component_0" stroke="none">TX</text><text x="0" y="0" dx="0" dy="0" fill="#f2eda1" font-family="Arial, sans-serif" font-size="5.222068965517241" text-anchor="middle" dominant-baseline="central" transform="matrix(-1,1.2246467991473532e-16,-1.2246467991473532e-16,-1,255.48275862068965,45.23793103448267)" class="pcb-silkscreen-text pcb-silkscreen-top" data-pcb-silkscreen-text-id="pcb_component_0" stroke="none">RX</text><text x="0" y="0" dx="0" dy="0" fill="#f2eda1" font-family="Arial, sans-serif" font-size="5.222068965517241" text-anchor="middle" dominant-baseline="central" transform="matrix(-1,1.2246467991473532e-16,-1.2246467991473532e-16,-1,281.7586206896552,45.23793103448267)" class="pcb-silkscreen-text pcb-silkscreen-top" data-pcb-silkscreen-text-id="pcb_component_0" stroke="none">pin7</text><text x="0" y="0" dx="0" dy="0" fill="#f2eda1" font-family="Arial, sans-serif" font-size="5.222068965517241" text-anchor="middle" dominant-baseline="central" transform="matrix(-1,1.2246467991473532e-16,-1.2246467991473532e-16,-1,308.0344827586207,45.23793103448267)" class="pcb-silkscreen-text pcb-silkscreen-top" data-pcb-silkscreen-text-id="pcb_component_0" stroke="none">GND_2</text><text x="0" y="0" dx="0" dy="0" fill="#f2eda1" font-family="Arial, sans-serif" font-size="5.222068965517241" text-anchor="middle" dominant-baseline="central" transform="matrix(-1,1.2246467991473532e-16,-1.2246467991473532e-16,-1,334.3103448275862,45.23793103448267)" class="pcb-silkscreen-text pcb-silkscreen-top" data-pcb-silkscreen-text-id="pcb_component_0" stroke="none">pin9</text><text x="0" y="0" dx="0" dy="0" fill="#f2eda1" font-family="Arial, sans-serif" font-size="5.222068965517241" text-anchor="middle" dominant-baseline="central" transform="matrix(-1,1.2246467991473532e-16,-1.2246467991473532e-16,-1,360.58620689655174,45.23793103448267)" class="pcb-silkscreen-text pcb-silkscreen-top" data-pcb-silkscreen-text-id="pcb_component_0" stroke="none">pin10</text><text x="0" y="0" dx="0" dy="0" fill="#f2eda1" font-family="Arial, sans-serif" font-size="5.222068965517241" text-anchor="middle" dominant-baseline="central" transform="matrix(-1,1.2246467991473532e-16,-1.2246467991473532e-16,-1,386.86206896551727,45.23793103448267)" class="pcb-silkscreen-text pcb-silkscreen-top" data-pcb-silkscreen-text-id="pcb_component_0" stroke="none">GND_3</text><text x="0" y="0" dx="0" dy="0" fill="#f2eda1" font-family="Arial, sans-serif" font-size="5.222068965517241" text-anchor="middle" dominant-baseline="central" transform="matrix(-1,1.2246467991473532e-16,-1.2246467991473532e-16,-1,413.13793103448273,45.2379310344827)" class="pcb-silkscreen-text pcb-silkscreen-top" data-pcb-silkscreen-text-id="pcb_component_0" stroke="none">pin12</text><text x="0" y="0" dx="0" dy="0" fill="#f2eda1" font-family="Arial, sans-serif" font-size="5.222068965517241" text-anchor="middle" dominant-baseline="central" transform="matrix(-1,1.2246467991473532e-16,-1.2246467991473532e-16,-1,439.4137931034483,45.2379310344827)" class="pcb-silkscreen-text pcb-silkscreen-top" data-pcb-silkscreen-text-id="pcb_component_0" stroke="none">CE0</text><text x="0" y="0" dx="0" dy="0" fill="#f2eda1" font-family="Arial, sans-serif" font-size="5.222068965517241" text-anchor="middle" dominant-baseline="central" transform="matrix(-1,1.2246467991473532e-16,-1.2246467991473532e-16,-1,465.68965517241384,45.2379310344827)" class="pcb-silkscreen-text pcb-silkscreen-top" data-pcb-silkscreen-text-id="pcb_component_0" stroke="none">CE1</text><text x="0" y="0" dx="0" dy="0" fill="#f2eda1" font-family="Arial, sans-serif" font-size="5.222068965517241" text-anchor="middle" dominant-baseline="central" transform="matrix(-1,1.2246467991473532e-16,-1.2246467991473532e-16,-1,491.96551724137936,45.2379310344827)" class="pcb-silkscreen-text pcb-silkscreen-top" data-pcb-silkscreen-text-id="pcb_component_0" stroke="none">ID_SC</text><text x="0" y="0" dx="0" dy="0" fill="#f2eda1" font-family="Arial, sans-serif" font-size="5.222068965517241" text-anchor="middle" dominant-baseline="central" transform="matrix(-1,1.2246467991473532e-16,-1.2246467991473532e-16,-1,518.2413793103449,45.2379310344827)" class="pcb-silkscreen-text pcb-silkscreen-top" data-pcb-silkscreen-text-id="pcb_component_0" stroke="none">GND_4</text><text x="0" y="0" dx="0" dy="0" fill="#f2eda1" font-family="Arial, sans-serif" font-size="5.222068965517241" text-anchor="middle" dominant-baseline="central" transform="matrix(-1,1.2246467991473532e-16,-1.2246467991473532e-16,-1,544.5172413793103,45.2379310344827)" class="pcb-silkscreen-text pcb-silkscreen-top" data-pcb-silkscreen-text-id="pcb_component_0" stroke="none">pin17</text><text x="0" y="0" dx="0" dy="0" fill="#f2eda1" font-family="Arial, sans-serif" font-size="5.222068965517241" text-anchor="middle" dominant-baseline="central" transform="matrix(-1,1.2246467991473532e-16,-1.2246467991473532e-16,-1,570.7931034482758,45.2379310344827)" class="pcb-silkscreen-text pcb-silkscreen-top" data-pcb-silkscreen-text-id="pcb_component_0" stroke="none">GND_5</text><text x="0" y="0" dx="0" dy="0" fill="#f2eda1" font-family="Arial, sans-serif" font-size="5.222068965517241" text-anchor="middle" dominant-baseline="central" transform="matrix(-1,1.2246467991473532e-16,-1.2246467991473532e-16,-1,597.0689655172414,45.2379310344827)" class="pcb-silkscreen-text pcb-silkscreen-top" data-pcb-silkscreen-text-id="pcb_component_0" stroke="none">pin19</text><text x="0" y="0" dx="0" dy="0" fill="#f2eda1" font-family="Arial, sans-serif" font-size="5.222068965517241" text-anchor="middle" dominant-baseline="central" transform="matrix(-1,1.2246467991473532e-16,-1.2246467991473532e-16,-1,623.3448275862069,45.2379310344827)" class="pcb-silkscreen-text pcb-silkscreen-top" data-pcb-silkscreen-text-id="pcb_component_0" stroke="none">pin20</text><text x="0" y="0" dx="0" dy="0" fill="#f2eda1" font-family="Arial, sans-serif" font-size="5.222068965517241" text-anchor="middle" dominant-baseline="central" transform="matrix(-1,1.2246467991473532e-16,-1.2246467991473532e-16,-1,649.6206896551724,45.2379310344827)" class="pcb-silkscreen-text pcb-silkscreen-top" data-pcb-silkscreen-text-id="pcb_component_0" stroke="none">pin21</text><text x="0" y="0" dx="0" dy="0" fill="#f2eda1" font-family="Arial, sans-serif" font-size="5.222068965517241" text-anchor="middle" dominant-baseline="central" transform="matrix(-1,1.2246467991473532e-16,-1.2246467991473532e-16,-1,649.6206896551724,71.51379310344825)" class="pcb-silkscreen-text pcb-silkscreen-top" data-pcb-silkscreen-text-id="pcb_component_0" stroke="none">GND_6</text><text x="0" y="0" dx="0" dy="0" fill="#f2eda1" font-family="Arial, sans-serif" font-size="5.222068965517241" text-anchor="middle" dominant-baseline="central" transform="matrix(-1,1.2246467991473532e-16,-1.2246467991473532e-16,-1,623.3448275862069,71.51379310344825)" class="pcb-silkscreen-text pcb-silkscreen-top" data-pcb-silkscreen-text-id="pcb_component_0" stroke="none">pin23</text><text x="0" y="0" dx="0" dy="0" fill="#f2eda1" font-family="Arial, sans-serif" font-size="5.222068965517241" text-anchor="middle" dominant-baseline="central" transform="matrix(-1,1.2246467991473532e-16,-1.2246467991473532e-16,-1,597.0689655172414,71.51379310344825)" class="pcb-silkscreen-text pcb-silkscreen-top" data-pcb-silkscreen-text-id="pcb_component_0" stroke="none">pin24</text><text x="0" y="0" dx="0" dy="0" fill="#f2eda1" font-family="Arial, sans-serif" font-size="5.222068965517241" text-anchor="middle" dominant-baseline="central" transform="matrix(-1,1.2246467991473532e-16,-1.2246467991473532e-16,-1,570.7931034482758,71.51379310344822)" class="pcb-silkscreen-text pcb-silkscreen-top" data-pcb-silkscreen-text-id="pcb_component_0" stroke="none">pin25</text><text x="0" y="0" dx="0" dy="0" fill="#f2eda1" font-family="Arial, sans-serif" font-size="5.222068965517241" text-anchor="middle" dominant-baseline="central" transform="matrix(-1,1.2246467991473532e-16,-1.2246467991473532e-16,-1,544.5172413793103,71.51379310344822)" class="pcb-silkscreen-text pcb-silkscreen-top" data-pcb-silkscreen-text-id="pcb_component_0" stroke="none">pin26</text><text x="0" y="0" dx="0" dy="0" fill="#f2eda1" font-family="Arial, sans-serif" font-size="5.222068965517241" text-anchor="middle" dominant-baseline="central" transform="matrix(-1,1.2246467991473532e-16,-1.2246467991473532e-16,-1,518.2413793103449,71.51379310344822)" class="pcb-silkscreen-text pcb-silkscreen-top" data-pcb-silkscreen-text-id="pcb_component_0" stroke="none">pin27</text><text x="0" y="0" dx="0" dy="0" fill="#f2eda1" font-family="Arial, sans-serif" font-size="5.222068965517241" text-anchor="middle" dominant-baseline="central" transform="matrix(-1,1.2246467991473532e-16,-1.2246467991473532e-16,-1,491.96551724137936,71.51379310344822)" class="pcb-silkscreen-text pcb-silkscreen-top" data-pcb-silkscreen-text-id="pcb_component_0" stroke="none">ID_SD</text><text x="0" y="0" dx="0" dy="0" fill="#f2eda1" font-family="Arial, sans-serif" font-size="5.222068965517241" text-anchor="middle" dominant-baseline="central" transform="matrix(-1,1.2246467991473532e-16,-1.2246467991473532e-16,-1,465.68965517241384,71.51379310344822)" class="pcb-silkscreen-text pcb-silkscreen-top" data-pcb-silkscreen-text-id="pcb_component_0" stroke="none">GND_7</text><text x="0" y="0" dx="0" dy="0" fill="#f2eda1" font-family="Arial, sans-serif" font-size="5.222068965517241" text-anchor="middle" dominant-baseline="central" transform="matrix(-1,1.2246467991473532e-16,-1.2246467991473532e-16,-1,439.4137931034483,71.51379310344822)" class="pcb-silkscreen-text pcb-silkscreen-top" data-pcb-silkscreen-text-id="pcb_component_0" stroke="none">SCK</text><text x="0" y="0" dx="0" dy="0" fill="#f2eda1" font-family="Arial, sans-serif" font-size="5.222068965517241" text-anchor="middle" dominant-baseline="central" transform="matrix(-1,1.2246467991473532e-16,-1.2246467991473532e-16,-1,413.13793103448273,71.51379310344822)" class="pcb-silkscreen-text pcb-silkscreen-top" data-pcb-silkscreen-text-id="pcb_component_0" stroke="none">MISO</text><text x="0" y="0" dx="0" dy="0" fill="#f2eda1" font-family="Arial, sans-serif" font-size="5.222068965517241" text-anchor="middle" dominant-baseline="central" transform="matrix(-1,1.2246467991473532e-16,-1.2246467991473532e-16,-1,386.86206896551727,71.51379310344822)" class="pcb-silkscreen-text pcb-silkscreen-top" data-pcb-silkscreen-text-id="pcb_component_0" stroke="none">MOSI</text><text x="0" y="0" dx="0" dy="0" fill="#f2eda1" font-family="Arial, sans-serif" font-size="5.222068965517241" text-anchor="middle" dominant-baseline="central" transform="matrix(-1,1.2246467991473532e-16,-1.2246467991473532e-16,-1,360.58620689655174,71.51379310344822)" class="pcb-silkscreen-text pcb-silkscreen-top" data-pcb-silkscreen-text-id="pcb_component_0" stroke="none">V3_3_2</text><text x="0" y="0" dx="0" dy="0" fill="#f2eda1" font-family="Arial, sans-serif" font-size="5.222068965517241" text-anchor="middle" dominant-baseline="central" transform="matrix(-1,1.2246467991473532e-16,-1.2246467991473532e-16,-1,334.3103448275862,71.51379310344822)" class="pcb-silkscreen-text pcb-silkscreen-top" data-pcb-silkscreen-text-id="pcb_component_0" stroke="none">pin34</text><text x="0" y="0" dx="0" dy="0" fill="#f2eda1" font-family="Arial, sans-serif" font-size="5.222068965517241" text-anchor="middle" dominant-baseline="central" transform="matrix(-1,1.2246467991473532e-16,-1.2246467991473532e-16,-1,308.0344827586207,71.51379310344817)" class="pcb-silkscreen-text pcb-silkscreen-top" data-pcb-silkscreen-text-id="pcb_component_0" stroke="none">pin35</text><text x="0" y="0" dx="0" dy="0" fill="#f2eda1" font-family="Arial, sans-serif" font-size="5.222068965517241" text-anchor="middle" dominant-baseline="central" transform="matrix(-1,1.2246467991473532e-16,-1.2246467991473532e-16,-1,281.7586206896552,71.51379310344817)" class="pcb-silkscreen-text pcb-silkscreen-top" data-pcb-silkscreen-text-id="pcb_component_0" stroke="none">pin36</text><text x="0" y="0" dx="0" dy="0" fill="#f2eda1" font-family="Arial, sans-serif" font-size="5.222068965517241" text-anchor="middle" dominant-baseline="central" transform="matrix(-1,1.2246467991473532e-16,-1.2246467991473532e-16,-1,255.48275862068965,71.51379310344817)" class="pcb-silkscreen-text pcb-silkscreen-top" data-pcb-silkscreen-text-id="pcb_component_0" stroke="none">GND_8</text><text x="0" y="0" dx="0" dy="0" fill="#f2eda1" font-family="Arial, sans-serif" font-size="5.222068965517241" text-anchor="middle" dominant-baseline="central" transform="matrix(-1,1.2246467991473532e-16,-1.2246467991473532e-16,-1,229.20689655172416,71.51379310344817)" class="pcb-silkscreen-text pcb-silkscreen-top" data-pcb-silkscreen-text-id="pcb_component_0" stroke="none">pin38</text><text x="0" y="0" dx="0" dy="0" fill="#f2eda1" font-family="Arial, sans-serif" font-size="5.222068965517241" text-anchor="middle" dominant-baseline="central" transform="matrix(-1,1.2246467991473532e-16,-1.2246467991473532e-16,-1,202.93103448275863,71.51379310344817)" class="pcb-silkscreen-text pcb-silkscreen-top" data-pcb-silkscreen-text-id="pcb_component_0" stroke="none">SCL</text><text x="0" y="0" dx="0" dy="0" fill="#f2eda1" font-family="Arial, sans-serif" font-size="5.222068965517241" text-anchor="middle" dominant-baseline="central" transform="matrix(-1,1.2246467991473532e-16,-1.2246467991473532e-16,-1,176.6551724137931,71.51379310344817)" class="pcb-silkscreen-text pcb-silkscreen-top" data-pcb-silkscreen-text-id="pcb_component_0" stroke="none">SDA</text><text x="0" y="0" dx="0" dy="0" fill="#5da9e9" font-family="Arial, sans-serif" font-size="7.241379310344827" text-anchor="middle" dominant-baseline="central" transform="matrix(1,-1.2246467991473532e-16,-1.2246467991473532e-16,-1,400,85.96551724137925)" class="pcb-silkscreen-text pcb-silkscreen-bottom" data-pcb-silkscreen-text-id="pcb_component_0" stroke="none">JP1</text><g><rect class="pcb-hole-outer-pad" fill="rgb(200, 52, 52)" x="142.49655172413793" y="51.80689655172404" width="15.76551724137931" height="15.76551724137931"/><circle class="pcb-hole-inner" fill="#FF26E2" cx="150.3793103448276" cy="59.689655172413694" r="5.255172413793104"/></g><g><circle class="pcb-hole-outer" fill="rgb(200, 52, 52)" cx="150.3793103448276" cy="33.4137931034482" r="7.882758620689655"/><circle class="pcb-hole-inner" fill="#FF26E2" cx="150.3793103448276" cy="33.4137931034482" r="5.255172413793104"/></g><g><circle class="pcb-hole-outer" fill="rgb(200, 52, 52)" cx="176.6551724137931" cy="33.4137931034482" r="7.882758620689655"/><circle class="pcb-hole-inner" fill="#FF26E2" cx="176.6551724137931" cy="33.4137931034482" r="5.255172413793104"/></g><g><circle class="pcb-hole-outer" fill="rgb(200, 52, 52)" cx="202.93103448275863" cy="33.4137931034482" r="7.882758620689655"/><circle class="pcb-hole-inner" fill="#FF26E2" cx="202.93103448275863" cy="33.4137931034482" r="5.255172413793104"/></g><g><circle class="pcb-hole-outer" fill="rgb(200, 52, 52)" cx="229.20689655172416" cy="33.4137931034482" r="7.882758620689655"/><circle class="pcb-hole-inner" fill="#FF26E2" cx="229.20689655172416" cy="33.4137931034482" r="5.255172413793104"/></g><g><circle class="pcb-hole-outer" fill="rgb(200, 52, 52)" cx="255.48275862068965" cy="33.4137931034482" r="7.882758620689655"/><circle class="pcb-hole-inner" fill="#FF26E2" cx="255.48275862068965" cy="33.4137931034482" r="5.255172413793104"/></g><g><circle class="pcb-hole-outer" fill="rgb(200, 52, 52)" cx="281.7586206896552" cy="33.4137931034482" r="7.882758620689655"/><circle class="pcb-hole-inner" fill="#FF26E2" cx="281.7586206896552" cy="33.4137931034482" r="5.255172413793104"/></g><g><circle class="pcb-hole-outer" fill="rgb(200, 52, 52)" cx="308.0344827586207" cy="33.4137931034482" r="7.882758620689655"/><circle class="pcb-hole-inner" fill="#FF26E2" cx="308.0344827586207" cy="33.4137931034482" r="5.255172413793104"/></g><g><circle class="pcb-hole-outer" fill="rgb(200, 52, 52)" cx="334.3103448275862" cy="33.4137931034482" r="7.882758620689655"/><circle class="pcb-hole-inner" fill="#FF26E2" cx="334.3103448275862" cy="33.4137931034482" r="5.255172413793104"/></g><g><circle class="pcb-hole-outer" fill="rgb(200, 52, 52)" cx="360.58620689655174" cy="33.4137931034482" r="7.882758620689655"/><circle class="pcb-hole-inner" fill="#FF26E2" cx="360.58620689655174" cy="33.4137931034482" r="5.255172413793104"/></g><g><circle class="pcb-hole-outer" fill="rgb(200, 52, 52)" cx="386.86206896551727" cy="33.4137931034482" r="7.882758620689655"/><circle class="pcb-hole-inner" fill="#FF26E2" cx="386.86206896551727" cy="33.4137931034482" r="5.255172413793104"/></g><g><circle class="pcb-hole-outer" fill="rgb(200, 52, 52)" cx="413.13793103448273" cy="33.4137931034482" r="7.882758620689655"/><circle class="pcb-hole-inner" fill="#FF26E2" cx="413.13793103448273" cy="33.4137931034482" r="5.255172413793104"/></g><g><circle class="pcb-hole-outer" fill="rgb(200, 52, 52)" cx="439.4137931034483" cy="33.4137931034482" r="7.882758620689655"/><circle class="pcb-hole-inner" fill="#FF26E2" cx="439.4137931034483" cy="33.4137931034482" r="5.255172413793104"/></g><g><circle class="pcb-hole-outer" fill="rgb(200, 52, 52)" cx="465.68965517241384" cy="33.4137931034482" r="7.882758620689655"/><circle class="pcb-hole-inner" fill="#FF26E2" cx="465.68965517241384" cy="33.4137931034482" r="5.255172413793104"/></g><g><circle class="pcb-hole-outer" fill="rgb(200, 52, 52)" cx="491.96551724137936" cy="33.4137931034482" r="7.882758620689655"/><circle class="pcb-hole-inner" fill="#FF26E2" cx="491.96551724137936" cy="33.4137931034482" r="5.255172413793104"/></g><g><circle class="pcb-hole-outer" fill="rgb(200, 52, 52)" cx="518.2413793103449" cy="33.4137931034482" r="7.882758620689655"/><circle class="pcb-hole-inner" fill="#FF26E2" cx="518.2413793103449" cy="33.4137931034482" r="5.255172413793104"/></g><g><circle class="pcb-hole-outer" fill="rgb(200, 52, 52)" cx="544.5172413793103" cy="33.4137931034482" r="7.882758620689655"/><circle class="pcb-hole-inner" fill="#FF26E2" cx="544.5172413793103" cy="33.4137931034482" r="5.255172413793104"/></g><g><circle class="pcb-hole-outer" fill="rgb(200, 52, 52)" cx="570.7931034482758" cy="33.4137931034482" r="7.882758620689655"/><circle class="pcb-hole-inner" fill="#FF26E2" cx="570.7931034482758" cy="33.4137931034482" r="5.255172413793104"/></g><g><circle class="pcb-hole-outer" fill="rgb(200, 52, 52)" cx="597.0689655172414" cy="33.4137931034482" r="7.882758620689655"/><circle class="pcb-hole-inner" fill="#FF26E2" cx="597.0689655172414" cy="33.4137931034482" r="5.255172413793104"/></g><g><circle class="pcb-hole-outer" fill="rgb(200, 52, 52)" cx="623.3448275862069" cy="33.413793103448256" r="7.882758620689655"/><circle class="pcb-hole-inner" fill="#FF26E2" cx="623.3448275862069" cy="33.413793103448256" r="5.255172413793104"/></g><g><circle class="pcb-hole-outer" fill="rgb(200, 52, 52)" cx="649.6206896551724" cy="33.413793103448256" r="7.882758620689655"/><circle class="pcb-hole-inner" fill="#FF26E2" cx="649.6206896551724" cy="33.413793103448256" r="5.255172413793104"/></g><g><circle class="pcb-hole-outer" fill="rgb(200, 52, 52)" cx="649.6206896551724" cy="59.68965517241375" r="7.882758620689655"/><circle class="pcb-hole-inner" fill="#FF26E2" cx="649.6206896551724" cy="59.68965517241375" r="5.255172413793104"/></g><g><circle class="pcb-hole-outer" fill="rgb(200, 52, 52)" cx="623.3448275862069" cy="59.68965517241375" r="7.882758620689655"/><circle class="pcb-hole-inner" fill="#FF26E2" cx="623.3448275862069" cy="59.68965517241375" r="5.255172413793104"/></g><g><circle class="pcb-hole-outer" fill="rgb(200, 52, 52)" cx="597.0689655172414" cy="59.68965517241375" r="7.882758620689655"/><circle class="pcb-hole-inner" fill="#FF26E2" cx="597.0689655172414" cy="59.68965517241375" r="5.255172413793104"/></g><g><circle class="pcb-hole-outer" fill="rgb(200, 52, 52)" cx="570.7931034482758" cy="59.68965517241375" r="7.882758620689655"/><circle class="pcb-hole-inner" fill="#FF26E2" cx="570.7931034482758" cy="59.68965517241375" r="5.255172413793104"/></g><g><circle class="pcb-hole-outer" fill="rgb(200, 52, 52)" cx="544.5172413793103" cy="59.68965517241372" r="7.882758620689655"/><circle class="pcb-hole-inner" fill="#FF26E2" cx="544.5172413793103" cy="59.68965517241372" r="5.255172413793104"/></g><g><circle class="pcb-hole-outer" fill="rgb(200, 52, 52)" cx="518.2413793103449" cy="59.68965517241372" r="7.882758620689655"/><circle class="pcb-hole-inner" fill="#FF26E2" cx="518.2413793103449" cy="59.68965517241372" r="5.255172413793104"/></g><g><circle class="pcb-hole-outer" fill="rgb(200, 52, 52)" cx="491.96551724137936" cy="59.68965517241372" r="7.882758620689655"/><circle class="pcb-hole-inner" fill="#FF26E2" cx="491.96551724137936" cy="59.68965517241372" r="5.255172413793104"/></g><g><circle class="pcb-hole-outer" fill="rgb(200, 52, 52)" cx="465.68965517241384" cy="59.68965517241372" r="7.882758620689655"/><circle class="pcb-hole-inner" fill="#FF26E2" cx="465.68965517241384" cy="59.68965517241372" r="5.255172413793104"/></g><g><circle class="pcb-hole-outer" fill="rgb(200, 52, 52)" cx="439.4137931034483" cy="59.68965517241372" r="7.882758620689655"/><circle class="pcb-hole-inner" fill="#FF26E2" cx="439.4137931034483" cy="59.68965517241372" r="5.255172413793104"/></g><g><circle class="pcb-hole-outer" fill="rgb(200, 52, 52)" cx="413.13793103448273" cy="59.68965517241372" r="7.882758620689655"/><circle class="pcb-hole-inner" fill="#FF26E2" cx="413.13793103448273" cy="59.68965517241372" r="5.255172413793104"/></g><g><circle class="pcb-hole-outer" fill="rgb(200, 52, 52)" cx="386.86206896551727" cy="59.68965517241372" r="7.882758620689655"/><circle class="pcb-hole-inner" fill="#FF26E2" cx="386.86206896551727" cy="59.68965517241372" r="5.255172413793104"/></g><g><circle class="pcb-hole-outer" fill="rgb(200, 52, 52)" cx="360.58620689655174" cy="59.68965517241372" r="7.882758620689655"/><circle class="pcb-hole-inner" fill="#FF26E2" cx="360.58620689655174" cy="59.68965517241372" r="5.255172413793104"/></g><g><circle class="pcb-hole-outer" fill="rgb(200, 52, 52)" cx="334.3103448275862" cy="59.68965517241372" r="7.882758620689655"/><circle class="pcb-hole-inner" fill="#FF26E2" cx="334.3103448275862" cy="59.68965517241372" r="5.255172413793104"/></g><g><circle class="pcb-hole-outer" fill="rgb(200, 52, 52)" cx="308.0344827586207" cy="59.68965517241372" r="7.882758620689655"/><circle class="pcb-hole-inner" fill="#FF26E2" cx="308.0344827586207" cy="59.68965517241372" r="5.255172413793104"/></g><g><circle class="pcb-hole-outer" fill="rgb(200, 52, 52)" cx="281.7586206896552" cy="59.68965517241372" r="7.882758620689655"/><circle class="pcb-hole-inner" fill="#FF26E2" cx="281.7586206896552" cy="59.68965517241372" r="5.255172413793104"/></g><g><circle class="pcb-hole-outer" fill="rgb(200, 52, 52)" cx="255.48275862068965" cy="59.68965517241372" r="7.882758620689655"/><circle class="pcb-hole-inner" fill="#FF26E2" cx="255.48275862068965" cy="59.68965517241372" r="5.255172413793104"/></g><g><circle class="pcb-hole-outer" fill="rgb(200, 52, 52)" cx="229.20689655172416" cy="59.689655172413694" r="7.882758620689655"/><circle class="pcb-hole-inner" fill="#FF26E2" cx="229.20689655172416" cy="59.689655172413694" r="5.255172413793104"/></g><g><circle class="pcb-hole-outer" fill="rgb(200, 52, 52)" cx="202.93103448275863" cy="59.689655172413694" r="7.882758620689655"/><circle class="pcb-hole-inner" fill="#FF26E2" cx="202.93103448275863" cy="59.689655172413694" r="5.255172413793104"/></g><g><circle class="pcb-hole-outer" fill="rgb(200, 52, 52)" cx="176.6551724137931" cy="59.689655172413694" r="7.882758620689655"/><circle class="pcb-hole-inner" fill="#FF26E2" cx="176.6551724137931" cy="59.689655172413694" r="5.255172413793104"/></g><circle class="pcb-hole" cx="100" cy="46.55172413793096" r="14.482758620689655" fill="#FF26E2"/><circle class="pcb-hole" cx="700" cy="553.448275862069" r="14.482758620689655" fill="#FF26E2"/><circle class="pcb-hole" cx="100" cy="553.448275862069" r="14.482758620689655" fill="#FF26E2"/><circle class="pcb-hole" cx="700" cy="46.55172413793096" r="14.482758620689655" fill="#FF26E2"/></svg>