<svg xmlns="http://www.w3.org/2000/svg" width="800" height="600" data-software-used-string="@tscircuit/core@0.0.807"><style></style><rect class="boundary" x="0" y="0" fill="#000" width="800" height="600" data-type="pcb_background" data-pcb-layer="global"/><rect class="pcb-boundary" fill="none" stroke="#fff" stroke-width="0.3" x="7.8431372549019605" y="45.0980392156863" width="784.313725490196" height="509.8039215686274" data-type="pcb_boundary" data-pcb-layer="global"/><path class="pcb-board" d="M 7.8431372549019605 554.9019607843137 L 792.156862745098 554.9019607843137 L 792.156862745098 45.0980392156863 L 7.8431372549019605 45.0980392156863 Z" fill="none" stroke="rgba(255, 255, 255, 0.5)" stroke-width="0.7843137254901961" data-type="pcb_board" data-pcb-layer="board"/><g data-type="pcb_via" data-pcb-layer="through"><circle class="pcb-hole-outer" fill="rgb(200, 52, 52)" cx="243.13725490196077" cy="358.8235294117647" r="5.88235294117647" data-type="pcb_via" data-pcb-layer="top"/><circle class="pcb-hole-inner" fill="#FF26E2" cx="243.13725490196077" cy="358.8235294117647" r="1.176470588235294" data-type="pcb_via" data-pcb-layer="drill"/></g><g data-type="pcb_via" data-pcb-layer="through"><circle class="pcb-hole-outer" fill="rgb(200, 52, 52)" cx="262.74509803921563" cy="358.8235294117647" r="5.88235294117647" data-type="pcb_via" data-pcb-layer="top"/><circle class="pcb-hole-inner" fill="#FF26E2" cx="262.74509803921563" cy="358.8235294117647" r="1.176470588235294" data-type="pcb_via" data-pcb-layer="drill"/></g><g data-type="pcb_via" data-pcb-layer="through"><circle class="pcb-hole-outer" fill="rgb(200, 52, 52)" cx="243.13725490196077" cy="339.2156862745098" r="5.88235294117647" data-type="pcb_via" data-pcb-layer="top"/><circle class="pcb-hole-inner" fill="#FF26E2" cx="243.13725490196077" cy="339.2156862745098" r="1.176470588235294" data-type="pcb_via" data-pcb-layer="drill"/></g><g data-type="pcb_via" data-pcb-layer="through"><circle class="pcb-hole-outer" fill="rgb(200, 52, 52)" cx="223.52941176470588" cy="358.8235294117647" r="5.88235294117647" data-type="pcb_via" data-pcb-layer="top"/><circle class="pcb-hole-inner" fill="#FF26E2" cx="223.52941176470588" cy="358.8235294117647" r="1.176470588235294" data-type="pcb_via" data-pcb-layer="drill"/></g><g data-type="pcb_via" data-pcb-layer="through"><circle class="pcb-hole-outer" fill="rgb(200, 52, 52)" cx="243.13725490196077" cy="378.43137254901956" r="5.88235294117647" data-type="pcb_via" data-pcb-layer="top"/><circle class="pcb-hole-inner" fill="#FF26E2" cx="243.13725490196077" cy="378.43137254901956" r="1.176470588235294" data-type="pcb_via" data-pcb-layer="drill"/></g><g data-type="pcb_via" data-pcb-layer="through"><circle class="pcb-hole-outer" fill="rgb(200, 52, 52)" cx="556.8627450980392" cy="358.8235294117647" r="5.88235294117647" data-type="pcb_via" data-pcb-layer="top"/><circle class="pcb-hole-inner" fill="#FF26E2" cx="556.8627450980392" cy="358.8235294117647" r="1.176470588235294" data-type="pcb_via" data-pcb-layer="drill"/></g><g data-type="pcb_via" data-pcb-layer="through"><circle class="pcb-hole-outer" fill="rgb(200, 52, 52)" cx="576.4705882352941" cy="358.8235294117647" r="5.88235294117647" data-type="pcb_via" data-pcb-layer="top"/><circle class="pcb-hole-inner" fill="#FF26E2" cx="576.4705882352941" cy="358.8235294117647" r="1.176470588235294" data-type="pcb_via" data-pcb-layer="drill"/></g><g data-type="pcb_via" data-pcb-layer="through"><circle class="pcb-hole-outer" fill="rgb(200, 52, 52)" cx="556.8627450980392" cy="339.2156862745098" r="5.88235294117647" data-type="pcb_via" data-pcb-layer="top"/><circle class="pcb-hole-inner" fill="#FF26E2" cx="556.8627450980392" cy="339.2156862745098" r="1.176470588235294" data-type="pcb_via" data-pcb-layer="drill"/></g><g data-type="pcb_via" data-pcb-layer="through"><circle class="pcb-hole-outer" fill="rgb(200, 52, 52)" cx="537.2549019607843" cy="358.8235294117647" r="5.88235294117647" data-type="pcb_via" data-pcb-layer="top"/><circle class="pcb-hole-inner" fill="#FF26E2" cx="537.2549019607843" cy="358.8235294117647" r="1.176470588235294" data-type="pcb_via" data-pcb-layer="drill"/></g><g data-type="pcb_via" data-pcb-layer="through"><circle class="pcb-hole-outer" fill="rgb(200, 52, 52)" cx="556.8627450980392" cy="378.43137254901956" r="5.88235294117647" data-type="pcb_via" data-pcb-layer="top"/><circle class="pcb-hole-inner" fill="#FF26E2" cx="556.8627450980392" cy="378.43137254901956" r="1.176470588235294" data-type="pcb_via" data-pcb-layer="drill"/></g><g data-type="pcb_via" data-pcb-layer="through"><circle class="pcb-hole-outer" fill="rgb(200, 52, 52)" cx="243.13725490196077" cy="241.1764705882353" r="5.88235294117647" data-type="pcb_via" data-pcb-layer="top"/><circle class="pcb-hole-inner" fill="#FF26E2" cx="243.13725490196077" cy="241.1764705882353" r="1.176470588235294" data-type="pcb_via" data-pcb-layer="drill"/></g><g data-type="pcb_via" data-pcb-layer="through"><circle class="pcb-hole-outer" fill="rgb(200, 52, 52)" cx="262.74509803921563" cy="241.1764705882353" r="5.88235294117647" data-type="pcb_via" data-pcb-layer="top"/><circle class="pcb-hole-inner" fill="#FF26E2" cx="262.74509803921563" cy="241.1764705882353" r="1.176470588235294" data-type="pcb_via" data-pcb-layer="drill"/></g><g data-type="pcb_via" data-pcb-layer="through"><circle class="pcb-hole-outer" fill="rgb(200, 52, 52)" cx="243.13725490196077" cy="221.5686274509804" r="5.88235294117647" data-type="pcb_via" data-pcb-layer="top"/><circle class="pcb-hole-inner" fill="#FF26E2" cx="243.13725490196077" cy="221.5686274509804" r="1.176470588235294" data-type="pcb_via" data-pcb-layer="drill"/></g><g data-type="pcb_via" data-pcb-layer="through"><circle class="pcb-hole-outer" fill="rgb(200, 52, 52)" cx="223.52941176470588" cy="241.1764705882353" r="5.88235294117647" data-type="pcb_via" data-pcb-layer="top"/><circle class="pcb-hole-inner" fill="#FF26E2" cx="223.52941176470588" cy="241.1764705882353" r="1.176470588235294" data-type="pcb_via" data-pcb-layer="drill"/></g><g data-type="pcb_via" data-pcb-layer="through"><circle class="pcb-hole-outer" fill="rgb(200, 52, 52)" cx="243.13725490196077" cy="260.78431372549016" r="5.88235294117647" data-type="pcb_via" data-pcb-layer="top"/><circle class="pcb-hole-inner" fill="#FF26E2" cx="243.13725490196077" cy="260.78431372549016" r="1.176470588235294" data-type="pcb_via" data-pcb-layer="drill"/></g><g data-type="pcb_via" data-pcb-layer="through"><circle class="pcb-hole-outer" fill="rgb(200, 52, 52)" cx="556.8627450980392" cy="241.1764705882353" r="5.88235294117647" data-type="pcb_via" data-pcb-layer="top"/><circle class="pcb-hole-inner" fill="#FF26E2" cx="556.8627450980392" cy="241.1764705882353" r="1.176470588235294" data-type="pcb_via" data-pcb-layer="drill"/></g><g data-type="pcb_via" data-pcb-layer="through"><circle class="pcb-hole-outer" fill="rgb(200, 52, 52)" cx="576.4705882352941" cy="241.1764705882353" r="5.88235294117647" data-type="pcb_via" data-pcb-layer="top"/><circle class="pcb-hole-inner" fill="#FF26E2" cx="576.4705882352941" cy="241.1764705882353" r="1.176470588235294" data-type="pcb_via" data-pcb-layer="drill"/></g><g data-type="pcb_via" data-pcb-layer="through"><circle class="pcb-hole-outer" fill="rgb(200, 52, 52)" cx="556.8627450980392" cy="221.5686274509804" r="5.88235294117647" data-type="pcb_via" data-pcb-layer="top"/><circle class="pcb-hole-inner" fill="#FF26E2" cx="556.8627450980392" cy="221.5686274509804" r="1.176470588235294" data-type="pcb_via" data-pcb-layer="drill"/></g><g data-type="pcb_via" data-pcb-layer="through"><circle class="pcb-hole-outer" fill="rgb(200, 52, 52)" cx="537.2549019607843" cy="241.1764705882353" r="5.88235294117647" data-type="pcb_via" data-pcb-layer="top"/><circle class="pcb-hole-inner" fill="#FF26E2" cx="537.2549019607843" cy="241.1764705882353" r="1.176470588235294" data-type="pcb_via" data-pcb-layer="drill"/></g><g data-type="pcb_via" data-pcb-layer="through"><circle class="pcb-hole-outer" fill="rgb(200, 52, 52)" cx="556.8627450980392" cy="260.78431372549016" r="5.88235294117647" data-type="pcb_via" data-pcb-layer="top"/><circle class="pcb-hole-inner" fill="#FF26E2" cx="556.8627450980392" cy="260.78431372549016" r="1.176470588235294" data-type="pcb_via" data-pcb-layer="drill"/></g><g data-type="pcb_via" data-pcb-layer="through"><circle class="pcb-hole-outer" fill="rgb(200, 52, 52)" cx="86.27450980392156" cy="476.4705882352941" r="5.88235294117647" data-type="pcb_via" data-pcb-layer="top"/><circle class="pcb-hole-inner" fill="#FF26E2" cx="86.27450980392156" cy="476.4705882352941" r="1.176470588235294" data-type="pcb_via" data-pcb-layer="drill"/></g><g data-type="pcb_via" data-pcb-layer="through"><circle class="pcb-hole-outer" fill="rgb(200, 52, 52)" cx="125.49019607843137" cy="476.4705882352941" r="5.88235294117647" data-type="pcb_via" data-pcb-layer="top"/><circle class="pcb-hole-inner" fill="#FF26E2" cx="125.49019607843137" cy="476.4705882352941" r="1.176470588235294" data-type="pcb_via" data-pcb-layer="drill"/></g><g data-type="pcb_via" data-pcb-layer="through"><circle class="pcb-hole-outer" fill="rgb(200, 52, 52)" cx="164.70588235294116" cy="476.4705882352941" r="5.88235294117647" data-type="pcb_via" data-pcb-layer="top"/><circle class="pcb-hole-inner" fill="#FF26E2" cx="164.70588235294116" cy="476.4705882352941" r="1.176470588235294" data-type="pcb_via" data-pcb-layer="drill"/></g><g data-type="pcb_via" data-pcb-layer="through"><circle class="pcb-hole-outer" fill="rgb(200, 52, 52)" cx="203.92156862745097" cy="476.4705882352941" r="5.88235294117647" data-type="pcb_via" data-pcb-layer="top"/><circle class="pcb-hole-inner" fill="#FF26E2" cx="203.92156862745097" cy="476.4705882352941" r="1.176470588235294" data-type="pcb_via" data-pcb-layer="drill"/></g><g data-type="pcb_via" data-pcb-layer="through"><circle class="pcb-hole-outer" fill="rgb(200, 52, 52)" cx="243.13725490196077" cy="476.4705882352941" r="5.88235294117647" data-type="pcb_via" data-pcb-layer="top"/><circle class="pcb-hole-inner" fill="#FF26E2" cx="243.13725490196077" cy="476.4705882352941" r="1.176470588235294" data-type="pcb_via" data-pcb-layer="drill"/></g><g data-type="pcb_via" data-pcb-layer="through"><circle class="pcb-hole-outer" fill="rgb(200, 52, 52)" cx="282.35294117647055" cy="476.4705882352941" r="5.88235294117647" data-type="pcb_via" data-pcb-layer="top"/><circle class="pcb-hole-inner" fill="#FF26E2" cx="282.35294117647055" cy="476.4705882352941" r="1.176470588235294" data-type="pcb_via" data-pcb-layer="drill"/></g><g data-type="pcb_via" data-pcb-layer="through"><circle class="pcb-hole-outer" fill="rgb(200, 52, 52)" cx="321.56862745098033" cy="476.4705882352941" r="5.88235294117647" data-type="pcb_via" data-pcb-layer="top"/><circle class="pcb-hole-inner" fill="#FF26E2" cx="321.56862745098033" cy="476.4705882352941" r="1.176470588235294" data-type="pcb_via" data-pcb-layer="drill"/></g><g data-type="pcb_via" data-pcb-layer="through"><circle class="pcb-hole-outer" fill="rgb(200, 52, 52)" cx="360.78431372549016" cy="476.4705882352941" r="5.88235294117647" data-type="pcb_via" data-pcb-layer="top"/><circle class="pcb-hole-inner" fill="#FF26E2" cx="360.78431372549016" cy="476.4705882352941" r="1.176470588235294" data-type="pcb_via" data-pcb-layer="drill"/></g><g data-type="pcb_via" data-pcb-layer="through"><circle class="pcb-hole-outer" fill="rgb(200, 52, 52)" cx="399.99999999999994" cy="476.4705882352941" r="5.88235294117647" data-type="pcb_via" data-pcb-layer="top"/><circle class="pcb-hole-inner" fill="#FF26E2" cx="399.99999999999994" cy="476.4705882352941" r="1.176470588235294" data-type="pcb_via" data-pcb-layer="drill"/></g><g data-type="pcb_via" data-pcb-layer="through"><circle class="pcb-hole-outer" fill="rgb(200, 52, 52)" cx="439.2156862745098" cy="476.4705882352941" r="5.88235294117647" data-type="pcb_via" data-pcb-layer="top"/><circle class="pcb-hole-inner" fill="#FF26E2" cx="439.2156862745098" cy="476.4705882352941" r="1.176470588235294" data-type="pcb_via" data-pcb-layer="drill"/></g><g data-type="pcb_via" data-pcb-layer="through"><circle class="pcb-hole-outer" fill="rgb(200, 52, 52)" cx="478.43137254901956" cy="476.4705882352941" r="5.88235294117647" data-type="pcb_via" data-pcb-layer="top"/><circle class="pcb-hole-inner" fill="#FF26E2" cx="478.43137254901956" cy="476.4705882352941" r="1.176470588235294" data-type="pcb_via" data-pcb-layer="drill"/></g><g data-type="pcb_via" data-pcb-layer="through"><circle class="pcb-hole-outer" fill="rgb(200, 52, 52)" cx="517.6470588235294" cy="476.4705882352941" r="5.88235294117647" data-type="pcb_via" data-pcb-layer="top"/><circle class="pcb-hole-inner" fill="#FF26E2" cx="517.6470588235294" cy="476.4705882352941" r="1.176470588235294" data-type="pcb_via" data-pcb-layer="drill"/></g><g data-type="pcb_via" data-pcb-layer="through"><circle class="pcb-hole-outer" fill="rgb(200, 52, 52)" cx="556.8627450980392" cy="476.4705882352941" r="5.88235294117647" data-type="pcb_via" data-pcb-layer="top"/><circle class="pcb-hole-inner" fill="#FF26E2" cx="556.8627450980392" cy="476.4705882352941" r="1.176470588235294" data-type="pcb_via" data-pcb-layer="drill"/></g><g data-type="pcb_via" data-pcb-layer="through"><circle class="pcb-hole-outer" fill="rgb(200, 52, 52)" cx="596.0784313725491" cy="476.4705882352941" r="5.88235294117647" data-type="pcb_via" data-pcb-layer="top"/><circle class="pcb-hole-inner" fill="#FF26E2" cx="596.0784313725491" cy="476.4705882352941" r="1.176470588235294" data-type="pcb_via" data-pcb-layer="drill"/></g><g data-type="pcb_via" data-pcb-layer="through"><circle class="pcb-hole-outer" fill="rgb(200, 52, 52)" cx="635.2941176470588" cy="476.4705882352941" r="5.88235294117647" data-type="pcb_via" data-pcb-layer="top"/><circle class="pcb-hole-inner" fill="#FF26E2" cx="635.2941176470588" cy="476.4705882352941" r="1.176470588235294" data-type="pcb_via" data-pcb-layer="drill"/></g><g data-type="pcb_via" data-pcb-layer="through"><circle class="pcb-hole-outer" fill="rgb(200, 52, 52)" cx="674.5098039215686" cy="476.4705882352941" r="5.88235294117647" data-type="pcb_via" data-pcb-layer="top"/><circle class="pcb-hole-inner" fill="#FF26E2" cx="674.5098039215686" cy="476.4705882352941" r="1.176470588235294" data-type="pcb_via" data-pcb-layer="drill"/></g><g data-type="pcb_via" data-pcb-layer="through"><circle class="pcb-hole-outer" fill="rgb(200, 52, 52)" cx="713.7254901960785" cy="476.4705882352941" r="5.88235294117647" data-type="pcb_via" data-pcb-layer="top"/><circle class="pcb-hole-inner" fill="#FF26E2" cx="713.7254901960785" cy="476.4705882352941" r="1.176470588235294" data-type="pcb_via" data-pcb-layer="drill"/></g><g data-type="pcb_via" data-pcb-layer="through"><circle class="pcb-hole-outer" fill="rgb(200, 52, 52)" cx="86.27450980392156" cy="123.52941176470586" r="5.88235294117647" data-type="pcb_via" data-pcb-layer="top"/><circle class="pcb-hole-inner" fill="#FF26E2" cx="86.27450980392156" cy="123.52941176470586" r="1.176470588235294" data-type="pcb_via" data-pcb-layer="drill"/></g><g data-type="pcb_via" data-pcb-layer="through"><circle class="pcb-hole-outer" fill="rgb(200, 52, 52)" cx="125.49019607843137" cy="123.52941176470586" r="5.88235294117647" data-type="pcb_via" data-pcb-layer="top"/><circle class="pcb-hole-inner" fill="#FF26E2" cx="125.49019607843137" cy="123.52941176470586" r="1.176470588235294" data-type="pcb_via" data-pcb-layer="drill"/></g><g data-type="pcb_via" data-pcb-layer="through"><circle class="pcb-hole-outer" fill="rgb(200, 52, 52)" cx="164.70588235294116" cy="123.52941176470586" r="5.88235294117647" data-type="pcb_via" data-pcb-layer="top"/><circle class="pcb-hole-inner" fill="#FF26E2" cx="164.70588235294116" cy="123.52941176470586" r="1.176470588235294" data-type="pcb_via" data-pcb-layer="drill"/></g><g data-type="pcb_via" data-pcb-layer="through"><circle class="pcb-hole-outer" fill="rgb(200, 52, 52)" cx="203.92156862745097" cy="123.52941176470586" r="5.88235294117647" data-type="pcb_via" data-pcb-layer="top"/><circle class="pcb-hole-inner" fill="#FF26E2" cx="203.92156862745097" cy="123.52941176470586" r="1.176470588235294" data-type="pcb_via" data-pcb-layer="drill"/></g><g data-type="pcb_via" data-pcb-layer="through"><circle class="pcb-hole-outer" fill="rgb(200, 52, 52)" cx="243.13725490196077" cy="123.52941176470586" r="5.88235294117647" data-type="pcb_via" data-pcb-layer="top"/><circle class="pcb-hole-inner" fill="#FF26E2" cx="243.13725490196077" cy="123.52941176470586" r="1.176470588235294" data-type="pcb_via" data-pcb-layer="drill"/></g><g data-type="pcb_via" data-pcb-layer="through"><circle class="pcb-hole-outer" fill="rgb(200, 52, 52)" cx="282.35294117647055" cy="123.52941176470586" r="5.88235294117647" data-type="pcb_via" data-pcb-layer="top"/><circle class="pcb-hole-inner" fill="#FF26E2" cx="282.35294117647055" cy="123.52941176470586" r="1.176470588235294" data-type="pcb_via" data-pcb-layer="drill"/></g><g data-type="pcb_via" data-pcb-layer="through"><circle class="pcb-hole-outer" fill="rgb(200, 52, 52)" cx="321.56862745098033" cy="123.52941176470586" r="5.88235294117647" data-type="pcb_via" data-pcb-layer="top"/><circle class="pcb-hole-inner" fill="#FF26E2" cx="321.56862745098033" cy="123.52941176470586" r="1.176470588235294" data-type="pcb_via" data-pcb-layer="drill"/></g><g data-type="pcb_via" data-pcb-layer="through"><circle class="pcb-hole-outer" fill="rgb(200, 52, 52)" cx="360.78431372549016" cy="123.52941176470586" r="5.88235294117647" data-type="pcb_via" data-pcb-layer="top"/><circle class="pcb-hole-inner" fill="#FF26E2" cx="360.78431372549016" cy="123.52941176470586" r="1.176470588235294" data-type="pcb_via" data-pcb-layer="drill"/></g><g data-type="pcb_via" data-pcb-layer="through"><circle class="pcb-hole-outer" fill="rgb(200, 52, 52)" cx="399.99999999999994" cy="123.52941176470586" r="5.88235294117647" data-type="pcb_via" data-pcb-layer="top"/><circle class="pcb-hole-inner" fill="#FF26E2" cx="399.99999999999994" cy="123.52941176470586" r="1.176470588235294" data-type="pcb_via" data-pcb-layer="drill"/></g><g data-type="pcb_via" data-pcb-layer="through"><circle class="pcb-hole-outer" fill="rgb(200, 52, 52)" cx="439.2156862745098" cy="123.52941176470586" r="5.88235294117647" data-type="pcb_via" data-pcb-layer="top"/><circle class="pcb-hole-inner" fill="#FF26E2" cx="439.2156862745098" cy="123.52941176470586" r="1.176470588235294" data-type="pcb_via" data-pcb-layer="drill"/></g><g data-type="pcb_via" data-pcb-layer="through"><circle class="pcb-hole-outer" fill="rgb(200, 52, 52)" cx="478.43137254901956" cy="123.52941176470586" r="5.88235294117647" data-type="pcb_via" data-pcb-layer="top"/><circle class="pcb-hole-inner" fill="#FF26E2" cx="478.43137254901956" cy="123.52941176470586" r="1.176470588235294" data-type="pcb_via" data-pcb-layer="drill"/></g><g data-type="pcb_via" data-pcb-layer="through"><circle class="pcb-hole-outer" fill="rgb(200, 52, 52)" cx="517.6470588235294" cy="123.52941176470586" r="5.88235294117647" data-type="pcb_via" data-pcb-layer="top"/><circle class="pcb-hole-inner" fill="#FF26E2" cx="517.6470588235294" cy="123.52941176470586" r="1.176470588235294" data-type="pcb_via" data-pcb-layer="drill"/></g><g data-type="pcb_via" data-pcb-layer="through"><circle class="pcb-hole-outer" fill="rgb(200, 52, 52)" cx="556.8627450980392" cy="123.52941176470586" r="5.88235294117647" data-type="pcb_via" data-pcb-layer="top"/><circle class="pcb-hole-inner" fill="#FF26E2" cx="556.8627450980392" cy="123.52941176470586" r="1.176470588235294" data-type="pcb_via" data-pcb-layer="drill"/></g><g data-type="pcb_via" data-pcb-layer="through"><circle class="pcb-hole-outer" fill="rgb(200, 52, 52)" cx="596.0784313725491" cy="123.52941176470586" r="5.88235294117647" data-type="pcb_via" data-pcb-layer="top"/><circle class="pcb-hole-inner" fill="#FF26E2" cx="596.0784313725491" cy="123.52941176470586" r="1.176470588235294" data-type="pcb_via" data-pcb-layer="drill"/></g><g data-type="pcb_via" data-pcb-layer="through"><circle class="pcb-hole-outer" fill="rgb(200, 52, 52)" cx="635.2941176470588" cy="123.52941176470586" r="5.88235294117647" data-type="pcb_via" data-pcb-layer="top"/><circle class="pcb-hole-inner" fill="#FF26E2" cx="635.2941176470588" cy="123.52941176470586" r="1.176470588235294" data-type="pcb_via" data-pcb-layer="drill"/></g><g data-type="pcb_via" data-pcb-layer="through"><circle class="pcb-hole-outer" fill="rgb(200, 52, 52)" cx="674.5098039215686" cy="123.52941176470586" r="5.88235294117647" data-type="pcb_via" data-pcb-layer="top"/><circle class="pcb-hole-inner" fill="#FF26E2" cx="674.5098039215686" cy="123.52941176470586" r="1.176470588235294" data-type="pcb_via" data-pcb-layer="drill"/></g><g data-type="pcb_via" data-pcb-layer="through"><circle class="pcb-hole-outer" fill="rgb(200, 52, 52)" cx="713.7254901960785" cy="123.52941176470586" r="5.88235294117647" data-type="pcb_via" data-pcb-layer="top"/><circle class="pcb-hole-inner" fill="#FF26E2" cx="713.7254901960785" cy="123.52941176470586" r="1.176470588235294" data-type="pcb_via" data-pcb-layer="drill"/></g><g data-type="pcb_via" data-pcb-layer="through"><circle class="pcb-hole-outer" fill="rgb(200, 52, 52)" cx="86.27450980392156" cy="437.2549019607843" r="5.88235294117647" data-type="pcb_via" data-pcb-layer="top"/><circle class="pcb-hole-inner" fill="#FF26E2" cx="86.27450980392156" cy="437.2549019607843" r="1.176470588235294" data-type="pcb_via" data-pcb-layer="drill"/></g><g data-type="pcb_via" data-pcb-layer="through"><circle class="pcb-hole-outer" fill="rgb(200, 52, 52)" cx="713.7254901960785" cy="437.2549019607843" r="5.88235294117647" data-type="pcb_via" data-pcb-layer="top"/><circle class="pcb-hole-inner" fill="#FF26E2" cx="713.7254901960785" cy="437.2549019607843" r="1.176470588235294" data-type="pcb_via" data-pcb-layer="drill"/></g><g data-type="pcb_via" data-pcb-layer="through"><circle class="pcb-hole-outer" fill="rgb(200, 52, 52)" cx="86.27450980392156" cy="398.0392156862745" r="5.88235294117647" data-type="pcb_via" data-pcb-layer="top"/><circle class="pcb-hole-inner" fill="#FF26E2" cx="86.27450980392156" cy="398.0392156862745" r="1.176470588235294" data-type="pcb_via" data-pcb-layer="drill"/></g><g data-type="pcb_via" data-pcb-layer="through"><circle class="pcb-hole-outer" fill="rgb(200, 52, 52)" cx="713.7254901960785" cy="398.0392156862745" r="5.88235294117647" data-type="pcb_via" data-pcb-layer="top"/><circle class="pcb-hole-inner" fill="#FF26E2" cx="713.7254901960785" cy="398.0392156862745" r="1.176470588235294" data-type="pcb_via" data-pcb-layer="drill"/></g><g data-type="pcb_via" data-pcb-layer="through"><circle class="pcb-hole-outer" fill="rgb(200, 52, 52)" cx="86.27450980392156" cy="358.8235294117647" r="5.88235294117647" data-type="pcb_via" data-pcb-layer="top"/><circle class="pcb-hole-inner" fill="#FF26E2" cx="86.27450980392156" cy="358.8235294117647" r="1.176470588235294" data-type="pcb_via" data-pcb-layer="drill"/></g><g data-type="pcb_via" data-pcb-layer="through"><circle class="pcb-hole-outer" fill="rgb(200, 52, 52)" cx="713.7254901960785" cy="358.8235294117647" r="5.88235294117647" data-type="pcb_via" data-pcb-layer="top"/><circle class="pcb-hole-inner" fill="#FF26E2" cx="713.7254901960785" cy="358.8235294117647" r="1.176470588235294" data-type="pcb_via" data-pcb-layer="drill"/></g><g data-type="pcb_via" data-pcb-layer="through"><circle class="pcb-hole-outer" fill="rgb(200, 52, 52)" cx="86.27450980392156" cy="319.6078431372549" r="5.88235294117647" data-type="pcb_via" data-pcb-layer="top"/><circle class="pcb-hole-inner" fill="#FF26E2" cx="86.27450980392156" cy="319.6078431372549" r="1.176470588235294" data-type="pcb_via" data-pcb-layer="drill"/></g><g data-type="pcb_via" data-pcb-layer="through"><circle class="pcb-hole-outer" fill="rgb(200, 52, 52)" cx="713.7254901960785" cy="319.6078431372549" r="5.88235294117647" data-type="pcb_via" data-pcb-layer="top"/><circle class="pcb-hole-inner" fill="#FF26E2" cx="713.7254901960785" cy="319.6078431372549" r="1.176470588235294" data-type="pcb_via" data-pcb-layer="drill"/></g><g data-type="pcb_via" data-pcb-layer="through"><circle class="pcb-hole-outer" fill="rgb(200, 52, 52)" cx="86.27450980392156" cy="280.3921568627451" r="5.88235294117647" data-type="pcb_via" data-pcb-layer="top"/><circle class="pcb-hole-inner" fill="#FF26E2" cx="86.27450980392156" cy="280.3921568627451" r="1.176470588235294" data-type="pcb_via" data-pcb-layer="drill"/></g><g data-type="pcb_via" data-pcb-layer="through"><circle class="pcb-hole-outer" fill="rgb(200, 52, 52)" cx="713.7254901960785" cy="280.3921568627451" r="5.88235294117647" data-type="pcb_via" data-pcb-layer="top"/><circle class="pcb-hole-inner" fill="#FF26E2" cx="713.7254901960785" cy="280.3921568627451" r="1.176470588235294" data-type="pcb_via" data-pcb-layer="drill"/></g><g data-type="pcb_via" data-pcb-layer="through"><circle class="pcb-hole-outer" fill="rgb(200, 52, 52)" cx="86.27450980392156" cy="241.1764705882353" r="5.88235294117647" data-type="pcb_via" data-pcb-layer="top"/><circle class="pcb-hole-inner" fill="#FF26E2" cx="86.27450980392156" cy="241.1764705882353" r="1.176470588235294" data-type="pcb_via" data-pcb-layer="drill"/></g><g data-type="pcb_via" data-pcb-layer="through"><circle class="pcb-hole-outer" fill="rgb(200, 52, 52)" cx="713.7254901960785" cy="241.1764705882353" r="5.88235294117647" data-type="pcb_via" data-pcb-layer="top"/><circle class="pcb-hole-inner" fill="#FF26E2" cx="713.7254901960785" cy="241.1764705882353" r="1.176470588235294" data-type="pcb_via" data-pcb-layer="drill"/></g><g data-type="pcb_via" data-pcb-layer="through"><circle class="pcb-hole-outer" fill="rgb(200, 52, 52)" cx="86.27450980392156" cy="201.96078431372547" r="5.88235294117647" data-type="pcb_via" data-pcb-layer="top"/><circle class="pcb-hole-inner" fill="#FF26E2" cx="86.27450980392156" cy="201.96078431372547" r="1.176470588235294" data-type="pcb_via" data-pcb-layer="drill"/></g><g data-type="pcb_via" data-pcb-layer="through"><circle class="pcb-hole-outer" fill="rgb(200, 52, 52)" cx="713.7254901960785" cy="201.96078431372547" r="5.88235294117647" data-type="pcb_via" data-pcb-layer="top"/><circle class="pcb-hole-inner" fill="#FF26E2" cx="713.7254901960785" cy="201.96078431372547" r="1.176470588235294" data-type="pcb_via" data-pcb-layer="drill"/></g><g data-type="pcb_via" data-pcb-layer="through"><circle class="pcb-hole-outer" fill="rgb(200, 52, 52)" cx="86.27450980392156" cy="162.7450980392157" r="5.88235294117647" data-type="pcb_via" data-pcb-layer="top"/><circle class="pcb-hole-inner" fill="#FF26E2" cx="86.27450980392156" cy="162.7450980392157" r="1.176470588235294" data-type="pcb_via" data-pcb-layer="drill"/></g><g data-type="pcb_via" data-pcb-layer="through"><circle class="pcb-hole-outer" fill="rgb(200, 52, 52)" cx="713.7254901960785" cy="162.7450980392157" r="5.88235294117647" data-type="pcb_via" data-pcb-layer="top"/><circle class="pcb-hole-inner" fill="#FF26E2" cx="713.7254901960785" cy="162.7450980392157" r="1.176470588235294" data-type="pcb_via" data-pcb-layer="drill"/></g><polygon class="pcb-pad" fill="rgb(200, 52, 52)" points="45.49019607843137,517.2549019607843 45.49019607843137,496.078431372549 43.67476080995,496.3098065268355 41.888805375062795,496.7094349300602 40.14788836117531,497.27383516643874 38.4671759975211,497.99809038853033 36.86131003254623,498.8758911510058 35.344280180377744,499.89959037621634 33.92930224757538,501.06026997272414 32.62870300188171,502.34781852643704 31.453812785951698,503.7510193875325 30.414866811571354,505.2576483857885 29.520915994254214,506.85458032306235 28.77974810499151,508.52790331519293 28.197819926053423,510.2630399872234 27.780201001874776,512.044874466134 27.530529475046983,513.8578840647735 27.45098039215686,515.6862745098039 27.545397516231432,517.6081792221482 27.82773959993666,519.5115749414927 28.295287534662567,521.378130926558 28.943538578210063,523.1898712228449 29.7662497186597,524.9293477809019 30.7554977979893,526.5798084905804 31.901755816416916,528.1253585130127 33.19398468261671,529.551113356599 34.61973952620302,530.8433422227987 36.16528954863524,531.9896002412263 37.81575025831376,532.9788483205559 39.55522681637078,533.8015594610056 41.3669671126576,534.449810504553 43.233523097722966,534.917358439279 45.13691881706744,535.1997005229842 47.058823529411754,535.2941176470588 48.887213974442155,535.2145685641686 50.70022357308155,534.9648970373408 52.482058051992254,534.5472781131623 54.217194724022704,533.9653499342242 55.890517716153326,533.2241820449615 57.48744965342714,532.3302312276443 58.994078651683175,531.2912852532639 60.397279512778624,530.116395037334 61.68482806649153,528.8157957916403 62.845507662999296,527.400817858838 63.869206888209874,525.8837880066694 64.7470076506853,524.2779220416945 65.47126287277692,522.5972096780404 66.03566310915548,520.8562926641529 66.4352915123802,519.0703372292656 66.66666666666666,517.2549019607843 45.49019607843137,517.2549019607843" data-type="pcb_smtpad" data-pcb-layer="top"/><polygon class="pcb-pad" fill="rgb(200, 52, 52)" points="45.49019607843137,85.88235294117646 45.49019607843137,64.70588235294116 43.67476080995,64.93725750722763 41.888805375062795,65.33688591045234 40.14788836117531,65.9012861468309 38.4671759975211,66.62554136892254 36.86131003254623,67.50334213139797 35.344280180377744,68.52704135660855 33.92930224757538,69.68772095311635 32.62870300188171,70.97526950682919 31.453812785951698,72.37847036792465 30.414866811571354,73.88509936618073 29.520915994254214,75.4820313034545 28.77974810499151,77.15535429558514 28.197819926053423,78.89049096761562 27.780201001874776,80.67232544652632 27.530529475046983,82.48533504516564 27.45098039215686,84.31372549019608 27.545397516231432,86.23563020254039 27.82773959993666,88.13902592188487 28.295287534662567,90.00558190695023 28.943538578210063,91.81732220323704 29.7662497186597,93.55679876129403 30.7554977979893,95.20725947097259 31.901755816416916,96.75280949340481 33.19398468261671,98.17856433699114 34.61973952620302,99.47079320319091 36.16528954863524,100.61705122161851 37.81575025831376,101.60629930094814 39.55522681637078,102.42901044139779 41.3669671126576,103.07726148494521 43.233523097722966,103.5448094196712 45.13691881706744,103.82715150337646 47.058823529411754,103.921568627451 48.887213974442155,103.84201954456086 50.70022357308155,103.59234801773306 52.482058051992254,103.17472909355439 54.217194724022704,102.59280091461636 55.890517716153326,101.85163302535364 57.48744965342714,100.95768220803649 58.994078651683175,99.91873623365615 60.397279512778624,98.74384601772613 61.68482806649153,97.44324677203247 62.845507662999296,96.02826883923007 63.869206888209874,94.51123898706163 64.7470076506853,92.90537302208679 65.47126287277692,91.22466065843253 66.03566310915548,89.48374364454509 66.4352915123802,87.69778820965786 66.66666666666666,85.88235294117646 45.49019607843137,85.88235294117646" data-type="pcb_smtpad" data-pcb-layer="top"/><polygon class="pcb-pad" fill="rgb(200, 52, 52)" points="751.3725490196078,85.88235294117646 751.3725490196078,64.70588235294116 749.5571137511265,64.93725750722763 747.7711583162393,65.33688591045234 746.0302413023518,65.9012861468309 744.3495289386975,66.62554136892254 742.7436629737227,67.50334213139797 741.2266331215542,68.52704135660855 739.8116551887518,69.68772095311635 738.5110559430582,70.97526950682919 737.3361657271281,72.37847036792465 736.2972197527478,73.88509936618073 735.4032689354307,75.4820313034545 734.662101046168,77.15535429558514 734.0801728672299,78.89049096761562 733.6625539430513,80.67232544652632 733.4128824162235,82.48533504516564 733.3333333333334,84.31372549019608 733.4277504574079,86.23563020254039 733.7100925411132,88.13902592188487 734.1776404758391,90.00558190695023 734.8258915193866,91.81732220323704 735.6486026598362,93.55679876129403 736.6378507391657,95.20725947097259 737.7841087575935,96.75280949340481 739.0763376237932,98.17856433699114 740.5020924673795,99.47079320319091 742.0476424898117,100.61705122161851 743.6981031994902,101.60629930094814 745.4375797575472,102.42901044139779 747.249320053834,103.07726148494521 749.1158760388994,103.5448094196712 751.0192717582439,103.82715150337646 752.9411764705883,103.921568627451 754.7695669156186,103.84201954456086 756.5825765142581,103.59234801773306 758.3644109931687,103.17472909355439 760.0995476651992,102.59280091461636 761.7728706573298,101.85163302535364 763.3698025946036,100.95768220803649 764.8764315928597,99.91873623365615 766.2796324539551,98.74384601772613 767.5671810076681,97.44324677203247 768.7278606041757,96.02826883923007 769.7515598293863,94.51123898706163 770.6293605918618,92.90537302208679 771.3536158139533,91.22466065843253 771.918016050332,89.48374364454509 772.3176444535567,87.69778820965786 772.5490196078431,85.88235294117646 751.3725490196078,85.88235294117646" data-type="pcb_smtpad" data-pcb-layer="top"/><polygon class="pcb-pad" fill="rgb(200, 52, 52)" points="751.3725490196078,517.2549019607843 751.3725490196078,496.078431372549 749.5571137511265,496.3098065268355 747.7711583162393,496.7094349300602 746.0302413023518,497.27383516643874 744.3495289386975,497.99809038853033 742.7436629737227,498.8758911510058 741.2266331215542,499.89959037621634 739.8116551887518,501.06026997272414 738.5110559430582,502.34781852643704 737.3361657271281,503.7510193875325 736.2972197527478,505.2576483857885 735.4032689354307,506.85458032306235 734.662101046168,508.52790331519293 734.0801728672299,510.2630399872234 733.6625539430513,512.044874466134 733.4128824162235,513.8578840647735 733.3333333333334,515.6862745098039 733.4277504574079,517.6081792221482 733.7100925411132,519.5115749414927 734.1776404758391,521.378130926558 734.8258915193866,523.1898712228449 735.6486026598362,524.9293477809019 736.6378507391657,526.5798084905804 737.7841087575935,528.1253585130127 739.0763376237932,529.551113356599 740.5020924673795,530.8433422227987 742.0476424898117,531.9896002412263 743.6981031994902,532.9788483205559 745.4375797575472,533.8015594610056 747.249320053834,534.449810504553 749.1158760388994,534.917358439279 751.0192717582439,535.1997005229842 752.9411764705883,535.2941176470588 754.7695669156186,535.2145685641686 756.5825765142581,534.9648970373408 758.3644109931687,534.5472781131623 760.0995476651992,533.9653499342242 761.7728706573298,533.2241820449615 763.3698025946036,532.3302312276443 764.8764315928597,531.2912852532639 766.2796324539551,530.116395037334 767.5671810076681,528.8157957916403 768.7278606041757,527.400817858838 769.7515598293863,525.8837880066694 770.6293605918618,524.2779220416945 771.3536158139533,522.5972096780404 771.918016050332,520.8562926641529 772.3176444535567,519.0703372292656 772.5490196078431,517.2549019607843 751.3725490196078,517.2549019607843" data-type="pcb_smtpad" data-pcb-layer="top"/><rect class="pcb-pad" fill="rgb(200, 52, 52)" x="243.13725490196074" y="52.94117647058822" width="313.7254901960784" height="23.52941176470588" data-type="pcb_smtpad" data-pcb-layer="top" rx="3.9215686274509802" ry="3.9215686274509802"/><text x="0" y="0" dx="0" dy="0" fill="#f2eda1" font-family="Arial, sans-serif" font-size="11.76470588235294" text-anchor="middle" dominant-baseline="central" transform="matrix(1,0,0,1,399.99999999999994,535.2941176470588)" class="pcb-silkscreen-text pcb-silkscreen-top" data-pcb-silkscreen-text-id="null" stroke="none" data-type="pcb_silkscreen_text" data-pcb-layer="top">VIAGRID TOP</text><rect x="47.05882352941176" y="84.31372549019608" width="705.8823529411766" height="431.3725490196078" class="pcb-note-rect" data-type="pcb_note_rect" data-pcb-note-rect-id="pcb_note_rect_0" data-pcb-layer="overlay" fill="none" stroke="blue" stroke-width="2.352941176470588"/></svg>