<svg xmlns="http://www.w3.org/2000/svg" width="800" height="600" data-software-used-string="@tscircuit/core@0.0.843"><style></style><rect class="boundary" x="0" y="0" fill="#000" width="800" height="600" data-type="pcb_background" data-pcb-layer="global"/><rect class="pcb-boundary" fill="none" stroke="#fff" stroke-width="0.3" x="7.8431372549019605" y="45.0980392156863" width="784.313725490196" height="509.8039215686274" data-type="pcb_boundary" data-pcb-layer="global"/><path class="pcb-board" d="M 7.8431372549019605 554.9019607843137 L 792.156862745098 554.9019607843137 L 792.156862745098 45.0980392156863 L 7.8431372549019605 45.0980392156863 Z" fill="none" stroke="rgba(255, 255, 255, 0.5)" stroke-width="0.7843137254901961" data-type="pcb_board" data-pcb-layer="board"/><g data-type="pcb_via" data-pcb-layer="through"><circle class="pcb-hole-outer" fill="rgb(200, 52, 52)" cx="243.13725490196077" cy="358.8235294117647" r="5.88235294117647" data-type="pcb_via" data-pcb-layer="top"/><circle class="pcb-hole-inner" fill="#FF26E2" cx="243.13725490196077" cy="358.8235294117647" r="1.176470588235294" data-type="pcb_via" data-pcb-layer="drill"/></g><g data-type="pcb_via" data-pcb-layer="through"><circle class="pcb-hole-outer" fill="rgb(200, 52, 52)" cx="262.74509803921563" cy="358.8235294117647" r="5.88235294117647" data-type="pcb_via" data-pcb-layer="top"/><circle class="pcb-hole-inner" fill="#FF26E2" cx="262.74509803921563" cy="358.8235294117647" r="1.176470588235294" data-type="pcb_via" data-pcb-layer="drill"/></g><g data-type="pcb_via" data-pcb-layer="through"><circle class="pcb-hole-outer" fill="rgb(200, 52, 52)" cx="243.13725490196077" cy="339.2156862745098" r="5.88235294117647" data-type="pcb_via" data-pcb-layer="top"/><circle class="pcb-hole-inner" fill="#FF26E2" cx="243.13725490196077" cy="339.2156862745098" r="1.176470588235294" data-type="pcb_via" data-pcb-layer="drill"/></g><g data-type="pcb_via" data-pcb-layer="through"><circle class="pcb-hole-outer" fill="rgb(200, 52, 52)" cx="223.52941176470588" cy="358.8235294117647" r="5.88235294117647" data-type="pcb_via" data-pcb-layer="top"/><circle class="pcb-hole-inner" fill="#FF26E2" cx="223.52941176470588" cy="358.8235294117647" r="1.176470588235294" data-type="pcb_via" data-pcb-layer="drill"/></g><g data-type="pcb_via" data-pcb-layer="through"><circle class="pcb-hole-outer" fill="rgb(200, 52, 52)" cx="243.13725490196077" cy="378.43137254901956" r="5.88235294117647" data-type="pcb_via" data-pcb-layer="top"/><circle class="pcb-hole-inner" fill="#FF26E2" cx="243.13725490196077" cy="378.43137254901956" r="1.176470588235294" data-type="pcb_via" data-pcb-layer="drill"/></g><g data-type="pcb_via" data-pcb-layer="through"><circle class="pcb-hole-outer" fill="rgb(200, 52, 52)" cx="556.8627450980392" cy="358.8235294117647" r="5.88235294117647" data-type="pcb_via" data-pcb-layer="top"/><circle class="pcb-hole-inner" fill="#FF26E2" cx="556.8627450980392" cy="358.8235294117647" r="1.176470588235294" data-type="pcb_via" data-pcb-layer="drill"/></g><g data-type="pcb_via" data-pcb-layer="through"><circle class="pcb-hole-outer" fill="rgb(200, 52, 52)" cx="576.4705882352941" cy="358.8235294117647" r="5.88235294117647" data-type="pcb_via" data-pcb-layer="top"/><circle class="pcb-hole-inner" fill="#FF26E2" cx="576.4705882352941" cy="358.8235294117647" r="1.176470588235294" data-type="pcb_via" data-pcb-layer="drill"/></g><g data-type="pcb_via" data-pcb-layer="through"><circle class="pcb-hole-outer" fill="rgb(200, 52, 52)" cx="556.8627450980392" cy="339.2156862745098" r="5.88235294117647" data-type="pcb_via" data-pcb-layer="top"/><circle class="pcb-hole-inner" fill="#FF26E2" cx="556.8627450980392" cy="339.2156862745098" r="1.176470588235294" data-type="pcb_via" data-pcb-layer="drill"/></g><g data-type="pcb_via" data-pcb-layer="through"><circle class="pcb-hole-outer" fill="rgb(200, 52, 52)" cx="537.2549019607843" cy="358.8235294117647" r="5.88235294117647" data-type="pcb_via" data-pcb-layer="top"/><circle class="pcb-hole-inner" fill="#FF26E2" cx="537.2549019607843" cy="358.8235294117647" r="1.176470588235294" data-type="pcb_via" data-pcb-layer="drill"/></g><g data-type="pcb_via" data-pcb-layer="through"><circle class="pcb-hole-outer" fill="rgb(200, 52, 52)" cx="556.8627450980392" cy="378.43137254901956" r="5.88235294117647" data-type="pcb_via" data-pcb-layer="top"/><circle class="pcb-hole-inner" fill="#FF26E2" cx="556.8627450980392" cy="378.43137254901956" r="1.176470588235294" data-type="pcb_via" data-pcb-layer="drill"/></g><g data-type="pcb_via" data-pcb-layer="through"><circle class="pcb-hole-outer" fill="rgb(200, 52, 52)" cx="243.13725490196077" cy="241.1764705882353" r="5.88235294117647" data-type="pcb_via" data-pcb-layer="top"/><circle class="pcb-hole-inner" fill="#FF26E2" cx="243.13725490196077" cy="241.1764705882353" r="1.176470588235294" data-type="pcb_via" data-pcb-layer="drill"/></g><g data-type="pcb_via" data-pcb-layer="through"><circle class="pcb-hole-outer" fill="rgb(200, 52, 52)" cx="262.74509803921563" cy="241.1764705882353" r="5.88235294117647" data-type="pcb_via" data-pcb-layer="top"/><circle class="pcb-hole-inner" fill="#FF26E2" cx="262.74509803921563" cy="241.1764705882353" r="1.176470588235294" data-type="pcb_via" data-pcb-layer="drill"/></g><g data-type="pcb_via" data-pcb-layer="through"><circle class="pcb-hole-outer" fill="rgb(200, 52, 52)" cx="243.13725490196077" cy="221.5686274509804" r="5.88235294117647" data-type="pcb_via" data-pcb-layer="top"/><circle class="pcb-hole-inner" fill="#FF26E2" cx="243.13725490196077" cy="221.5686274509804" r="1.176470588235294" data-type="pcb_via" data-pcb-layer="drill"/></g><g data-type="pcb_via" data-pcb-layer="through"><circle class="pcb-hole-outer" fill="rgb(200, 52, 52)" cx="223.52941176470588" cy="241.1764705882353" r="5.88235294117647" data-type="pcb_via" data-pcb-layer="top"/><circle class="pcb-hole-inner" fill="#FF26E2" cx="223.52941176470588" cy="241.1764705882353" r="1.176470588235294" data-type="pcb_via" data-pcb-layer="drill"/></g><g data-type="pcb_via" data-pcb-layer="through"><circle class="pcb-hole-outer" fill="rgb(200, 52, 52)" cx="243.13725490196077" cy="260.78431372549016" r="5.88235294117647" data-type="pcb_via" data-pcb-layer="top"/><circle class="pcb-hole-inner" fill="#FF26E2" cx="243.13725490196077" cy="260.78431372549016" r="1.176470588235294" data-type="pcb_via" data-pcb-layer="drill"/></g><g data-type="pcb_via" data-pcb-layer="through"><circle class="pcb-hole-outer" fill="rgb(200, 52, 52)" cx="556.8627450980392" cy="241.1764705882353" r="5.88235294117647" data-type="pcb_via" data-pcb-layer="top"/><circle class="pcb-hole-inner" fill="#FF26E2" cx="556.8627450980392" cy="241.1764705882353" r="1.176470588235294" data-type="pcb_via" data-pcb-layer="drill"/></g><g data-type="pcb_via" data-pcb-layer="through"><circle class="pcb-hole-outer" fill="rgb(200, 52, 52)" cx="576.4705882352941" cy="241.1764705882353" r="5.88235294117647" data-type="pcb_via" data-pcb-layer="top"/><circle class="pcb-hole-inner" fill="#FF26E2" cx="576.4705882352941" cy="241.1764705882353" r="1.176470588235294" data-type="pcb_via" data-pcb-layer="drill"/></g><g data-type="pcb_via" data-pcb-layer="through"><circle class="pcb-hole-outer" fill="rgb(200, 52, 52)" cx="556.8627450980392" cy="221.5686274509804" r="5.88235294117647" data-type="pcb_via" data-pcb-layer="top"/><circle class="pcb-hole-inner" fill="#FF26E2" cx="556.8627450980392" cy="221.5686274509804" r="1.176470588235294" data-type="pcb_via" data-pcb-layer="drill"/></g><g data-type="pcb_via" data-pcb-layer="through"><circle class="pcb-hole-outer" fill="rgb(200, 52, 52)" cx="537.2549019607843" cy="241.1764705882353" r="5.88235294117647" data-type="pcb_via" data-pcb-layer="top"/><circle class="pcb-hole-inner" fill="#FF26E2" cx="537.2549019607843" cy="241.1764705882353" r="1.176470588235294" data-type="pcb_via" data-pcb-layer="drill"/></g><g data-type="pcb_via" data-pcb-layer="through"><circle class="pcb-hole-outer" fill="rgb(200, 52, 52)" cx="556.8627450980392" cy="260.78431372549016" r="5.88235294117647" data-type="pcb_via" data-pcb-layer="top"/><circle class="pcb-hole-inner" fill="#FF26E2" cx="556.8627450980392" cy="260.78431372549016" r="1.176470588235294" data-type="pcb_via" data-pcb-layer="drill"/></g><g data-type="pcb_via" data-pcb-layer="through"><circle class="pcb-hole-outer" fill="rgb(200, 52, 52)" cx="86.27450980392156" cy="476.4705882352941" r="5.88235294117647" data-type="pcb_via" data-pcb-layer="top"/><circle class="pcb-hole-inner" fill="#FF26E2" cx="86.27450980392156" cy="476.4705882352941" r="1.176470588235294" data-type="pcb_via" data-pcb-layer="drill"/></g><g data-type="pcb_via" data-pcb-layer="through"><circle class="pcb-hole-outer" fill="rgb(200, 52, 52)" cx="125.49019607843137" cy="476.4705882352941" r="5.88235294117647" data-type="pcb_via" data-pcb-layer="top"/><circle class="pcb-hole-inner" fill="#FF26E2" cx="125.49019607843137" cy="476.4705882352941" r="1.176470588235294" data-type="pcb_via" data-pcb-layer="drill"/></g><g data-type="pcb_via" data-pcb-layer="through"><circle class="pcb-hole-outer" fill="rgb(200, 52, 52)" cx="164.70588235294116" cy="476.4705882352941" r="5.88235294117647" data-type="pcb_via" data-pcb-layer="top"/><circle class="pcb-hole-inner" fill="#FF26E2" cx="164.70588235294116" cy="476.4705882352941" r="1.176470588235294" data-type="pcb_via" data-pcb-layer="drill"/></g><g data-type="pcb_via" data-pcb-layer="through"><circle class="pcb-hole-outer" fill="rgb(200, 52, 52)" cx="203.92156862745097" cy="476.4705882352941" r="5.88235294117647" data-type="pcb_via" data-pcb-layer="top"/><circle class="pcb-hole-inner" fill="#FF26E2" cx="203.92156862745097" cy="476.4705882352941" r="1.176470588235294" data-type="pcb_via" data-pcb-layer="drill"/></g><g data-type="pcb_via" data-pcb-layer="through"><circle class="pcb-hole-outer" fill="rgb(200, 52, 52)" cx="243.13725490196077" cy="476.4705882352941" r="5.88235294117647" data-type="pcb_via" data-pcb-layer="top"/><circle class="pcb-hole-inner" fill="#FF26E2" cx="243.13725490196077" cy="476.4705882352941" r="1.176470588235294" data-type="pcb_via" data-pcb-layer="drill"/></g><g data-type="pcb_via" data-pcb-layer="through"><circle class="pcb-hole-outer" fill="rgb(200, 52, 52)" cx="282.35294117647055" cy="476.4705882352941" r="5.88235294117647" data-type="pcb_via" data-pcb-layer="top"/><circle class="pcb-hole-inner" fill="#FF26E2" cx="282.35294117647055" cy="476.4705882352941" r="1.176470588235294" data-type="pcb_via" data-pcb-layer="drill"/></g><g data-type="pcb_via" data-pcb-layer="through"><circle class="pcb-hole-outer" fill="rgb(200, 52, 52)" cx="321.56862745098033" cy="476.4705882352941" r="5.88235294117647" data-type="pcb_via" data-pcb-layer="top"/><circle class="pcb-hole-inner" fill="#FF26E2" cx="321.56862745098033" cy="476.4705882352941" r="1.176470588235294" data-type="pcb_via" data-pcb-layer="drill"/></g><g data-type="pcb_via" data-pcb-layer="through"><circle class="pcb-hole-outer" fill="rgb(200, 52, 52)" cx="360.78431372549016" cy="476.4705882352941" r="5.88235294117647" data-type="pcb_via" data-pcb-layer="top"/><circle class="pcb-hole-inner" fill="#FF26E2" cx="360.78431372549016" cy="476.4705882352941" r="1.176470588235294" data-type="pcb_via" data-pcb-layer="drill"/></g><g data-type="pcb_via" data-pcb-layer="through"><circle class="pcb-hole-outer" fill="rgb(200, 52, 52)" cx="399.99999999999994" cy="476.4705882352941" r="5.88235294117647" data-type="pcb_via" data-pcb-layer="top"/><circle class="pcb-hole-inner" fill="#FF26E2" cx="399.99999999999994" cy="476.4705882352941" r="1.176470588235294" data-type="pcb_via" data-pcb-layer="drill"/></g><g data-type="pcb_via" data-pcb-layer="through"><circle class="pcb-hole-outer" fill="rgb(200, 52, 52)" cx="439.2156862745098" cy="476.4705882352941" r="5.88235294117647" data-type="pcb_via" data-pcb-layer="top"/><circle class="pcb-hole-inner" fill="#FF26E2" cx="439.2156862745098" cy="476.4705882352941" r="1.176470588235294" data-type="pcb_via" data-pcb-layer="drill"/></g><g data-type="pcb_via" data-pcb-layer="through"><circle class="pcb-hole-outer" fill="rgb(200, 52, 52)" cx="478.43137254901956" cy="476.4705882352941" r="5.88235294117647" data-type="pcb_via" data-pcb-layer="top"/><circle class="pcb-hole-inner" fill="#FF26E2" cx="478.43137254901956" cy="476.4705882352941" r="1.176470588235294" data-type="pcb_via" data-pcb-layer="drill"/></g><g data-type="pcb_via" data-pcb-layer="through"><circle class="pcb-hole-outer" fill="rgb(200, 52, 52)" cx="517.6470588235294" cy="476.4705882352941" r="5.88235294117647" data-type="pcb_via" data-pcb-layer="top"/><circle class="pcb-hole-inner" fill="#FF26E2" cx="517.6470588235294" cy="476.4705882352941" r="1.176470588235294" data-type="pcb_via" data-pcb-layer="drill"/></g><g data-type="pcb_via" data-pcb-layer="through"><circle class="pcb-hole-outer" fill="rgb(200, 52, 52)" cx="556.8627450980392" cy="476.4705882352941" r="5.88235294117647" data-type="pcb_via" data-pcb-layer="top"/><circle class="pcb-hole-inner" fill="#FF26E2" cx="556.8627450980392" cy="476.4705882352941" r="1.176470588235294" data-type="pcb_via" data-pcb-layer="drill"/></g><g data-type="pcb_via" data-pcb-layer="through"><circle class="pcb-hole-outer" fill="rgb(200, 52, 52)" cx="596.0784313725491" cy="476.4705882352941" r="5.88235294117647" data-type="pcb_via" data-pcb-layer="top"/><circle class="pcb-hole-inner" fill="#FF26E2" cx="596.0784313725491" cy="476.4705882352941" r="1.176470588235294" data-type="pcb_via" data-pcb-layer="drill"/></g><g data-type="pcb_via" data-pcb-layer="through"><circle class="pcb-hole-outer" fill="rgb(200, 52, 52)" cx="635.2941176470588" cy="476.4705882352941" r="5.88235294117647" data-type="pcb_via" data-pcb-layer="top"/><circle class="pcb-hole-inner" fill="#FF26E2" cx="635.2941176470588" cy="476.4705882352941" r="1.176470588235294" data-type="pcb_via" data-pcb-layer="drill"/></g><g data-type="pcb_via" data-pcb-layer="through"><circle class="pcb-hole-outer" fill="rgb(200, 52, 52)" cx="674.5098039215686" cy="476.4705882352941" r="5.88235294117647" data-type="pcb_via" data-pcb-layer="top"/><circle class="pcb-hole-inner" fill="#FF26E2" cx="674.5098039215686" cy="476.4705882352941" r="1.176470588235294" data-type="pcb_via" data-pcb-layer="drill"/></g><g data-type="pcb_via" data-pcb-layer="through"><circle class="pcb-hole-outer" fill="rgb(200, 52, 52)" cx="713.7254901960785" cy="476.4705882352941" r="5.88235294117647" data-type="pcb_via" data-pcb-layer="top"/><circle class="pcb-hole-inner" fill="#FF26E2" cx="713.7254901960785" cy="476.4705882352941" r="1.176470588235294" data-type="pcb_via" data-pcb-layer="drill"/></g><g data-type="pcb_via" data-pcb-layer="through"><circle class="pcb-hole-outer" fill="rgb(200, 52, 52)" cx="86.27450980392156" cy="123.52941176470586" r="5.88235294117647" data-type="pcb_via" data-pcb-layer="top"/><circle class="pcb-hole-inner" fill="#FF26E2" cx="86.27450980392156" cy="123.52941176470586" r="1.176470588235294" data-type="pcb_via" data-pcb-layer="drill"/></g><g data-type="pcb_via" data-pcb-layer="through"><circle class="pcb-hole-outer" fill="rgb(200, 52, 52)" cx="125.49019607843137" cy="123.52941176470586" r="5.88235294117647" data-type="pcb_via" data-pcb-layer="top"/><circle class="pcb-hole-inner" fill="#FF26E2" cx="125.49019607843137" cy="123.52941176470586" r="1.176470588235294" data-type="pcb_via" data-pcb-layer="drill"/></g><g data-type="pcb_via" data-pcb-layer="through"><circle class="pcb-hole-outer" fill="rgb(200, 52, 52)" cx="164.70588235294116" cy="123.52941176470586" r="5.88235294117647" data-type="pcb_via" data-pcb-layer="top"/><circle class="pcb-hole-inner" fill="#FF26E2" cx="164.70588235294116" cy="123.52941176470586" r="1.176470588235294" data-type="pcb_via" data-pcb-layer="drill"/></g><g data-type="pcb_via" data-pcb-layer="through"><circle class="pcb-hole-outer" fill="rgb(200, 52, 52)" cx="203.92156862745097" cy="123.52941176470586" r="5.88235294117647" data-type="pcb_via" data-pcb-layer="top"/><circle class="pcb-hole-inner" fill="#FF26E2" cx="203.92156862745097" cy="123.52941176470586" r="1.176470588235294" data-type="pcb_via" data-pcb-layer="drill"/></g><g data-type="pcb_via" data-pcb-layer="through"><circle class="pcb-hole-outer" fill="rgb(200, 52, 52)" cx="243.13725490196077" cy="123.52941176470586" r="5.88235294117647" data-type="pcb_via" data-pcb-layer="top"/><circle class="pcb-hole-inner" fill="#FF26E2" cx="243.13725490196077" cy="123.52941176470586" r="1.176470588235294" data-type="pcb_via" data-pcb-layer="drill"/></g><g data-type="pcb_via" data-pcb-layer="through"><circle class="pcb-hole-outer" fill="rgb(200, 52, 52)" cx="282.35294117647055" cy="123.52941176470586" r="5.88235294117647" data-type="pcb_via" data-pcb-layer="top"/><circle class="pcb-hole-inner" fill="#FF26E2" cx="282.35294117647055" cy="123.52941176470586" r="1.176470588235294" data-type="pcb_via" data-pcb-layer="drill"/></g><g data-type="pcb_via" data-pcb-layer="through"><circle class="pcb-hole-outer" fill="rgb(200, 52, 52)" cx="321.56862745098033" cy="123.52941176470586" r="5.88235294117647" data-type="pcb_via" data-pcb-layer="top"/><circle class="pcb-hole-inner" fill="#FF26E2" cx="321.56862745098033" cy="123.52941176470586" r="1.176470588235294" data-type="pcb_via" data-pcb-layer="drill"/></g><g data-type="pcb_via" data-pcb-layer="through"><circle class="pcb-hole-outer" fill="rgb(200, 52, 52)" cx="360.78431372549016" cy="123.52941176470586" r="5.88235294117647" data-type="pcb_via" data-pcb-layer="top"/><circle class="pcb-hole-inner" fill="#FF26E2" cx="360.78431372549016" cy="123.52941176470586" r="1.176470588235294" data-type="pcb_via" data-pcb-layer="drill"/></g><g data-type="pcb_via" data-pcb-layer="through"><circle class="pcb-hole-outer" fill="rgb(200, 52, 52)" cx="399.99999999999994" cy="123.52941176470586" r="5.88235294117647" data-type="pcb_via" data-pcb-layer="top"/><circle class="pcb-hole-inner" fill="#FF26E2" cx="399.99999999999994" cy="123.52941176470586" r="1.176470588235294" data-type="pcb_via" data-pcb-layer="drill"/></g><g data-type="pcb_via" data-pcb-layer="through"><circle class="pcb-hole-outer" fill="rgb(200, 52, 52)" cx="439.2156862745098" cy="123.52941176470586" r="5.88235294117647" data-type="pcb_via" data-pcb-layer="top"/><circle class="pcb-hole-inner" fill="#FF26E2" cx="439.2156862745098" cy="123.52941176470586" r="1.176470588235294" data-type="pcb_via" data-pcb-layer="drill"/></g><g data-type="pcb_via" data-pcb-layer="through"><circle class="pcb-hole-outer" fill="rgb(200, 52, 52)" cx="478.43137254901956" cy="123.52941176470586" r="5.88235294117647" data-type="pcb_via" data-pcb-layer="top"/><circle class="pcb-hole-inner" fill="#FF26E2" cx="478.43137254901956" cy="123.52941176470586" r="1.176470588235294" data-type="pcb_via" data-pcb-layer="drill"/></g><g data-type="pcb_via" data-pcb-layer="through"><circle class="pcb-hole-outer" fill="rgb(200, 52, 52)" cx="517.6470588235294" cy="123.52941176470586" r="5.88235294117647" data-type="pcb_via" data-pcb-layer="top"/><circle class="pcb-hole-inner" fill="#FF26E2" cx="517.6470588235294" cy="123.52941176470586" r="1.176470588235294" data-type="pcb_via" data-pcb-layer="drill"/></g><g data-type="pcb_via" data-pcb-layer="through"><circle class="pcb-hole-outer" fill="rgb(200, 52, 52)" cx="556.8627450980392" cy="123.52941176470586" r="5.88235294117647" data-type="pcb_via" data-pcb-layer="top"/><circle class="pcb-hole-inner" fill="#FF26E2" cx="556.8627450980392" cy="123.52941176470586" r="1.176470588235294" data-type="pcb_via" data-pcb-layer="drill"/></g><g data-type="pcb_via" data-pcb-layer="through"><circle class="pcb-hole-outer" fill="rgb(200, 52, 52)" cx="596.0784313725491" cy="123.52941176470586" r="5.88235294117647" data-type="pcb_via" data-pcb-layer="top"/><circle class="pcb-hole-inner" fill="#FF26E2" cx="596.0784313725491" cy="123.52941176470586" r="1.176470588235294" data-type="pcb_via" data-pcb-layer="drill"/></g><g data-type="pcb_via" data-pcb-layer="through"><circle class="pcb-hole-outer" fill="rgb(200, 52, 52)" cx="635.2941176470588" cy="123.52941176470586" r="5.88235294117647" data-type="pcb_via" data-pcb-layer="top"/><circle class="pcb-hole-inner" fill="#FF26E2" cx="635.2941176470588" cy="123.52941176470586" r="1.176470588235294" data-type="pcb_via" data-pcb-layer="drill"/></g><g data-type="pcb_via" data-pcb-layer="through"><circle class="pcb-hole-outer" fill="rgb(200, 52, 52)" cx="674.5098039215686" cy="123.52941176470586" r="5.88235294117647" data-type="pcb_via" data-pcb-layer="top"/><circle class="pcb-hole-inner" fill="#FF26E2" cx="674.5098039215686" cy="123.52941176470586" r="1.176470588235294" data-type="pcb_via" data-pcb-layer="drill"/></g><g data-type="pcb_via" data-pcb-layer="through"><circle class="pcb-hole-outer" fill="rgb(200, 52, 52)" cx="713.7254901960785" cy="123.52941176470586" r="5.88235294117647" data-type="pcb_via" data-pcb-layer="top"/><circle class="pcb-hole-inner" fill="#FF26E2" cx="713.7254901960785" cy="123.52941176470586" r="1.176470588235294" data-type="pcb_via" data-pcb-layer="drill"/></g><g data-type="pcb_via" data-pcb-layer="through"><circle class="pcb-hole-outer" fill="rgb(200, 52, 52)" cx="86.27450980392156" cy="437.2549019607843" r="5.88235294117647" data-type="pcb_via" data-pcb-layer="top"/><circle class="pcb-hole-inner" fill="#FF26E2" cx="86.27450980392156" cy="437.2549019607843" r="1.176470588235294" data-type="pcb_via" data-pcb-layer="drill"/></g><g data-type="pcb_via" data-pcb-layer="through"><circle class="pcb-hole-outer" fill="rgb(200, 52, 52)" cx="713.7254901960785" cy="437.2549019607843" r="5.88235294117647" data-type="pcb_via" data-pcb-layer="top"/><circle class="pcb-hole-inner" fill="#FF26E2" cx="713.7254901960785" cy="437.2549019607843" r="1.176470588235294" data-type="pcb_via" data-pcb-layer="drill"/></g><g data-type="pcb_via" data-pcb-layer="through"><circle class="pcb-hole-outer" fill="rgb(200, 52, 52)" cx="86.27450980392156" cy="398.0392156862745" r="5.88235294117647" data-type="pcb_via" data-pcb-layer="top"/><circle class="pcb-hole-inner" fill="#FF26E2" cx="86.27450980392156" cy="398.0392156862745" r="1.176470588235294" data-type="pcb_via" data-pcb-layer="drill"/></g><g data-type="pcb_via" data-pcb-layer="through"><circle class="pcb-hole-outer" fill="rgb(200, 52, 52)" cx="713.7254901960785" cy="398.0392156862745" r="5.88235294117647" data-type="pcb_via" data-pcb-layer="top"/><circle class="pcb-hole-inner" fill="#FF26E2" cx="713.7254901960785" cy="398.0392156862745" r="1.176470588235294" data-type="pcb_via" data-pcb-layer="drill"/></g><g data-type="pcb_via" data-pcb-layer="through"><circle class="pcb-hole-outer" fill="rgb(200, 52, 52)" cx="86.27450980392156" cy="358.8235294117647" r="5.88235294117647" data-type="pcb_via" data-pcb-layer="top"/><circle class="pcb-hole-inner" fill="#FF26E2" cx="86.27450980392156" cy="358.8235294117647" r="1.176470588235294" data-type="pcb_via" data-pcb-layer="drill"/></g><g data-type="pcb_via" data-pcb-layer="through"><circle class="pcb-hole-outer" fill="rgb(200, 52, 52)" cx="713.7254901960785" cy="358.8235294117647" r="5.88235294117647" data-type="pcb_via" data-pcb-layer="top"/><circle class="pcb-hole-inner" fill="#FF26E2" cx="713.7254901960785" cy="358.8235294117647" r="1.176470588235294" data-type="pcb_via" data-pcb-layer="drill"/></g><g data-type="pcb_via" data-pcb-layer="through"><circle class="pcb-hole-outer" fill="rgb(200, 52, 52)" cx="86.27450980392156" cy="319.6078431372549" r="5.88235294117647" data-type="pcb_via" data-pcb-layer="top"/><circle class="pcb-hole-inner" fill="#FF26E2" cx="86.27450980392156" cy="319.6078431372549" r="1.176470588235294" data-type="pcb_via" data-pcb-layer="drill"/></g><g data-type="pcb_via" data-pcb-layer="through"><circle class="pcb-hole-outer" fill="rgb(200, 52, 52)" cx="713.7254901960785" cy="319.6078431372549" r="5.88235294117647" data-type="pcb_via" data-pcb-layer="top"/><circle class="pcb-hole-inner" fill="#FF26E2" cx="713.7254901960785" cy="319.6078431372549" r="1.176470588235294" data-type="pcb_via" data-pcb-layer="drill"/></g><g data-type="pcb_via" data-pcb-layer="through"><circle class="pcb-hole-outer" fill="rgb(200, 52, 52)" cx="86.27450980392156" cy="280.3921568627451" r="5.88235294117647" data-type="pcb_via" data-pcb-layer="top"/><circle class="pcb-hole-inner" fill="#FF26E2" cx="86.27450980392156" cy="280.3921568627451" r="1.176470588235294" data-type="pcb_via" data-pcb-layer="drill"/></g><g data-type="pcb_via" data-pcb-layer="through"><circle class="pcb-hole-outer" fill="rgb(200, 52, 52)" cx="713.7254901960785" cy="280.3921568627451" r="5.88235294117647" data-type="pcb_via" data-pcb-layer="top"/><circle class="pcb-hole-inner" fill="#FF26E2" cx="713.7254901960785" cy="280.3921568627451" r="1.176470588235294" data-type="pcb_via" data-pcb-layer="drill"/></g><g data-type="pcb_via" data-pcb-layer="through"><circle class="pcb-hole-outer" fill="rgb(200, 52, 52)" cx="86.27450980392156" cy="241.1764705882353" r="5.88235294117647" data-type="pcb_via" data-pcb-layer="top"/><circle class="pcb-hole-inner" fill="#FF26E2" cx="86.27450980392156" cy="241.1764705882353" r="1.176470588235294" data-type="pcb_via" data-pcb-layer="drill"/></g><g data-type="pcb_via" data-pcb-layer="through"><circle class="pcb-hole-outer" fill="rgb(200, 52, 52)" cx="713.7254901960785" cy="241.1764705882353" r="5.88235294117647" data-type="pcb_via" data-pcb-layer="top"/><circle class="pcb-hole-inner" fill="#FF26E2" cx="713.7254901960785" cy="241.1764705882353" r="1.176470588235294" data-type="pcb_via" data-pcb-layer="drill"/></g><g data-type="pcb_via" data-pcb-layer="through"><circle class="pcb-hole-outer" fill="rgb(200, 52, 52)" cx="86.27450980392156" cy="201.96078431372547" r="5.88235294117647" data-type="pcb_via" data-pcb-layer="top"/><circle class="pcb-hole-inner" fill="#FF26E2" cx="86.27450980392156" cy="201.96078431372547" r="1.176470588235294" data-type="pcb_via" data-pcb-layer="drill"/></g><g data-type="pcb_via" data-pcb-layer="through"><circle class="pcb-hole-outer" fill="rgb(200, 52, 52)" cx="713.7254901960785" cy="201.96078431372547" r="5.88235294117647" data-type="pcb_via" data-pcb-layer="top"/><circle class="pcb-hole-inner" fill="#FF26E2" cx="713.7254901960785" cy="201.96078431372547" r="1.176470588235294" data-type="pcb_via" data-pcb-layer="drill"/></g><g data-type="pcb_via" data-pcb-layer="through"><circle class="pcb-hole-outer" fill="rgb(200, 52, 52)" cx="86.27450980392156" cy="162.7450980392157" r="5.88235294117647" data-type="pcb_via" data-pcb-layer="top"/><circle class="pcb-hole-inner" fill="#FF26E2" cx="86.27450980392156" cy="162.7450980392157" r="1.176470588235294" data-type="pcb_via" data-pcb-layer="drill"/></g><g data-type="pcb_via" data-pcb-layer="through"><circle class="pcb-hole-outer" fill="rgb(200, 52, 52)" cx="713.7254901960785" cy="162.7450980392157" r="5.88235294117647" data-type="pcb_via" data-pcb-layer="top"/><circle class="pcb-hole-inner" fill="#FF26E2" cx="713.7254901960785" cy="162.7450980392157" r="1.176470588235294" data-type="pcb_via" data-pcb-layer="drill"/></g><polygon class="pcb-pad" fill="rgb(200, 52, 52)" points="45.49019607843137,517.2549019607843 45.49019607843137,496.078431372549 43.67476080995,496.3098065268355 41.888805375062795,496.7094349300602 40.14788836117531,497.27383516643874 38.4671759975211,497.99809038853033 36.86131003254623,498.8758911510058 35.344280180377744,499.89959037621634 33.92930224757538,501.06026997272414 32.62870300188171,502.34781852643704 31.453812785951698,503.7510193875325 30.414866811571354,505.2576483857885 29.520915994254214,506.85458032306235 28.77974810499151,508.52790331519293 28.197819926053423,510.2630399872234 27.780201001874776,512.044874466134 27.530529475046983,513.8578840647735 27.45098039215686,515.6862745098039 27.545397516231432,517.6081792221482 27.82773959993666,519.5115749414927 28.295287534662567,521.378130926558 28.943538578210063,523.1898712228449 29.7662497186597,524.9293477809019 30.7554977979893,526.5798084905804 31.901755816416916,528.1253585130127 33.19398468261671,529.551113356599 34.61973952620302,530.8433422227987 36.16528954863524,531.9896002412263 37.81575025831376,532.9788483205559 39.55522681637078,533.8015594610056 41.3669671126576,534.449810504553 43.233523097722966,534.917358439279 45.13691881706744,535.1997005229842 47.058823529411754,535.2941176470588 48.887213974442155,535.2145685641686 50.70022357308155,534.9648970373408 52.482058051992254,534.5472781131623 54.217194724022704,533.9653499342242 55.890517716153326,533.2241820449615 57.48744965342714,532.3302312276443 58.994078651683175,531.2912852532639 60.397279512778624,530.116395037334 61.68482806649153,528.8157957916403 62.845507662999296,527.400817858838 63.869206888209874,525.8837880066694 64.7470076506853,524.2779220416945 65.47126287277692,522.5972096780404 66.03566310915548,520.8562926641529 66.4352915123802,519.0703372292656 66.66666666666666,517.2549019607843 45.49019607843137,517.2549019607843" data-type="pcb_smtpad" data-pcb-layer="top"/><polygon class="pcb-pad" fill="rgb(200, 52, 52)" points="45.49019607843137,82.74509803921563 66.66666666666666,82.74509803921563 66.4352915123802,80.9296627707343 66.03566310915548,79.14370733584707 65.47126287277692,77.40279032195963 64.7470076506853,75.72207795830542 63.869206888209874,74.11621199333052 62.8455076629993,72.59918214116209 61.684828066491534,71.18420420835969 60.39727951277863,69.88360496266603 58.994078651683175,68.708714746736 57.48744965342714,67.66976877235567 55.89051771615333,66.77581795503852 54.21719472402271,66.03465006577579 52.48205805199226,65.45272188683776 50.700223573081566,65.0351029626591 48.88721397444217,64.7854314358313 47.058823529411775,64.70588235294116 45.13691881706744,64.8002994770157 43.233523097722966,65.08264156072096 41.366967112657605,65.55018949544683 39.555226816370784,66.19844053899436 37.81575025831376,67.02115167944402 36.16528954863525,68.01039975877364 34.61973952620303,69.15665777720119 33.193984682616716,70.44888664340101 31.901755816416923,71.87464148698734 30.755497797989307,73.42019150941957 29.766249718659708,75.07065221909806 28.94353857821007,76.81012877715511 28.295287534662574,78.62186907344193 27.82773959993666,80.48842505850729 27.545397516231432,82.39182077785176 27.45098039215686,84.31372549019608 27.530529475046983,86.14211593522646 27.780201001874776,87.95512553386584 28.197819926053423,89.73696001277654 28.7797481049915,91.47209668480701 29.520915994254207,93.14541967693765 30.414866811571354,94.74235161421143 31.45381278595169,96.2489806124675 32.62870300188171,97.65218147356296 33.92930224757537,98.9397300272758 35.34428018037774,100.1004096237836 36.861310032546236,101.12410884899418 38.467175997521096,102.00190961146961 40.14788836117531,102.72616483356126 41.888805375062795,103.29056506993982 43.67476080995,103.69019347316453 45.49019607843137,103.921568627451 45.49019607843137,82.74509803921563" data-type="pcb_smtpad" data-pcb-layer="top"/><polygon class="pcb-pad" fill="rgb(200, 52, 52)" points="754.5098039215686,82.74509803921563 754.5098039215686,103.921568627451 756.32523919005,103.69019347316453 758.1111946249372,103.29056506993982 759.8521116388247,102.72616483356126 761.532824002479,102.00190961146961 763.1386899674537,101.12410884899418 764.6557198196223,100.1004096237836 766.0706977524246,98.9397300272758 767.3712969981183,97.65218147356296 768.5461872140484,96.2489806124675 769.5851331884287,94.74235161421143 770.4790840057458,93.14541967693765 771.2202518950085,91.47209668480701 771.8021800739466,89.73696001277654 772.2197989981253,87.95512553386584 772.469470524953,86.14211593522651 772.5490196078431,84.31372549019608 772.4546024837686,82.39182077785176 772.1722604000632,80.48842505850729 771.7047124653374,78.62186907344193 771.0564614217899,76.81012877715511 770.2337502813402,75.07065221909806 769.2445022020107,73.42019150941957 768.098244183583,71.87464148698734 766.8060153173833,70.44888664340101 765.380260473797,69.15665777720125 763.8347104513648,68.01039975877364 762.1842497416862,67.02115167944402 760.4447731836293,66.19844053899436 758.6330328873424,65.55018949544689 756.7664769022771,65.08264156072096 754.8630811829325,64.8002994770157 752.9411764705883,64.70588235294116 751.1127860255579,64.7854314358313 749.2997764269184,65.0351029626591 747.5179419480078,65.45272188683776 745.7828052759772,66.03465006577579 744.1094822838467,66.77581795503852 742.5125503465729,67.66976877235567 741.0059213483167,68.708714746736 739.6027204872214,69.88360496266603 738.3151719335084,71.18420420835969 737.1544923370008,72.59918214116209 736.1307931117901,74.11621199333052 735.2529923493147,75.72207795830536 734.5287371272232,77.40279032195963 733.9643368908445,79.14370733584707 733.5647084876198,80.9296627707343 733.3333333333334,82.74509803921563 754.5098039215686,82.74509803921563" data-type="pcb_smtpad" data-pcb-layer="top"/><polygon class="pcb-pad" fill="rgb(200, 52, 52)" points="754.5098039215686,517.2549019607843 733.3333333333334,517.2549019607843 733.5647084876198,519.0703372292656 733.9643368908445,520.8562926641529 734.5287371272232,522.5972096780404 735.2529923493147,524.2779220416945 736.1307931117901,525.8837880066694 737.1544923370008,527.400817858838 738.3151719335084,528.8157957916403 739.6027204872214,530.116395037334 741.0059213483167,531.2912852532639 742.5125503465729,532.3302312276443 744.1094822838467,533.2241820449615 745.7828052759772,533.9653499342242 747.5179419480078,534.5472781131623 749.2997764269184,534.9648970373408 751.1127860255579,535.2145685641686 752.9411764705883,535.2941176470588 754.8630811829325,535.1997005229842 756.7664769022771,534.917358439279 758.6330328873424,534.449810504553 760.4447731836292,533.8015594610056 762.1842497416862,532.9788483205559 763.8347104513648,531.9896002412264 765.380260473797,530.8433422227987 766.8060153173833,529.551113356599 768.098244183583,528.1253585130127 769.2445022020107,526.5798084905804 770.2337502813402,524.9293477809019 771.0564614217899,523.1898712228449 771.7047124653374,521.378130926558 772.1722604000632,519.5115749414927 772.4546024837686,517.6081792221482 772.5490196078431,515.6862745098039 772.469470524953,513.8578840647735 772.2197989981253,512.0448744661342 771.8021800739466,510.2630399872234 771.2202518950085,508.52790331519293 770.4790840057458,506.85458032306235 769.5851331884287,505.2576483857885 768.5461872140484,503.7510193875325 767.3712969981183,502.34781852643704 766.0706977524246,501.06026997272414 764.6557198196223,499.89959037621634 763.1386899674537,498.8758911510058 761.532824002479,497.9980903885304 759.8521116388247,497.27383516643874 758.1111946249372,496.7094349300602 756.32523919005,496.3098065268355 754.5098039215686,496.078431372549 754.5098039215686,517.2549019607843" data-type="pcb_smtpad" data-pcb-layer="top"/><rect class="pcb-pad" fill="rgb(200, 52, 52)" x="243.13725490196074" y="52.94117647058822" width="313.7254901960784" height="23.52941176470588" data-type="pcb_smtpad" data-pcb-layer="top" rx="3.9215686274509802" ry="3.9215686274509802"/><text x="0" y="0" dx="0" dy="0" fill="#f2eda1" font-family="Arial, sans-serif" font-size="11.76470588235294" text-anchor="middle" dominant-baseline="central" transform="matrix(1,0,0,1,399.99999999999994,535.2941176470588)" class="pcb-silkscreen-text pcb-silkscreen-top" data-pcb-silkscreen-text-id="null" stroke="none" data-type="pcb_silkscreen_text" data-pcb-layer="top">VIAGRID TOP</text><rect x="47.05882352941176" y="84.31372549019608" width="705.8823529411766" height="431.3725490196078" class="pcb-note-rect" data-type="pcb_note_rect" data-pcb-note-rect-id="pcb_note_rect_0" data-pcb-layer="overlay" fill="none" stroke="blue" stroke-width="2.352941176470588"/></svg>