<svg xmlns="http://www.w3.org/2000/svg" width="800" height="600" data-software-used-string="@tscircuit/core@0.0.705"><style></style><rect class="boundary" x="0" y="0" fill="#000" width="800" height="600"/><rect class="pcb-boundary" fill="none" stroke="#fff" stroke-width="0.3" x="14.456089627755716" y="10.842067220816773" width="771.0878207444885" height="578.3158655583666"/><path class="pcb-board" d="M 14.456089627755716 10.842067220816773 L 736.320925189736 10.842067220816773 L 758.0050596313697 32.52620166245032 L 758.0050596313697 149.40368630285508 L 785.5439103722442 176.9425370437297 L 785.5439103722442 531.4781351644381 L 758.0050596313697 559.0169859053126 L 758.0050596313697 589.1579327791833 L 14.456089627755716 589.1579327791833 Z" fill="none" stroke="rgba(255, 255, 255, 0.5)" stroke-width="1.084206722081677"/><text x="0" y="0" dx="0" dy="0" fill="#f2eda1" font-family="Arial, sans-serif" font-size="6.245030719190459" text-anchor="middle" dominant-baseline="central" transform="matrix(1,0,0,1,591.6877484640404,544.9222985182507)" class="pcb-silkscreen-text pcb-silkscreen-top" data-pcb-silkscreen-text-id="pcb_component_0" stroke="none">A0</text><text x="0" y="0" dx="0" dy="0" fill="#f2eda1" font-family="Arial, sans-serif" font-size="6.245030719190459" text-anchor="middle" dominant-baseline="central" transform="matrix(1,0,0,1,619.4434405493314,544.9222985182507)" class="pcb-silkscreen-text pcb-silkscreen-top" data-pcb-silkscreen-text-id="pcb_component_0" stroke="none">A1</text><text x="0" y="0" dx="0" dy="0" fill="#f2eda1" font-family="Arial, sans-serif" font-size="6.245030719190459" text-anchor="middle" dominant-baseline="central" transform="matrix(1,0,0,1,647.1991326346223,544.9222985182507)" class="pcb-silkscreen-text pcb-silkscreen-top" data-pcb-silkscreen-text-id="pcb_component_0" stroke="none">A2</text><text x="0" y="0" dx="0" dy="0" fill="#f2eda1" font-family="Arial, sans-serif" font-size="6.245030719190459" text-anchor="middle" dominant-baseline="central" transform="matrix(1,0,0,1,674.9548247199132,544.9222985182507)" class="pcb-silkscreen-text pcb-silkscreen-top" data-pcb-silkscreen-text-id="pcb_component_0" stroke="none">A3</text><text x="0" y="0" dx="0" dy="0" fill="#f2eda1" font-family="Arial, sans-serif" font-size="6.245030719190459" text-anchor="middle" dominant-baseline="central" transform="matrix(1,0,0,1,702.7105168052042,544.9222985182507)" class="pcb-silkscreen-text pcb-silkscreen-top" data-pcb-silkscreen-text-id="pcb_component_0" stroke="none">A4</text><text x="0" y="0" dx="0" dy="0" fill="#f2eda1" font-family="Arial, sans-serif" font-size="6.245030719190459" text-anchor="middle" dominant-baseline="central" transform="matrix(1,0,0,1,730.4662088904951,544.9222985182507)" class="pcb-silkscreen-text pcb-silkscreen-top" data-pcb-silkscreen-text-id="pcb_component_0" stroke="none">A5</text><text x="0" y="0" dx="0" dy="0" fill="#f2eda1" font-family="Arial, sans-serif" font-size="7.589447054571737" text-anchor="middle" dominant-baseline="central" transform="matrix(1,0,0,1,661.0769786772678,532.4539212143115)" class="pcb-silkscreen-text pcb-silkscreen-top" data-pcb-silkscreen-text-id="pcb_component_0" stroke="none">JP1</text><text x="0" y="0" dx="0" dy="0" fill="#f2eda1" font-family="Arial, sans-serif" font-size="6.245030719190459" text-anchor="middle" dominant-baseline="central" transform="matrix(1,0,0,1,342.7538850740874,544.9222985182507)" class="pcb-silkscreen-text pcb-silkscreen-top" data-pcb-silkscreen-text-id="pcb_component_1" stroke="none">NC</text><text x="0" y="0" dx="0" dy="0" fill="#f2eda1" font-family="Arial, sans-serif" font-size="6.245030719190459" text-anchor="middle" dominant-baseline="central" transform="matrix(1,0,0,1,370.50957715937835,544.9222985182507)" class="pcb-silkscreen-text pcb-silkscreen-top" data-pcb-silkscreen-text-id="pcb_component_1" stroke="none">IOREF</text><text x="0" y="0" dx="0" dy="0" fill="#f2eda1" font-family="Arial, sans-serif" font-size="6.245030719190459" text-anchor="middle" dominant-baseline="central" transform="matrix(1,0,0,1,398.2652692446693,544.9222985182507)" class="pcb-silkscreen-text pcb-silkscreen-top" data-pcb-silkscreen-text-id="pcb_component_1" stroke="none">RES</text><text x="0" y="0" dx="0" dy="0" fill="#f2eda1" font-family="Arial, sans-serif" font-size="6.245030719190459" text-anchor="middle" dominant-baseline="central" transform="matrix(1,0,0,1,426.0209613299602,544.9222985182507)" class="pcb-silkscreen-text pcb-silkscreen-top" data-pcb-silkscreen-text-id="pcb_component_1" stroke="none">V3_3</text><text x="0" y="0" dx="0" dy="0" fill="#f2eda1" font-family="Arial, sans-serif" font-size="6.245030719190459" text-anchor="middle" dominant-baseline="central" transform="matrix(1,0,0,1,453.77665341525113,544.9222985182507)" class="pcb-silkscreen-text pcb-silkscreen-top" data-pcb-silkscreen-text-id="pcb_component_1" stroke="none">V5</text><text x="0" y="0" dx="0" dy="0" fill="#f2eda1" font-family="Arial, sans-serif" font-size="6.245030719190459" text-anchor="middle" dominant-baseline="central" transform="matrix(1,0,0,1,481.5323455005421,544.9222985182507)" class="pcb-silkscreen-text pcb-silkscreen-top" data-pcb-silkscreen-text-id="pcb_component_1" stroke="none">GND0</text><text x="0" y="0" dx="0" dy="0" fill="#f2eda1" font-family="Arial, sans-serif" font-size="6.245030719190459" text-anchor="middle" dominant-baseline="central" transform="matrix(1,0,0,1,509.28803758583297,544.9222985182507)" class="pcb-silkscreen-text pcb-silkscreen-top" data-pcb-silkscreen-text-id="pcb_component_1" stroke="none">GND1</text><text x="0" y="0" dx="0" dy="0" fill="#f2eda1" font-family="Arial, sans-serif" font-size="6.245030719190459" text-anchor="middle" dominant-baseline="central" transform="matrix(1,0,0,1,537.0437296711239,544.9222985182507)" class="pcb-silkscreen-text pcb-silkscreen-top" data-pcb-silkscreen-text-id="pcb_component_1" stroke="none">VIN</text><text x="0" y="0" dx="0" dy="0" fill="#f2eda1" font-family="Arial, sans-serif" font-size="7.589447054571737" text-anchor="middle" dominant-baseline="central" transform="matrix(1,0,0,1,439.8988073726057,532.4539212143115)" class="pcb-silkscreen-text pcb-silkscreen-top" data-pcb-silkscreen-text-id="pcb_component_1" stroke="none">JP2</text><text x="0" y="0" dx="0" dy="0" fill="#f2eda1" font-family="Arial, sans-serif" font-size="6.245030719190459" text-anchor="middle" dominant-baseline="central" transform="matrix(-1,1.2246467991473532e-16,-1.2246467991473532e-16,-1,729.4904228406215,55.077701481749216)" class="pcb-silkscreen-text pcb-silkscreen-top" data-pcb-silkscreen-text-id="pcb_component_2" stroke="none">RX</text><text x="0" y="0" dx="0" dy="0" fill="#f2eda1" font-family="Arial, sans-serif" font-size="6.245030719190459" text-anchor="middle" dominant-baseline="central" transform="matrix(-1,1.2246467991473532e-16,-1.2246467991473532e-16,-1,701.7347307553307,55.077701481749216)" class="pcb-silkscreen-text pcb-silkscreen-top" data-pcb-silkscreen-text-id="pcb_component_2" stroke="none">TX</text><text x="0" y="0" dx="0" dy="0" fill="#f2eda1" font-family="Arial, sans-serif" font-size="6.245030719190459" text-anchor="middle" dominant-baseline="central" transform="matrix(-1,1.2246467991473532e-16,-1.2246467991473532e-16,-1,673.9790386700397,55.077701481749216)" class="pcb-silkscreen-text pcb-silkscreen-top" data-pcb-silkscreen-text-id="pcb_component_2" stroke="none">D2</text><text x="0" y="0" dx="0" dy="0" fill="#f2eda1" font-family="Arial, sans-serif" font-size="6.245030719190459" text-anchor="middle" dominant-baseline="central" transform="matrix(-1,1.2246467991473532e-16,-1.2246467991473532e-16,-1,646.2233465847487,55.077701481749216)" class="pcb-silkscreen-text pcb-silkscreen-top" data-pcb-silkscreen-text-id="pcb_component_2" stroke="none">D3</text><text x="0" y="0" dx="0" dy="0" fill="#f2eda1" font-family="Arial, sans-serif" font-size="6.245030719190459" text-anchor="middle" dominant-baseline="central" transform="matrix(-1,1.2246467991473532e-16,-1.2246467991473532e-16,-1,618.4676544994578,55.077701481749216)" class="pcb-silkscreen-text pcb-silkscreen-top" data-pcb-silkscreen-text-id="pcb_component_2" stroke="none">D4</text><text x="0" y="0" dx="0" dy="0" fill="#f2eda1" font-family="Arial, sans-serif" font-size="6.245030719190459" text-anchor="middle" dominant-baseline="central" transform="matrix(-1,1.2246467991473532e-16,-1.2246467991473532e-16,-1,590.7119624141669,55.077701481749216)" class="pcb-silkscreen-text pcb-silkscreen-top" data-pcb-silkscreen-text-id="pcb_component_2" stroke="none">D5</text><text x="0" y="0" dx="0" dy="0" fill="#f2eda1" font-family="Arial, sans-serif" font-size="6.245030719190459" text-anchor="middle" dominant-baseline="central" transform="matrix(-1,1.2246467991473532e-16,-1.2246467991473532e-16,-1,562.956270328876,55.077701481749216)" class="pcb-silkscreen-text pcb-silkscreen-top" data-pcb-silkscreen-text-id="pcb_component_2" stroke="none">D6</text><text x="0" y="0" dx="0" dy="0" fill="#f2eda1" font-family="Arial, sans-serif" font-size="6.245030719190459" text-anchor="middle" dominant-baseline="central" transform="matrix(-1,1.2246467991473532e-16,-1.2246467991473532e-16,-1,535.200578243585,55.077701481749216)" class="pcb-silkscreen-text pcb-silkscreen-top" data-pcb-silkscreen-text-id="pcb_component_2" stroke="none">D7</text><text x="0" y="0" dx="0" dy="0" fill="#f2eda1" font-family="Arial, sans-serif" font-size="7.589447054571737" text-anchor="middle" dominant-baseline="central" transform="matrix(-1,1.2246467991473532e-16,-1.2246467991473532e-16,-1,632.3455005421033,67.54607878568848)" class="pcb-silkscreen-text pcb-silkscreen-top" data-pcb-silkscreen-text-id="pcb_component_2" stroke="none">JP3</text><text x="0" y="0" dx="0" dy="0" fill="#f2eda1" font-family="Arial, sans-serif" font-size="6.245030719190459" text-anchor="middle" dominant-baseline="central" transform="matrix(-1,1.2246467991473532e-16,-1.2246467991473532e-16,-1,494.2175641488977,55.077701481749216)" class="pcb-silkscreen-text pcb-silkscreen-top" data-pcb-silkscreen-text-id="pcb_component_3" stroke="none">SCL</text><text x="0" y="0" dx="0" dy="0" fill="#f2eda1" font-family="Arial, sans-serif" font-size="6.245030719190459" text-anchor="middle" dominant-baseline="central" transform="matrix(-1,1.2246467991473532e-16,-1.2246467991473532e-16,-1,466.46187206360673,55.077701481749216)" class="pcb-silkscreen-text pcb-silkscreen-top" data-pcb-silkscreen-text-id="pcb_component_3" stroke="none">SDA</text><text x="0" y="0" dx="0" dy="0" fill="#f2eda1" font-family="Arial, sans-serif" font-size="6.245030719190459" text-anchor="middle" dominant-baseline="central" transform="matrix(-1,1.2246467991473532e-16,-1.2246467991473532e-16,-1,438.70617997831584,55.077701481749216)" class="pcb-silkscreen-text pcb-silkscreen-top" data-pcb-silkscreen-text-id="pcb_component_3" stroke="none">AREF</text><text x="0" y="0" dx="0" dy="0" fill="#f2eda1" font-family="Arial, sans-serif" font-size="6.245030719190459" text-anchor="middle" dominant-baseline="central" transform="matrix(-1,1.2246467991473532e-16,-1.2246467991473532e-16,-1,410.9504878930249,55.077701481749216)" class="pcb-silkscreen-text pcb-silkscreen-top" data-pcb-silkscreen-text-id="pcb_component_3" stroke="none">GND2</text><text x="0" y="0" dx="0" dy="0" fill="#f2eda1" font-family="Arial, sans-serif" font-size="6.245030719190459" text-anchor="middle" dominant-baseline="central" transform="matrix(-1,1.2246467991473532e-16,-1.2246467991473532e-16,-1,383.19479580773395,55.077701481749216)" class="pcb-silkscreen-text pcb-silkscreen-top" data-pcb-silkscreen-text-id="pcb_component_3" stroke="none">D13</text><text x="0" y="0" dx="0" dy="0" fill="#f2eda1" font-family="Arial, sans-serif" font-size="6.245030719190459" text-anchor="middle" dominant-baseline="central" transform="matrix(-1,1.2246467991473532e-16,-1.2246467991473532e-16,-1,355.43910372244306,55.077701481749216)" class="pcb-silkscreen-text pcb-silkscreen-top" data-pcb-silkscreen-text-id="pcb_component_3" stroke="none">D12</text><text x="0" y="0" dx="0" dy="0" fill="#f2eda1" font-family="Arial, sans-serif" font-size="6.245030719190459" text-anchor="middle" dominant-baseline="central" transform="matrix(-1,1.2246467991473532e-16,-1.2246467991473532e-16,-1,327.6834116371521,55.077701481749216)" class="pcb-silkscreen-text pcb-silkscreen-top" data-pcb-silkscreen-text-id="pcb_component_3" stroke="none">D11</text><text x="0" y="0" dx="0" dy="0" fill="#f2eda1" font-family="Arial, sans-serif" font-size="6.245030719190459" text-anchor="middle" dominant-baseline="central" transform="matrix(-1,1.2246467991473532e-16,-1.2246467991473532e-16,-1,299.9277195518612,55.077701481749216)" class="pcb-silkscreen-text pcb-silkscreen-top" data-pcb-silkscreen-text-id="pcb_component_3" stroke="none">D10</text><text x="0" y="0" dx="0" dy="0" fill="#f2eda1" font-family="Arial, sans-serif" font-size="6.245030719190459" text-anchor="middle" dominant-baseline="central" transform="matrix(-1,1.2246467991473532e-16,-1.2246467991473532e-16,-1,272.1720274665703,55.077701481749216)" class="pcb-silkscreen-text pcb-silkscreen-top" data-pcb-silkscreen-text-id="pcb_component_3" stroke="none">D9</text><text x="0" y="0" dx="0" dy="0" fill="#f2eda1" font-family="Arial, sans-serif" font-size="6.245030719190459" text-anchor="middle" dominant-baseline="central" transform="matrix(-1,1.2246467991473532e-16,-1.2246467991473532e-16,-1,244.41633538127937,55.077701481749216)" class="pcb-silkscreen-text pcb-silkscreen-top" data-pcb-silkscreen-text-id="pcb_component_3" stroke="none">D8</text><text x="0" y="0" dx="0" dy="0" fill="#f2eda1" font-family="Arial, sans-serif" font-size="7.589447054571737" text-anchor="middle" dominant-baseline="central" transform="matrix(-1,1.2246467991473532e-16,-1.2246467991473532e-16,-1,369.3169497650885,67.54607878568848)" class="pcb-silkscreen-text pcb-silkscreen-top" data-pcb-silkscreen-text-id="pcb_component_3" stroke="none">JP4</text><g><circle class="pcb-hole-outer" fill="rgb(200, 52, 52)" cx="591.6877484640404" cy="560.2096132996024" r="10.191543187567762"/><circle class="pcb-hole-inner" fill="#FF26E2" cx="591.6877484640404" cy="560.2096132996024" r="5.507770148174918"/></g><g><circle class="pcb-hole-outer" fill="rgb(200, 52, 52)" cx="619.4434405493314" cy="560.2096132996024" r="10.191543187567762"/><circle class="pcb-hole-inner" fill="#FF26E2" cx="619.4434405493314" cy="560.2096132996024" r="5.507770148174918"/></g><g><circle class="pcb-hole-outer" fill="rgb(200, 52, 52)" cx="647.1991326346223" cy="560.2096132996024" r="10.191543187567762"/><circle class="pcb-hole-inner" fill="#FF26E2" cx="647.1991326346223" cy="560.2096132996024" r="5.507770148174918"/></g><g><circle class="pcb-hole-outer" fill="rgb(200, 52, 52)" cx="674.9548247199132" cy="560.2096132996024" r="10.191543187567762"/><circle class="pcb-hole-inner" fill="#FF26E2" cx="674.9548247199132" cy="560.2096132996024" r="5.507770148174918"/></g><g><circle class="pcb-hole-outer" fill="rgb(200, 52, 52)" cx="702.7105168052042" cy="560.2096132996024" r="10.191543187567762"/><circle class="pcb-hole-inner" fill="#FF26E2" cx="702.7105168052042" cy="560.2096132996024" r="5.507770148174918"/></g><g><circle class="pcb-hole-outer" fill="rgb(200, 52, 52)" cx="730.4662088904951" cy="560.2096132996024" r="10.191543187567762"/><circle class="pcb-hole-inner" fill="#FF26E2" cx="730.4662088904951" cy="560.2096132996024" r="5.507770148174918"/></g><g><circle class="pcb-hole-outer" fill="rgb(200, 52, 52)" cx="342.7538850740874" cy="560.2096132996024" r="10.191543187567762"/><circle class="pcb-hole-inner" fill="#FF26E2" cx="342.7538850740874" cy="560.2096132996024" r="5.507770148174918"/></g><g><circle class="pcb-hole-outer" fill="rgb(200, 52, 52)" cx="370.50957715937835" cy="560.2096132996024" r="10.191543187567762"/><circle class="pcb-hole-inner" fill="#FF26E2" cx="370.50957715937835" cy="560.2096132996024" r="5.507770148174918"/></g><g><circle class="pcb-hole-outer" fill="rgb(200, 52, 52)" cx="398.2652692446693" cy="560.2096132996024" r="10.191543187567762"/><circle class="pcb-hole-inner" fill="#FF26E2" cx="398.2652692446693" cy="560.2096132996024" r="5.507770148174918"/></g><g><circle class="pcb-hole-outer" fill="rgb(200, 52, 52)" cx="426.0209613299602" cy="560.2096132996024" r="10.191543187567762"/><circle class="pcb-hole-inner" fill="#FF26E2" cx="426.0209613299602" cy="560.2096132996024" r="5.507770148174918"/></g><g><circle class="pcb-hole-outer" fill="rgb(200, 52, 52)" cx="453.77665341525113" cy="560.2096132996024" r="10.191543187567762"/><circle class="pcb-hole-inner" fill="#FF26E2" cx="453.77665341525113" cy="560.2096132996024" r="5.507770148174918"/></g><g><circle class="pcb-hole-outer" fill="rgb(200, 52, 52)" cx="481.5323455005421" cy="560.2096132996024" r="10.191543187567762"/><circle class="pcb-hole-inner" fill="#FF26E2" cx="481.5323455005421" cy="560.2096132996024" r="5.507770148174918"/></g><g><circle class="pcb-hole-outer" fill="rgb(200, 52, 52)" cx="509.28803758583297" cy="560.2096132996024" r="10.191543187567762"/><circle class="pcb-hole-inner" fill="#FF26E2" cx="509.28803758583297" cy="560.2096132996024" r="5.507770148174918"/></g><g><circle class="pcb-hole-outer" fill="rgb(200, 52, 52)" cx="537.0437296711239" cy="560.2096132996024" r="10.191543187567762"/><circle class="pcb-hole-inner" fill="#FF26E2" cx="537.0437296711239" cy="560.2096132996024" r="5.507770148174918"/></g><g><circle class="pcb-hole-outer" fill="rgb(200, 52, 52)" cx="729.4904228406215" cy="39.79038670039756" r="10.191543187567762"/><circle class="pcb-hole-inner" fill="#FF26E2" cx="729.4904228406215" cy="39.79038670039756" r="5.507770148174918"/></g><g><circle class="pcb-hole-outer" fill="rgb(200, 52, 52)" cx="701.7347307553307" cy="39.79038670039756" r="10.191543187567762"/><circle class="pcb-hole-inner" fill="#FF26E2" cx="701.7347307553307" cy="39.79038670039756" r="5.507770148174918"/></g><g><circle class="pcb-hole-outer" fill="rgb(200, 52, 52)" cx="673.9790386700397" cy="39.79038670039756" r="10.191543187567762"/><circle class="pcb-hole-inner" fill="#FF26E2" cx="673.9790386700397" cy="39.79038670039756" r="5.507770148174918"/></g><g><circle class="pcb-hole-outer" fill="rgb(200, 52, 52)" cx="646.2233465847487" cy="39.79038670039756" r="10.191543187567762"/><circle class="pcb-hole-inner" fill="#FF26E2" cx="646.2233465847487" cy="39.79038670039756" r="5.507770148174918"/></g><g><circle class="pcb-hole-outer" fill="rgb(200, 52, 52)" cx="618.4676544994579" cy="39.79038670039756" r="10.191543187567762"/><circle class="pcb-hole-inner" fill="#FF26E2" cx="618.4676544994579" cy="39.79038670039756" r="5.507770148174918"/></g><g><circle class="pcb-hole-outer" fill="rgb(200, 52, 52)" cx="590.7119624141669" cy="39.79038670039756" r="10.191543187567762"/><circle class="pcb-hole-inner" fill="#FF26E2" cx="590.7119624141669" cy="39.79038670039756" r="5.507770148174918"/></g><g><circle class="pcb-hole-outer" fill="rgb(200, 52, 52)" cx="562.956270328876" cy="39.79038670039756" r="10.191543187567762"/><circle class="pcb-hole-inner" fill="#FF26E2" cx="562.956270328876" cy="39.79038670039756" r="5.507770148174918"/></g><g><circle class="pcb-hole-outer" fill="rgb(200, 52, 52)" cx="535.200578243585" cy="39.79038670039756" r="10.191543187567762"/><circle class="pcb-hole-inner" fill="#FF26E2" cx="535.200578243585" cy="39.79038670039756" r="5.507770148174918"/></g><g><circle class="pcb-hole-outer" fill="rgb(200, 52, 52)" cx="494.2175641488977" cy="39.79038670039756" r="10.191543187567762"/><circle class="pcb-hole-inner" fill="#FF26E2" cx="494.2175641488977" cy="39.79038670039756" r="5.507770148174918"/></g><g><circle class="pcb-hole-outer" fill="rgb(200, 52, 52)" cx="466.46187206360673" cy="39.79038670039756" r="10.191543187567762"/><circle class="pcb-hole-inner" fill="#FF26E2" cx="466.46187206360673" cy="39.79038670039756" r="5.507770148174918"/></g><g><circle class="pcb-hole-outer" fill="rgb(200, 52, 52)" cx="438.70617997831584" cy="39.79038670039756" r="10.191543187567762"/><circle class="pcb-hole-inner" fill="#FF26E2" cx="438.70617997831584" cy="39.79038670039756" r="5.507770148174918"/></g><g><circle class="pcb-hole-outer" fill="rgb(200, 52, 52)" cx="410.9504878930249" cy="39.79038670039756" r="10.191543187567762"/><circle class="pcb-hole-inner" fill="#FF26E2" cx="410.9504878930249" cy="39.79038670039756" r="5.507770148174918"/></g><g><circle class="pcb-hole-outer" fill="rgb(200, 52, 52)" cx="383.19479580773395" cy="39.79038670039756" r="10.191543187567762"/><circle class="pcb-hole-inner" fill="#FF26E2" cx="383.19479580773395" cy="39.79038670039756" r="5.507770148174918"/></g><g><circle class="pcb-hole-outer" fill="rgb(200, 52, 52)" cx="355.43910372244306" cy="39.79038670039756" r="10.191543187567762"/><circle class="pcb-hole-inner" fill="#FF26E2" cx="355.43910372244306" cy="39.79038670039756" r="5.507770148174918"/></g><g><circle class="pcb-hole-outer" fill="rgb(200, 52, 52)" cx="327.6834116371521" cy="39.79038670039756" r="10.191543187567762"/><circle class="pcb-hole-inner" fill="#FF26E2" cx="327.6834116371521" cy="39.79038670039756" r="5.507770148174918"/></g><g><circle class="pcb-hole-outer" fill="rgb(200, 52, 52)" cx="299.9277195518612" cy="39.79038670039756" r="10.191543187567762"/><circle class="pcb-hole-inner" fill="#FF26E2" cx="299.9277195518612" cy="39.79038670039756" r="5.507770148174918"/></g><g><circle class="pcb-hole-outer" fill="rgb(200, 52, 52)" cx="272.1720274665703" cy="39.79038670039756" r="10.191543187567762"/><circle class="pcb-hole-inner" fill="#FF26E2" cx="272.1720274665703" cy="39.79038670039756" r="5.507770148174918"/></g><g><circle class="pcb-hole-outer" fill="rgb(200, 52, 52)" cx="244.41633538127937" cy="39.79038670039756" r="10.191543187567762"/><circle class="pcb-hole-inner" fill="#FF26E2" cx="244.41633538127937" cy="39.79038670039756" r="5.507770148174918"/></g></svg>