<svg xmlns="http://www.w3.org/2000/svg" width="800" height="600" data-software-used-string="@tscircuit/core@0.0.705"><style></style><rect class="boundary" x="0" y="0" fill="#000" width="800" height="600"/><rect class="pcb-boundary" fill="none" stroke="#fff" stroke-width="0.3" x="125" y="25" width="550" height="550"/><path class="pcb-board" d="M 175 25 L 650 25 L 654.8772580504033 25.480367989919216 L 659.5670858091273 26.903011687217827 L 663.8892558254901 29.213259692436395 L 667.6776695296637 32.32233047033628 L 670.7867403075636 36.11074417450999 L 673.0969883127822 40.43291419087274 L 674.5196320100808 45.12274194959679 L 675 50 L 675 462.5 L 674.7598160050404 464.93862902520164 L 674.0484941563911 467.28354290456366 L 672.8933701537818 469.444627912745 L 671.3388347648317 471.33883476483186 L 669.4446279127451 472.8933701537818 L 667.2835429045637 474.0484941563911 L 664.9386290252016 474.7598160050404 L 662.5 475 L 660.0613709747984 475.2401839949596 L 657.7164570954363 475.9515058436089 L 655.555372087255 477.1066298462182 L 653.6611652351681 478.66116523516814 L 652.1066298462182 480.555372087255 L 650.9515058436089 482.71645709543634 L 650.2401839949596 485.06137097479836 L 650 487.5 L 650 575 L 482 575 L 482 500 L 481.711779150976 497.0736452155097 L 480.85819289507344 494.259748613597 L 479.4720440725145 491.6664466596703 L 477.60660160373493 489.39339849075816 L 475.33355339470086 487.5279560708673 L 472.7402514109609 486.14180730408503 L 469.92635479068935 485.2882211087036 L 467 485.0000003226196 L 464.07364520931065 485.2882211087036 L 461.2597485890391 486.14180730408503 L 458.66644660529914 487.5279560708673 L 456.39339839626507 489.39339849075816 L 454.5279559274855 491.6664466596703 L 453.14180710492656 494.259748613597 L 452.288220849024 497.0736452155097 L 452 500 L 452 575 L 150 575 L 150 487.5 L 149.7598160050404 485.06137097479836 L 149.0484941563911 482.71645709543634 L 147.8933701537818 480.555372087255 L 146.33883476483183 478.66116523516814 L 144.444627912745 477.1066298462182 L 142.28354290456366 475.9515058436089 L 139.93862902520158 475.2401839949596 L 137.5 475 L 135.06137097479842 474.7598160050404 L 132.71645709543634 474.0484941563911 L 130.55537208725497 472.8933701537818 L 128.6611652351682 471.33883476483186 L 127.1066298462182 469.444627912745 L 125.95150584360891 467.28354290456366 L 125.24018399495958 464.93862902520164 L 125 462.5 L 125 50 L 125.48036798991922 45.12274194959679 L 126.90301168721783 40.43291419087274 L 129.2132596924364 36.11074417450999 L 132.32233047033628 32.32233047033628 L 136.11074417451 29.213259692436395 L 140.43291419087274 26.903011687217827 L 145.1227419495968 25.480367989919216 L 150 25 Z" fill="none" stroke="rgba(255, 255, 255, 0.5)" stroke-width="2.5"/><rect class="pcb-pad" fill="rgb(77, 127, 196)" x="620.625" y="512.5" width="8.75" height="48.75" data-layer="bottom"/><rect class="pcb-pad" fill="rgb(77, 127, 196)" x="608.125" y="512.5" width="8.75" height="48.75" data-layer="bottom"/><rect class="pcb-pad" fill="rgb(77, 127, 196)" x="595.625" y="512.5" width="8.75" height="48.75" data-layer="bottom"/><rect class="pcb-pad" fill="rgb(77, 127, 196)" x="583.125" y="512.5" width="8.75" height="48.75" data-layer="bottom"/><rect class="pcb-pad" fill="rgb(77, 127, 196)" x="570.625" y="512.5" width="8.75" height="48.75" data-layer="bottom"/><rect class="pcb-pad" fill="rgb(77, 127, 196)" x="558.125" y="512.5" width="8.75" height="48.75" data-layer="bottom"/><rect class="pcb-pad" fill="rgb(77, 127, 196)" x="545.625" y="512.5" width="8.75" height="48.75" data-layer="bottom"/><rect class="pcb-pad" fill="rgb(77, 127, 196)" x="533.125" y="512.5" width="8.75" height="48.75" data-layer="bottom"/><rect class="pcb-pad" fill="rgb(77, 127, 196)" x="520.625" y="512.5" width="8.75" height="48.75" data-layer="bottom"/><rect class="pcb-pad" fill="rgb(77, 127, 196)" x="508.125" y="512.5" width="8.75" height="48.75" data-layer="bottom"/><rect class="pcb-pad" fill="rgb(77, 127, 196)" x="495.625" y="512.5" width="8.75" height="48.75" data-layer="bottom"/><rect class="pcb-pad" fill="rgb(77, 127, 196)" x="433.125" y="512.5" width="8.75" height="48.75" data-layer="bottom"/><rect class="pcb-pad" fill="rgb(77, 127, 196)" x="420.625" y="512.5" width="8.75" height="48.75" data-layer="bottom"/><rect class="pcb-pad" fill="rgb(77, 127, 196)" x="408.125" y="512.5" width="8.75" height="48.75" data-layer="bottom"/><rect class="pcb-pad" fill="rgb(77, 127, 196)" x="395.625" y="512.5" width="8.75" height="48.75" data-layer="bottom"/><rect class="pcb-pad" fill="rgb(77, 127, 196)" x="383.125" y="512.5" width="8.75" height="48.75" data-layer="bottom"/><rect class="pcb-pad" fill="rgb(77, 127, 196)" x="370.625" y="512.5" width="8.75" height="48.75" data-layer="bottom"/><rect class="pcb-pad" fill="rgb(77, 127, 196)" x="358.125" y="512.5" width="8.75" height="48.75" data-layer="bottom"/><rect class="pcb-pad" fill="rgb(77, 127, 196)" x="345.625" y="512.5" width="8.75" height="48.75" data-layer="bottom"/><rect class="pcb-pad" fill="rgb(77, 127, 196)" x="333.125" y="512.5" width="8.75" height="48.75" data-layer="bottom"/><rect class="pcb-pad" fill="rgb(77, 127, 196)" x="320.625" y="512.5" width="8.75" height="48.75" data-layer="bottom"/><rect class="pcb-pad" fill="rgb(77, 127, 196)" x="308.125" y="512.5" width="8.75" height="48.75" data-layer="bottom"/><rect class="pcb-pad" fill="rgb(77, 127, 196)" x="295.625" y="512.5" width="8.75" height="48.75" data-layer="bottom"/><rect class="pcb-pad" fill="rgb(77, 127, 196)" x="283.125" y="512.5" width="8.75" height="48.75" data-layer="bottom"/><rect class="pcb-pad" fill="rgb(77, 127, 196)" x="270.625" y="512.5" width="8.75" height="48.75" data-layer="bottom"/><rect class="pcb-pad" fill="rgb(77, 127, 196)" x="258.125" y="512.5" width="8.75" height="48.75" data-layer="bottom"/><rect class="pcb-pad" fill="rgb(77, 127, 196)" x="245.625" y="512.5" width="8.75" height="48.75" data-layer="bottom"/><rect class="pcb-pad" fill="rgb(77, 127, 196)" x="233.125" y="512.5" width="8.75" height="48.75" data-layer="bottom"/><rect class="pcb-pad" fill="rgb(77, 127, 196)" x="220.625" y="512.5" width="8.75" height="48.75" data-layer="bottom"/><rect class="pcb-pad" fill="rgb(77, 127, 196)" x="208.125" y="512.5" width="8.75" height="48.75" data-layer="bottom"/><rect class="pcb-pad" fill="rgb(77, 127, 196)" x="195.625" y="512.5" width="8.75" height="48.75" data-layer="bottom"/><rect class="pcb-pad" fill="rgb(77, 127, 196)" x="183.125" y="512.5" width="8.75" height="48.75" data-layer="bottom"/><rect class="pcb-pad" fill="rgb(77, 127, 196)" x="170.625" y="512.5" width="8.75" height="48.75" data-layer="bottom"/><rect class="pcb-pad" fill="rgb(200, 52, 52)" x="626.875" y="525" width="8.75" height="36.25" data-layer="top"/><rect class="pcb-pad" fill="rgb(200, 52, 52)" x="614.375" y="525" width="8.75" height="36.25" data-layer="top"/><rect class="pcb-pad" fill="rgb(200, 52, 52)" x="601.875" y="525" width="8.75" height="36.25" data-layer="top"/><rect class="pcb-pad" fill="rgb(200, 52, 52)" x="589.375" y="525" width="8.75" height="36.25" data-layer="top"/><rect class="pcb-pad" fill="rgb(200, 52, 52)" x="576.875" y="525" width="8.75" height="36.25" data-layer="top"/><rect class="pcb-pad" fill="rgb(200, 52, 52)" x="564.375" y="525" width="8.75" height="36.25" data-layer="top"/><rect class="pcb-pad" fill="rgb(200, 52, 52)" x="551.875" y="525" width="8.75" height="36.25" data-layer="top"/><rect class="pcb-pad" fill="rgb(200, 52, 52)" x="539.375" y="525" width="8.75" height="36.25" data-layer="top"/><rect class="pcb-pad" fill="rgb(200, 52, 52)" x="526.875" y="525" width="8.75" height="36.25" data-layer="top"/><rect class="pcb-pad" fill="rgb(200, 52, 52)" x="514.375" y="525" width="8.75" height="36.25" data-layer="top"/><rect class="pcb-pad" fill="rgb(200, 52, 52)" x="501.875" y="525" width="8.75" height="36.25" data-layer="top"/><rect class="pcb-pad" fill="rgb(200, 52, 52)" x="489.375" y="525" width="8.75" height="36.25" data-layer="top"/><rect class="pcb-pad" fill="rgb(200, 52, 52)" x="426.875" y="525" width="8.75" height="36.25" data-layer="top"/><rect class="pcb-pad" fill="rgb(200, 52, 52)" x="414.375" y="525" width="8.75" height="36.25" data-layer="top"/><rect class="pcb-pad" fill="rgb(200, 52, 52)" x="401.875" y="525" width="8.75" height="36.25" data-layer="top"/><rect class="pcb-pad" fill="rgb(200, 52, 52)" x="389.375" y="525" width="8.75" height="36.25" data-layer="top"/><rect class="pcb-pad" fill="rgb(200, 52, 52)" x="376.875" y="525" width="8.75" height="36.25" data-layer="top"/><rect class="pcb-pad" fill="rgb(200, 52, 52)" x="364.375" y="525" width="8.75" height="36.25" data-layer="top"/><rect class="pcb-pad" fill="rgb(200, 52, 52)" x="351.875" y="525" width="8.75" height="36.25" data-layer="top"/><rect class="pcb-pad" fill="rgb(200, 52, 52)" x="339.375" y="525" width="8.75" height="36.25" data-layer="top"/><rect class="pcb-pad" fill="rgb(200, 52, 52)" x="326.875" y="525" width="8.75" height="36.25" data-layer="top"/><rect class="pcb-pad" fill="rgb(200, 52, 52)" x="314.375" y="525" width="8.75" height="36.25" data-layer="top"/><rect class="pcb-pad" fill="rgb(200, 52, 52)" x="301.875" y="525" width="8.75" height="36.25" data-layer="top"/><rect class="pcb-pad" fill="rgb(200, 52, 52)" x="289.375" y="525" width="8.75" height="36.25" data-layer="top"/><rect class="pcb-pad" fill="rgb(200, 52, 52)" x="276.875" y="525" width="8.75" height="36.25" data-layer="top"/><rect class="pcb-pad" fill="rgb(200, 52, 52)" x="264.375" y="525" width="8.75" height="36.25" data-layer="top"/><rect class="pcb-pad" fill="rgb(200, 52, 52)" x="251.875" y="525" width="8.75" height="36.25" data-layer="top"/><rect class="pcb-pad" fill="rgb(200, 52, 52)" x="239.375" y="525" width="8.75" height="36.25" data-layer="top"/><rect class="pcb-pad" fill="rgb(200, 52, 52)" x="226.875" y="525" width="8.75" height="36.25" data-layer="top"/><rect class="pcb-pad" fill="rgb(200, 52, 52)" x="214.375" y="525" width="8.75" height="36.25" data-layer="top"/><rect class="pcb-pad" fill="rgb(200, 52, 52)" x="201.875" y="525" width="8.75" height="36.25" data-layer="top"/><rect class="pcb-pad" fill="rgb(200, 52, 52)" x="189.375" y="525" width="8.75" height="36.25" data-layer="top"/><rect class="pcb-pad" fill="rgb(200, 52, 52)" x="176.875" y="525" width="8.75" height="36.25" data-layer="top"/><rect class="pcb-pad" fill="rgb(200, 52, 52)" x="164.375" y="525" width="8.75" height="36.25" data-layer="top"/><g><circle class="pcb-hole-outer" fill="rgb(200, 52, 52)" cx="505" cy="25" r="70.25"/><circle class="pcb-hole-inner" fill="#FF26E2" cx="505" cy="25" r="47.75"/></g></svg>